  0
SECTION
  2
HEADER
  9
$ACADVER
  1
AC1027
  9
$ACADMAINTVER
 70
105
  9
$DWGCODEPAGE
  3
ANSI_1252
  9
$LASTSAVEDBY
  1
ezdxf
  9
$REQUIREDVERSIONS
160
0
  9
$INSBASE
 10
0.0
 20
0.0
 30
0.0
  9
$EXTMIN
 10
1e+20
 20
1e+20
 30
1e+20
  9
$EXTMAX
 10
-1e+20
 20
-1e+20
 30
-1e+20
  9
$LIMMIN
 10
0.0
 20
0.0
  9
$LIMMAX
 10
420.0
 20
297.0
  9
$ORTHOMODE
 70
0
  9
$REGENMODE
 70
1
  9
$FILLMODE
 70
1
  9
$QTEXTMODE
 70
0
  9
$MIRRTEXT
 70
1
  9
$LTSCALE
 40
1.0
  9
$ATTMODE
 70
1
  9
$TEXTSIZE
 40
2.5
  9
$TRACEWID
 40
1.0
  9
$TEXTSTYLE
  7
Standard
  9
$CLAYER
  8
0
  9
$CELTYPE
  6
ByLayer
  9
$CECOLOR
 62
256
  9
$CELTSCALE
 40
1.0
  9
$DISPSILH
 70
0
  9
$DIMSCALE
 40
1.0
  9
$DIMASZ
 40
2.5
  9
$DIMEXO
 40
0.625
  9
$DIMDLI
 40
3.75
  9
$DIMRND
 40
0.0
  9
$DIMDLE
 40
0.0
  9
$DIMEXE
 40
1.25
  9
$DIMTP
 40
0.0
  9
$DIMTM
 40
0.0
  9
$DIMTXT
 40
2.5
  9
$DIMCEN
 40
2.5
  9
$DIMTSZ
 40
0.0
  9
$DIMTOL
 70
0
  9
$DIMLIM
 70
0
  9
$DIMTIH
 70
0
  9
$DIMTOH
 70
0
  9
$DIMSE1
 70
0
  9
$DIMSE2
 70
0
  9
$DIMTAD
 70
1
  9
$DIMZIN
 70
8
  9
$DIMBLK
  1

  9
$DIMASO
 70
1
  9
$DIMSHO
 70
1
  9
$DIMPOST
  1

  9
$DIMAPOST
  1

  9
$DIMALT
 70
0
  9
$DIMALTD
 70
3
  9
$DIMALTF
 40
0.03937007874
  9
$DIMLFAC
 40
1.0
  9
$DIMTOFL
 70
1
  9
$DIMTVP
 40
0.0
  9
$DIMTIX
 70
0
  9
$DIMSOXD
 70
0
  9
$DIMSAH
 70
0
  9
$DIMBLK1
  1

  9
$DIMBLK2
  1

  9
$DIMSTYLE
  2
ISO-25
  9
$DIMCLRD
 70
0
  9
$DIMCLRE
 70
0
  9
$DIMCLRT
 70
0
  9
$DIMTFAC
 40
1.0
  9
$DIMGAP
 40
0.625
  9
$DIMJUST
 70
0
  9
$DIMSD1
 70
0
  9
$DIMSD2
 70
0
  9
$DIMTOLJ
 70
0
  9
$DIMTZIN
 70
8
  9
$DIMALTZ
 70
0
  9
$DIMALTTZ
 70
0
  9
$DIMUPT
 70
0
  9
$DIMDEC
 70
2
  9
$DIMTDEC
 70
2
  9
$DIMALTU
 70
2
  9
$DIMALTTD
 70
3
  9
$DIMTXSTY
  7
Standard
  9
$DIMAUNIT
 70
0
  9
$DIMADEC
 70
0
  9
$DIMALTRND
 40
0.0
  9
$DIMAZIN
 70
0
  9
$DIMDSEP
 70
44
  9
$DIMATFIT
 70
3
  9
$DIMFRAC
 70
0
  9
$DIMLDRBLK
  1

  9
$DIMLUNIT
 70
2
  9
$DIMLWD
 70
-2
  9
$DIMLWE
 70
-2
  9
$DIMTMOVE
 70
0
  9
$DIMFXL
 40
1.0
  9
$DIMFXLON
 70
0
  9
$DIMJOGANG
 40
0.785398163397
  9
$DIMTFILL
 70
0
  9
$DIMTFILLCLR
 70
0
  9
$DIMARCSYM
 70
0
  9
$DIMLTYPE
  6

  9
$DIMLTEX1
  6

  9
$DIMLTEX2
  6

  9
$DIMTXTDIRECTION
 70
0
  9
$LUNITS
 70
2
  9
$LUPREC
 70
4
  9
$SKETCHINC
 40
1.0
  9
$FILLETRAD
 40
10.0
  9
$AUNITS
 70
0
  9
$AUPREC
 70
2
  9
$MENU
  1
.
  9
$ELEVATION
 40
0.0
  9
$PELEVATION
 40
0.0
  9
$THICKNESS
 40
0.0
  9
$LIMCHECK
 70
0
  9
$CHAMFERA
 40
0.0
  9
$CHAMFERB
 40
0.0
  9
$CHAMFERC
 40
0.0
  9
$CHAMFERD
 40
0.0
  9
$SKPOLY
 70
0
  9
$TDCREATE
 40
2460498.7552199075
  9
$TDUCREATE
 40
2458532.153996898
  9
$TDUPDATE
 40
2460498.7552199075
  9
$TDUUPDATE
 40
2458532.1544311
  9
$TDINDWG
 40
0.0
  9
$TDUSRTIMER
 40
0.0
  9
$USRTIMER
 70
1
  9
$ANGBASE
 50
0.0
  9
$ANGDIR
 70
0
  9
$PDMODE
 70
0
  9
$PDSIZE
 40
0.0
  9
$PLINEWID
 40
0.0
  9
$SPLFRAME
 70
0
  9
$SPLINETYPE
 70
6
  9
$SPLINESEGS
 70
8
  9
$HANDSEED
  5
405
  9
$SURFTAB1
 70
6
  9
$SURFTAB2
 70
6
  9
$SURFTYPE
 70
6
  9
$SURFU
 70
6
  9
$SURFV
 70
6
  9
$UCSBASE
  2

  9
$UCSNAME
  2

  9
$UCSORG
 10
0.0
 20
0.0
 30
0.0
  9
$UCSXDIR
 10
1.0
 20
0.0
 30
0.0
  9
$UCSYDIR
 10
0.0
 20
1.0
 30
0.0
  9
$UCSORTHOREF
  2

  9
$UCSORTHOVIEW
 70
0
  9
$UCSORGTOP
 10
0.0
 20
0.0
 30
0.0
  9
$UCSORGBOTTOM
 10
0.0
 20
0.0
 30
0.0
  9
$UCSORGLEFT
 10
0.0
 20
0.0
 30
0.0
  9
$UCSORGRIGHT
 10
0.0
 20
0.0
 30
0.0
  9
$UCSORGFRONT
 10
0.0
 20
0.0
 30
0.0
  9
$UCSORGBACK
 10
0.0
 20
0.0
 30
0.0
  9
$PUCSBASE
  2

  9
$PUCSNAME
  2

  9
$PUCSORG
 10
0.0
 20
0.0
 30
0.0
  9
$PUCSXDIR
 10
1.0
 20
0.0
 30
0.0
  9
$PUCSYDIR
 10
0.0
 20
1.0
 30
0.0
  9
$PUCSORTHOREF
  2

  9
$PUCSORTHOVIEW
 70
0
  9
$PUCSORGTOP
 10
0.0
 20
0.0
 30
0.0
  9
$PUCSORGBOTTOM
 10
0.0
 20
0.0
 30
0.0
  9
$PUCSORGLEFT
 10
0.0
 20
0.0
 30
0.0
  9
$PUCSORGRIGHT
 10
0.0
 20
0.0
 30
0.0
  9
$PUCSORGFRONT
 10
0.0
 20
0.0
 30
0.0
  9
$PUCSORGBACK
 10
0.0
 20
0.0
 30
0.0
  9
$USERI1
 70
0
  9
$USERI2
 70
0
  9
$USERI3
 70
0
  9
$USERI4
 70
0
  9
$USERI5
 70
0
  9
$USERR1
 40
0.0
  9
$USERR2
 40
0.0
  9
$USERR3
 40
0.0
  9
$USERR4
 40
0.0
  9
$USERR5
 40
0.0
  9
$WORLDVIEW
 70
1
  9
$SHADEDGE
 70
3
  9
$SHADEDIF
 70
70
  9
$TILEMODE
 70
1
  9
$MAXACTVP
 70
64
  9
$PINSBASE
 10
0.0
 20
0.0
 30
0.0
  9
$PLIMCHECK
 70
0
  9
$PEXTMIN
 10
1e+20
 20
1e+20
 30
1e+20
  9
$PEXTMAX
 10
-1e+20
 20
-1e+20
 30
-1e+20
  9
$PLIMMIN
 10
0.0
 20
0.0
  9
$PLIMMAX
 10
420.0
 20
297.0
  9
$UNITMODE
 70
0
  9
$VISRETAIN
 70
1
  9
$PLINEGEN
 70
0
  9
$PSLTSCALE
 70
1
  9
$TREEDEPTH
 70
3020
  9
$CMLSTYLE
  2
Standard
  9
$CMLJUST
 70
0
  9
$CMLSCALE
 40
20.0
  9
$PROXYGRAPHICS
 70
1
  9
$MEASUREMENT
 70
1
  9
$CELWEIGHT
370
-1
  9
$ENDCAPS
280
0
  9
$JOINSTYLE
280
0
  9
$LWDISPLAY
290
0
  9
$INSUNITS
 70
6
  9
$HYPERLINKBASE
  1

  9
$STYLESHEET
  1

  9
$XEDIT
290
1
  9
$CEPSNTYPE
380
0
  9
$PSTYLEMODE
290
1
  9
$FINGERPRINTGUID
  2
{3F92F55C-31E6-4A08-8471-784C6FDD088B}
  9
$VERSIONGUID
  2
{FE0B9985-392F-48DB-817C-4C4A4E7CF53D}
  9
$EXTNAMES
290
1
  9
$PSVPSCALE
 40
0.0
  9
$OLESTARTUP
290
0
  9
$SORTENTS
280
127
  9
$INDEXCTL
280
0
  9
$HIDETEXT
280
1
  9
$XCLIPFRAME
280
1
  9
$HALOGAP
280
0
  9
$OBSCOLOR
 70
257
  9
$OBSLTYPE
280
0
  9
$INTERSECTIONDISPLAY
280
0
  9
$INTERSECTIONCOLOR
 70
257
  9
$DIMASSOC
280
2
  9
$PROJECTNAME
  1

  9
$CAMERADISPLAY
290
0
  9
$LENSLENGTH
 40
50.0
  9
$CAMERAHEIGHT
 40
0.0
  9
$STEPSPERSEC
 40
24.0
  9
$STEPSIZE
 40
100.0
  9
$3DDWFPREC
 40
2.0
  9
$PSOLWIDTH
 40
0.005
  9
$PSOLHEIGHT
 40
0.08
  9
$LOFTANG1
 40
1.570796326795
  9
$LOFTANG2
 40
1.570796326795
  9
$LOFTMAG1
 40
0.0
  9
$LOFTMAG2
 40
0.0
  9
$LOFTPARAM
 70
7
  9
$LOFTNORMALS
280
1
  9
$LATITUDE
 40
37.795
  9
$LONGITUDE
 40
-122.394
  9
$NORTHDIRECTION
 40
0.0
  9
$TIMEZONE
 70
-8000
  9
$LIGHTGLYPHDISPLAY
280
1
  9
$TILEMODELIGHTSYNCH
280
1
  9
$CMATERIAL
347
20
  9
$SOLIDHIST
280
0
  9
$SHOWHIST
280
1
  9
$DWFFRAME
280
2
  9
$DGNFRAME
280
2
  9
$REALWORLDSCALE
290
1
  9
$INTERFERECOLOR
 62
256
  9
$CSHADOW
280
0
  9
$SHADOWPLANELOCATION
 40
0.0
  0
ENDSEC
  0
SECTION
  2
CLASSES
  0
CLASS
  1
ACDBDICTIONARYWDFLT
  2
AcDbDictionaryWithDefault
  3
ObjectDBX Classes
 90
0
 91
0
280
0
281
0
  0
CLASS
  1
SUN
  2
AcDbSun
  3
SCENEOE
 90
1153
 91
0
280
0
281
0
  0
CLASS
  1
VISUALSTYLE
  2
AcDbVisualStyle
  3
ObjectDBX Classes
 90
4095
 91
0
280
0
281
0
  0
CLASS
  1
MATERIAL
  2
AcDbMaterial
  3
ObjectDBX Classes
 90
1153
 91
0
280
0
281
0
  0
CLASS
  1
SCALE
  2
AcDbScale
  3
ObjectDBX Classes
 90
1153
 91
0
280
0
281
0
  0
CLASS
  1
TABLESTYLE
  2
AcDbTableStyle
  3
ObjectDBX Classes
 90
4095
 91
0
280
0
281
0
  0
CLASS
  1
MLEADERSTYLE
  2
AcDbMLeaderStyle
  3
ACDB_MLEADERSTYLE_CLASS
 90
4095
 91
0
280
0
281
0
  0
CLASS
  1
DICTIONARYVAR
  2
AcDbDictionaryVar
  3
ObjectDBX Classes
 90
0
 91
0
280
0
281
0
  0
CLASS
  1
CELLSTYLEMAP
  2
AcDbCellStyleMap
  3
ObjectDBX Classes
 90
1152
 91
0
280
0
281
0
  0
CLASS
  1
MENTALRAYRENDERSETTINGS
  2
AcDbMentalRayRenderSettings
  3
SCENEOE
 90
1024
 91
0
280
0
281
0
  0
CLASS
  1
ACDBDETAILVIEWSTYLE
  2
AcDbDetailViewStyle
  3
ObjectDBX Classes
 90
1025
 91
0
280
0
281
0
  0
CLASS
  1
ACDBSECTIONVIEWSTYLE
  2
AcDbSectionViewStyle
  3
ObjectDBX Classes
 90
1025
 91
0
280
0
281
0
  0
CLASS
  1
RASTERVARIABLES
  2
AcDbRasterVariables
  3
ISM
 90
0
 91
0
280
0
281
0
  0
CLASS
  1
LAYOUT
  2
AcDbLayout
  3
ObjectDBX Classes
 90
0
 91
0
280
0
281
0
  0
CLASS
  1
ACDBPLACEHOLDER
  2
AcDbPlaceHolder
  3
ObjectDBX Classes
 90
0
 91
0
280
0
281
0
  0
ENDSEC
  0
SECTION
  2
TABLES
  0
TABLE
  2
VPORT
  5
8
330
0
100
AcDbSymbolTable
 70
1
  0
VPORT
  5
23
330
8
100
AcDbSymbolTableRecord
100
AcDbViewportTableRecord
  2
*Active
 70
0
 10
0.0
 20
0.0
 11
1.0
 21
1.0
 12
0.0
 22
0.0
 13
0.0
 23
0.0
 14
0.5
 24
0.5
 15
0.5
 25
0.5
 16
0.0
 26
0.0
 36
1.0
 17
0.0
 27
0.0
 37
0.0
 40
1000.0
 41
1.34
 42
50.0
 43
0.0
 44
0.0
 50
0.0
 51
0.0
 71
0
 72
1000
 73
1
 74
3
 75
0
 76
0
 77
0
 78
0
281
0
 65
0
146
0.0
  0
ENDTAB
  0
TABLE
  2
LTYPE
  5
2
330
0
100
AcDbSymbolTable
 70
11
  0
LTYPE
  5
24
330
2
100
AcDbSymbolTableRecord
100
AcDbLinetypeTableRecord
  2
ByBlock
 70
0
  3

 72
65
 73
0
 40
0.0
  0
LTYPE
  5
25
330
2
100
AcDbSymbolTableRecord
100
AcDbLinetypeTableRecord
  2
ByLayer
 70
0
  3

 72
65
 73
0
 40
0.0
  0
LTYPE
  5
26
330
2
100
AcDbSymbolTableRecord
100
AcDbLinetypeTableRecord
  2
Continuous
 70
0
  3

 72
65
 73
0
 40
0.0
  0
LTYPE
  5
30
330
2
100
AcDbSymbolTableRecord
100
AcDbLinetypeTableRecord
  2
Dashed
 70
0
  3
Dashed
 72
65
 73
1
 40
10.0
 49
10.0
 74
0
  0
LTYPE
  5
31
330
2
100
AcDbSymbolTableRecord
100
AcDbLinetypeTableRecord
  2
DashedLarge
 70
0
  3
DashedLarge
 72
65
 73
1
 40
20.0
 49
10.0
 74
0
  0
LTYPE
  5
32
330
2
100
AcDbSymbolTableRecord
100
AcDbLinetypeTableRecord
  2
Dotted
 70
0
  3
Dotted
 72
65
 73
1
 40
1.0
 49
10.0
 74
0
  0
LTYPE
  5
33
330
2
100
AcDbSymbolTableRecord
100
AcDbLinetypeTableRecord
  2
DottedLarge
 70
0
  3
DottedLarge
 72
65
 73
1
 40
1.0
 49
20.0
 74
0
  0
LTYPE
  5
34
330
2
100
AcDbSymbolTableRecord
100
AcDbLinetypeTableRecord
  2
DashDot
 70
0
  3
DashDot
 72
65
 73
3
 40
10.0
 49
5.0
 74
0
 49
1.0
 74
0
 49
5.0
 74
0
  0
LTYPE
  5
35
330
2
100
AcDbSymbolTableRecord
100
AcDbLinetypeTableRecord
  2
DashDotLarge
 70
0
  3
DashDotLarge
 72
65
 73
3
 40
20.0
 49
10.0
 74
0
 49
1.0
 74
0
 49
10.0
 74
0
  0
LTYPE
  5
36
330
2
100
AcDbSymbolTableRecord
100
AcDbLinetypeTableRecord
  2
DashDotDot
 70
0
  3
DashDotDot
 72
65
 73
5
 40
10.0
 49
5.0
 74
0
 49
1.0
 74
0
 49
5.0
 74
0
 49
1.0
 74
0
 49
5.0
 74
0
  0
LTYPE
  5
37
330
2
100
AcDbSymbolTableRecord
100
AcDbLinetypeTableRecord
  2
DashDotDotLarge
 70
0
  3
DashDotDotLarge
 72
65
 73
5
 40
20.0
 49
10.0
 74
0
 49
1.0
 74
0
 49
10.0
 74
0
 49
1.0
 74
0
 49
10.0
 74
0
  0
ENDTAB
  0
TABLE
  2
LAYER
  5
1
330
0
100
AcDbSymbolTable
 70
10
  0
LAYER
  5
27
330
1
100
AcDbSymbolTableRecord
100
AcDbLayerTableRecord
  2
0
 70
0
 62
7
  6
Continuous
370
-3
390
13
347
21
  0
LAYER
  5
28
330
1
100
AcDbSymbolTableRecord
100
AcDbLayerTableRecord
  2
Defpoints
 70
0
 62
7
  6
Continuous
290
0
370
-3
390
13
347
21
  0
LAYER
  5
111
330
1
100
AcDbSymbolTableRecord
100
AcDbLayerTableRecord
  2
axes
 70
0
 62
7
420
15204352
  6
DashDotLarge
370
5
390
13
347
21
1001
e8ec01b43m15-PYCAD-1.0.0
1000
autocut
1070
1
  0
LAYER
  5
133
330
1
100
AcDbSymbolTableRecord
100
AcDbLayerTableRecord
  2
construction
 70
0
 62
7
420
5570560
  6
Dashed
370
5
390
13
347
21
1001
e8ec01b43m15-PYCAD-1.0.0
1000
autocut
1070
1
  0
LAYER
  5
135
330
1
100
AcDbSymbolTableRecord
100
AcDbLayerTableRecord
  2
cutouts
 70
0
 62
7
420
16434176
  6
Continuous
370
15
390
13
347
21
1001
e8ec01b43m15-PYCAD-1.0.0
1000
autocut
1070
0
  0
LAYER
  5
171
330
1
100
AcDbSymbolTableRecord
100
AcDbLayerTableRecord
  2
visible
 70
0
 62
7
420
55357
  6
Continuous
370
9
390
13
347
21
1001
e8ec01b43m15-PYCAD-1.0.0
1000
autocut
1070
0
  0
LAYER
  5
1B1
330
1
100
AcDbSymbolTableRecord
100
AcDbLayerTableRecord
  2
above
 70
0
 62
7
420
59340
  6
Dotted
370
9
390
13
347
21
1001
e8ec01b43m15-PYCAD-1.0.0
1000
autocut
1070
0
  0
LAYER
  5
1B3
330
1
100
AcDbSymbolTableRecord
100
AcDbLayerTableRecord
  2
below
 70
0
 62
7
420
15969792
  6
Dashed
370
9
390
13
347
21
1001
e8ec01b43m15-PYCAD-1.0.0
1000
autocut
1070
0
  0
LAYER
  5
1B5
330
1
100
AcDbSymbolTableRecord
100
AcDbLayerTableRecord
  2
dims
 70
0
 62
7
420
41867
  6
Continuous
370
5
390
13
347
21
1001
e8ec01b43m15-PYCAD-1.0.0
1000
autocut
1070
0
  0
LAYER
  5
3EF
330
1
100
AcDbSymbolTableRecord
100
AcDbLayerTableRecord
  2
annotations
 70
0
 62
7
420
58305
  6
Continuous
370
5
390
13
347
21
1001
e8ec01b43m15-PYCAD-1.0.0
1000
autocut
1070
0
  0
ENDTAB
  0
TABLE
  2
STYLE
  5
5
330
0
100
AcDbSymbolTable
 70
1
  0
STYLE
  5
29
330
5
100
AcDbSymbolTableRecord
100
AcDbTextStyleTableRecord
  2
Standard
 70
0
 40
0.0
 41
1.0
 50
0.0
 71
0
 42
2.5
  3
txt
  4

  0
ENDTAB
  0
TABLE
  2
VIEW
  5
7
330
0
100
AcDbSymbolTable
 70
0
  0
ENDTAB
  0
TABLE
  2
UCS
  5
6
330
0
100
AcDbSymbolTable
 70
0
  0
ENDTAB
  0
TABLE
  2
APPID
  5
3
330
0
100
AcDbSymbolTable
 70
4
  0
APPID
  5
2A
330
3
100
AcDbSymbolTableRecord
100
AcDbRegAppTableRecord
  2
ACAD
 70
0
  0
APPID
  5
2F
330
3
100
AcDbSymbolTableRecord
100
AcDbRegAppTableRecord
  2
e8ec01b43m15-PYCAD-1.0.0
 70
0
  0
APPID
  5
402
330
3
100
AcDbSymbolTableRecord
100
AcDbRegAppTableRecord
  2
HATCHBACKGROUNDCOLOR
 70
0
  0
APPID
  5
403
330
3
100
AcDbSymbolTableRecord
100
AcDbRegAppTableRecord
  2
EZDXF
 70
0
  0
ENDTAB
  0
TABLE
  2
DIMSTYLE
  5
4
330
0
100
AcDbSymbolTable
 70
1
100
AcDbDimStyleTable
  0
DIMSTYLE
105
2B
330
4
100
AcDbSymbolTableRecord
100
AcDbDimStyleTableRecord
  2
Standard
 70
0
 40
1.0
 41
2.5
 42
0.625
 43
3.75
 44
1.25
 45
0.0
 46
0.0
 47
0.0
 48
0.0
 49
2.5
140
2.5
141
2.5
142
0.0
143
0.03937007874
144
1.0
145
0.0
146
1.0
147
0.625
148
0.0
 69
0
 70
0
 71
0
 72
0
 73
0
 74
0
 75
0
 76
0
 77
1
 78
8
 79
3
170
0
171
3
172
1
173
0
174
0
175
0
176
0
177
0
178
0
179
2
271
2
272
2
273
2
274
3
275
0
276
0
277
2
278
44
279
0
280
0
281
0
282
0
283
0
284
8
285
0
286
0
288
0
289
3
290
0
371
-2
372
-2
  0
ENDTAB
  0
TABLE
  2
BLOCK_RECORD
  5
9
330
0
100
AcDbSymbolTable
 70
51
  0
BLOCK_RECORD
  5
17
330
9
100
AcDbSymbolTableRecord
100
AcDbBlockTableRecord
  2
*Model_Space
340
1A
 70
0
280
1
281
0
  0
BLOCK_RECORD
  5
1B
330
9
100
AcDbSymbolTableRecord
100
AcDbBlockTableRecord
  2
*Paper_Space
340
1E
 70
0
280
1
281
0
  0
BLOCK_RECORD
  5
3D
330
9
100
AcDbSymbolTableRecord
100
AcDbBlockTableRecord
  2
*D1
340
0
 70
0
280
1
281
0
  0
BLOCK_RECORD
  5
42
330
9
100
AcDbSymbolTableRecord
100
AcDbBlockTableRecord
  2
_CLOSEDFILLED
340
0
 70
0
280
1
281
0
  0
BLOCK_RECORD
  5
53
330
9
100
AcDbSymbolTableRecord
100
AcDbBlockTableRecord
  2
*D2
340
0
 70
0
280
1
281
0
  0
BLOCK_RECORD
  5
62
330
9
100
AcDbSymbolTableRecord
100
AcDbBlockTableRecord
  2
*D3
340
0
 70
0
280
1
281
0
  0
BLOCK_RECORD
  5
71
330
9
100
AcDbSymbolTableRecord
100
AcDbBlockTableRecord
  2
*D4
340
0
 70
0
280
1
281
0
  0
BLOCK_RECORD
  5
80
330
9
100
AcDbSymbolTableRecord
100
AcDbBlockTableRecord
  2
*D5
340
0
 70
0
280
1
281
0
  0
BLOCK_RECORD
  5
91
330
9
100
AcDbSymbolTableRecord
100
AcDbBlockTableRecord
  2
*D6
340
0
 70
0
280
1
281
0
  0
BLOCK_RECORD
  5
A0
330
9
100
AcDbSymbolTableRecord
100
AcDbBlockTableRecord
  2
*D7
340
0
 70
0
280
1
281
0
  0
BLOCK_RECORD
  5
AF
330
9
100
AcDbSymbolTableRecord
100
AcDbBlockTableRecord
  2
*D8
340
0
 70
0
280
1
281
0
  0
BLOCK_RECORD
  5
C0
330
9
100
AcDbSymbolTableRecord
100
AcDbBlockTableRecord
  2
*D9
340
0
 70
0
280
1
281
0
  0
BLOCK_RECORD
  5
D0
330
9
100
AcDbSymbolTableRecord
100
AcDbBlockTableRecord
  2
*D10
340
0
 70
0
280
1
281
0
  0
BLOCK_RECORD
  5
DF
330
9
100
AcDbSymbolTableRecord
100
AcDbBlockTableRecord
  2
*D11
340
0
 70
0
280
1
281
0
  0
BLOCK_RECORD
  5
F0
330
9
100
AcDbSymbolTableRecord
100
AcDbBlockTableRecord
  2
*D12
340
0
 70
0
280
1
281
0
  0
BLOCK_RECORD
  5
101
330
9
100
AcDbSymbolTableRecord
100
AcDbBlockTableRecord
  2
*D13
340
0
 70
0
280
1
281
0
  0
BLOCK_RECORD
  5
1B7
330
9
100
AcDbSymbolTableRecord
100
AcDbBlockTableRecord
  2
*D14
340
0
 70
0
280
1
281
0
  0
BLOCK_RECORD
  5
1C8
330
9
100
AcDbSymbolTableRecord
100
AcDbBlockTableRecord
  2
*D15
340
0
 70
0
280
1
281
0
  0
BLOCK_RECORD
  5
1D7
330
9
100
AcDbSymbolTableRecord
100
AcDbBlockTableRecord
  2
*D16
340
0
 70
0
280
1
281
0
  0
BLOCK_RECORD
  5
1E8
330
9
100
AcDbSymbolTableRecord
100
AcDbBlockTableRecord
  2
*D17
340
0
 70
0
280
1
281
0
  0
BLOCK_RECORD
  5
1F9
330
9
100
AcDbSymbolTableRecord
100
AcDbBlockTableRecord
  2
*D18
340
0
 70
0
280
1
281
0
  0
BLOCK_RECORD
  5
208
330
9
100
AcDbSymbolTableRecord
100
AcDbBlockTableRecord
  2
*D19
340
0
 70
0
280
1
281
0
  0
BLOCK_RECORD
  5
217
330
9
100
AcDbSymbolTableRecord
100
AcDbBlockTableRecord
  2
*D20
340
0
 70
0
280
1
281
0
  0
BLOCK_RECORD
  5
226
330
9
100
AcDbSymbolTableRecord
100
AcDbBlockTableRecord
  2
*D21
340
0
 70
0
280
1
281
0
  0
BLOCK_RECORD
  5
235
330
9
100
AcDbSymbolTableRecord
100
AcDbBlockTableRecord
  2
*D22
340
0
 70
0
280
1
281
0
  0
BLOCK_RECORD
  5
244
330
9
100
AcDbSymbolTableRecord
100
AcDbBlockTableRecord
  2
*D23
340
0
 70
0
280
1
281
0
  0
BLOCK_RECORD
  5
255
330
9
100
AcDbSymbolTableRecord
100
AcDbBlockTableRecord
  2
*D24
340
0
 70
0
280
1
281
0
  0
BLOCK_RECORD
  5
264
330
9
100
AcDbSymbolTableRecord
100
AcDbBlockTableRecord
  2
*D25
340
0
 70
0
280
1
281
0
  0
BLOCK_RECORD
  5
273
330
9
100
AcDbSymbolTableRecord
100
AcDbBlockTableRecord
  2
*D26
340
0
 70
0
280
1
281
0
  0
BLOCK_RECORD
  5
284
330
9
100
AcDbSymbolTableRecord
100
AcDbBlockTableRecord
  2
*D27
340
0
 70
0
280
1
281
0
  0
BLOCK_RECORD
  5
295
330
9
100
AcDbSymbolTableRecord
100
AcDbBlockTableRecord
  2
*D28
340
0
 70
0
280
1
281
0
  0
BLOCK_RECORD
  5
2A6
330
9
100
AcDbSymbolTableRecord
100
AcDbBlockTableRecord
  2
*D29
340
0
 70
0
280
1
281
0
  0
BLOCK_RECORD
  5
2B7
330
9
100
AcDbSymbolTableRecord
100
AcDbBlockTableRecord
  2
*D30
340
0
 70
0
280
1
281
0
  0
BLOCK_RECORD
  5
2C8
330
9
100
AcDbSymbolTableRecord
100
AcDbBlockTableRecord
  2
*D31
340
0
 70
0
280
1
281
0
  0
BLOCK_RECORD
  5
2D7
330
9
100
AcDbSymbolTableRecord
100
AcDbBlockTableRecord
  2
*D32
340
0
 70
0
280
1
281
0
  0
BLOCK_RECORD
  5
2E8
330
9
100
AcDbSymbolTableRecord
100
AcDbBlockTableRecord
  2
*D33
340
0
 70
0
280
1
281
0
  0
BLOCK_RECORD
  5
2F9
330
9
100
AcDbSymbolTableRecord
100
AcDbBlockTableRecord
  2
*D34
340
0
 70
0
280
1
281
0
  0
BLOCK_RECORD
  5
308
330
9
100
AcDbSymbolTableRecord
100
AcDbBlockTableRecord
  2
*D35
340
0
 70
0
280
1
281
0
  0
BLOCK_RECORD
  5
319
330
9
100
AcDbSymbolTableRecord
100
AcDbBlockTableRecord
  2
*D36
340
0
 70
0
280
1
281
0
  0
BLOCK_RECORD
  5
32A
330
9
100
AcDbSymbolTableRecord
100
AcDbBlockTableRecord
  2
*D37
340
0
 70
0
280
1
281
0
  0
BLOCK_RECORD
  5
33B
330
9
100
AcDbSymbolTableRecord
100
AcDbBlockTableRecord
  2
*D38
340
0
 70
0
280
1
281
0
  0
BLOCK_RECORD
  5
34C
330
9
100
AcDbSymbolTableRecord
100
AcDbBlockTableRecord
  2
*D39
340
0
 70
0
280
1
281
0
  0
BLOCK_RECORD
  5
35B
330
9
100
AcDbSymbolTableRecord
100
AcDbBlockTableRecord
  2
*D40
340
0
 70
0
280
1
281
0
  0
BLOCK_RECORD
  5
36C
330
9
100
AcDbSymbolTableRecord
100
AcDbBlockTableRecord
  2
*D41
340
0
 70
0
280
1
281
0
  0
BLOCK_RECORD
  5
37D
330
9
100
AcDbSymbolTableRecord
100
AcDbBlockTableRecord
  2
*D42
340
0
 70
0
280
1
281
0
  0
BLOCK_RECORD
  5
38E
330
9
100
AcDbSymbolTableRecord
100
AcDbBlockTableRecord
  2
*D43
340
0
 70
0
280
1
281
0
  0
BLOCK_RECORD
  5
39F
330
9
100
AcDbSymbolTableRecord
100
AcDbBlockTableRecord
  2
*D44
340
0
 70
0
280
1
281
0
  0
BLOCK_RECORD
  5
3B0
330
9
100
AcDbSymbolTableRecord
100
AcDbBlockTableRecord
  2
*D45
340
0
 70
0
280
1
281
0
  0
BLOCK_RECORD
  5
3C1
330
9
100
AcDbSymbolTableRecord
100
AcDbBlockTableRecord
  2
*D46
340
0
 70
0
280
1
281
0
  0
BLOCK_RECORD
  5
3D0
330
9
100
AcDbSymbolTableRecord
100
AcDbBlockTableRecord
  2
*D47
340
0
 70
0
280
1
281
0
  0
BLOCK_RECORD
  5
3E1
330
9
100
AcDbSymbolTableRecord
100
AcDbBlockTableRecord
  2
*D48
340
0
 70
0
280
1
281
0
  0
ENDTAB
  0
ENDSEC
  0
SECTION
  2
BLOCKS
  0
BLOCK
  5
18
330
17
100
AcDbEntity
  8
0
100
AcDbBlockBegin
  2
*Model_Space
 70
0
 10
0.0
 20
0.0
 30
0.0
  3
*Model_Space
  1

  0
ENDBLK
  5
19
330
17
100
AcDbEntity
  8
0
100
AcDbBlockEnd
  0
BLOCK
  5
1C
330
1B
100
AcDbEntity
  8
0
100
AcDbBlockBegin
  2
*Paper_Space
 70
0
 10
0.0
 20
0.0
 30
0.0
  3
*Paper_Space
  1

  0
ENDBLK
  5
1D
330
1B
100
AcDbEntity
  8
0
100
AcDbBlockEnd
  0
BLOCK
  5
3E
330
3D
100
AcDbEntity
  8
0
100
AcDbBlockBegin
  2
*D1
 70
1
 10
0.0
 20
0.0
 30
0.0
  3
*D1
  1

  0
LINE
  5
40
330
3D
100
AcDbEntity
  8
0
100
AcDbLine
 10
125.0
 20
525.0
 30
0.0
 11
125.0
 21
525.0
 31
0.0
  0
LINE
  5
41
330
3D
100
AcDbEntity
  8
0
100
AcDbLine
 10
1575.0
 20
525.0
 30
0.0
 11
1575.0
 21
525.0
 31
0.0
  0
INSERT
  5
46
330
3D
100
AcDbEntity
  8
0
100
AcDbBlockReference
  2
_CLOSEDFILLED
 10
125.0
 20
525.0
 30
0.0
 41
0.25
 42
0.25
 50
180.0
  0
INSERT
  5
48
330
3D
100
AcDbEntity
  8
0
100
AcDbBlockReference
  2
_CLOSEDFILLED
 10
1575.0
 20
525.0
 30
0.0
 41
0.25
 42
0.25
  0
LINE
  5
4A
330
3D
100
AcDbEntity
  8
0
100
AcDbLine
 10
1573.0
 20
525.0
 30
0.0
 11
125.25
 21
525.0
 31
0.0
  0
MTEXT
  5
4B
330
3D
100
AcDbEntity
  8
0
100
AcDbMText
 10
1575.0
 20
525.0
 30
0.0
 40
1.0
 71
5
  1
1450
  0
POINT
  5
4C
330
3D
100
AcDbEntity
  8
Defpoints
100
AcDbPoint
 10
125.0
 20
525.0
 30
0.0
  0
POINT
  5
4D
330
3D
100
AcDbEntity
  8
Defpoints
100
AcDbPoint
 10
125.0
 20
525.0
 30
0.0
  0
POINT
  5
4E
330
3D
100
AcDbEntity
  8
Defpoints
100
AcDbPoint
 10
1575.0
 20
525.0
 30
0.0
  0
ENDBLK
  5
3F
330
3D
100
AcDbEntity
  8
0
100
AcDbBlockEnd
  0
BLOCK
  5
43
330
42
100
AcDbEntity
  8
0
100
AcDbBlockBegin
  2
_CLOSEDFILLED
 70
0
 10
0.0
 20
0.0
 30
0.0
  3
_CLOSEDFILLED
  1

  0
SOLID
  5
45
330
42
100
AcDbEntity
  8
0
  6
BYBLOCK
 62
0
100
AcDbTrace
 10
-1.0
 20
0.16439898372402537
 30
0.0
 11
0.0
 21
0.0
 31
0.0
 12
-1.0
 22
-0.16439898372402537
 32
0.0
 13
-1.0
 23
-0.16439898372402537
 33
0.0
  0
ENDBLK
  5
44
330
42
100
AcDbEntity
  8
0
100
AcDbBlockEnd
  0
BLOCK
  5
54
330
53
100
AcDbEntity
  8
0
100
AcDbBlockBegin
  2
*D2
 70
1
 10
0.0
 20
0.0
 30
0.0
  3
*D2
  1

  0
LINE
  5
56
330
53
100
AcDbEntity
  8
0
100
AcDbLine
 10
1000.0
 20
475.0
 30
0.0
 11
1000.0
 21
475.0
 31
0.0
  0
LINE
  5
57
330
53
100
AcDbEntity
  8
0
100
AcDbLine
 10
1025.0
 20
475.0
 30
0.0
 11
1025.0
 21
475.0
 31
0.0
  0
INSERT
  5
58
330
53
100
AcDbEntity
  8
0
100
AcDbBlockReference
  2
_CLOSEDFILLED
 10
1000.0
 20
475.0
 30
0.0
 41
0.25
 42
0.25
 50
180.0
  0
INSERT
  5
5A
330
53
100
AcDbEntity
  8
0
100
AcDbBlockReference
  2
_CLOSEDFILLED
 10
1025.0
 20
475.0
 30
0.0
 41
0.25
 42
0.25
  0
LINE
  5
5C
330
53
100
AcDbEntity
  8
0
100
AcDbLine
 10
1024.0
 20
475.0
 30
0.0
 11
1000.25
 21
475.0
 31
0.0
  0
MTEXT
  5
5D
330
53
100
AcDbEntity
  8
0
100
AcDbMText
 10
1025.0
 20
475.0
 30
0.0
 40
1.0
 71
5
  1
25
  0
POINT
  5
5E
330
53
100
AcDbEntity
  8
Defpoints
100
AcDbPoint
 10
1000.0
 20
475.0
 30
0.0
  0
POINT
  5
5F
330
53
100
AcDbEntity
  8
Defpoints
100
AcDbPoint
 10
1000.0
 20
475.0
 30
0.0
  0
POINT
  5
60
330
53
100
AcDbEntity
  8
Defpoints
100
AcDbPoint
 10
1025.0
 20
475.0
 30
0.0
  0
ENDBLK
  5
55
330
53
100
AcDbEntity
  8
0
100
AcDbBlockEnd
  0
BLOCK
  5
63
330
62
100
AcDbEntity
  8
0
100
AcDbBlockBegin
  2
*D3
 70
1
 10
0.0
 20
0.0
 30
0.0
  3
*D3
  1

  0
LINE
  5
65
330
62
100
AcDbEntity
  8
0
100
AcDbLine
 10
125.0
 20
475.0
 30
0.0
 11
125.0
 21
475.0
 31
0.0
  0
LINE
  5
66
330
62
100
AcDbEntity
  8
0
100
AcDbLine
 10
775.0
 20
475.0
 30
0.0
 11
775.0
 21
475.0
 31
0.0
  0
INSERT
  5
67
330
62
100
AcDbEntity
  8
0
100
AcDbBlockReference
  2
_CLOSEDFILLED
 10
125.0
 20
475.0
 30
0.0
 41
0.25
 42
0.25
 50
180.0
  0
INSERT
  5
69
330
62
100
AcDbEntity
  8
0
100
AcDbBlockReference
  2
_CLOSEDFILLED
 10
775.0
 20
475.0
 30
0.0
 41
0.25
 42
0.25
  0
LINE
  5
6B
330
62
100
AcDbEntity
  8
0
100
AcDbLine
 10
773.5
 20
475.0
 30
0.0
 11
125.25
 21
475.0
 31
0.0
  0
MTEXT
  5
6C
330
62
100
AcDbEntity
  8
0
100
AcDbMText
 10
775.0
 20
475.0
 30
0.0
 40
1.0
 71
5
  1
650
  0
POINT
  5
6D
330
62
100
AcDbEntity
  8
Defpoints
100
AcDbPoint
 10
125.0
 20
475.0
 30
0.0
  0
POINT
  5
6E
330
62
100
AcDbEntity
  8
Defpoints
100
AcDbPoint
 10
125.0
 20
475.0
 30
0.0
  0
POINT
  5
6F
330
62
100
AcDbEntity
  8
Defpoints
100
AcDbPoint
 10
775.0
 20
475.0
 30
0.0
  0
ENDBLK
  5
64
330
62
100
AcDbEntity
  8
0
100
AcDbBlockEnd
  0
BLOCK
  5
72
330
71
100
AcDbEntity
  8
0
100
AcDbBlockBegin
  2
*D4
 70
1
 10
0.0
 20
0.0
 30
0.0
  3
*D4
  1

  0
LINE
  5
74
330
71
100
AcDbEntity
  8
0
100
AcDbLine
 10
900.0
 20
50.0
 30
0.0
 11
900.0
 21
50.0
 31
0.0
  0
LINE
  5
75
330
71
100
AcDbEntity
  8
0
100
AcDbLine
 10
800.0
 20
50.0
 30
0.0
 11
800.0
 21
50.0
 31
0.0
  0
INSERT
  5
76
330
71
100
AcDbEntity
  8
0
100
AcDbBlockReference
  2
_CLOSEDFILLED
 10
900.0
 20
50.0
 30
0.0
 41
0.25
 42
0.25
 50
180.0
  0
INSERT
  5
78
330
71
100
AcDbEntity
  8
0
100
AcDbBlockReference
  2
_CLOSEDFILLED
 10
800.0
 20
50.0
 30
0.0
 41
0.25
 42
0.25
  0
LINE
  5
7A
330
71
100
AcDbEntity
  8
0
100
AcDbLine
 10
801.5
 20
50.0
 30
0.0
 11
900.25
 21
50.0
 31
0.0
  0
MTEXT
  5
7B
330
71
100
AcDbEntity
  8
0
100
AcDbMText
 10
800.0
 20
50.0
 30
0.0
 40
1.0
 71
5
  1
100
  0
POINT
  5
7C
330
71
100
AcDbEntity
  8
Defpoints
100
AcDbPoint
 10
900.0
 20
50.0
 30
0.0
  0
POINT
  5
7D
330
71
100
AcDbEntity
  8
Defpoints
100
AcDbPoint
 10
900.0
 20
50.0
 30
0.0
  0
POINT
  5
7E
330
71
100
AcDbEntity
  8
Defpoints
100
AcDbPoint
 10
800.0
 20
50.0
 30
0.0
  0
ENDBLK
  5
73
330
71
100
AcDbEntity
  8
0
100
AcDbBlockEnd
  0
BLOCK
  5
81
330
80
100
AcDbEntity
  8
0
100
AcDbBlockBegin
  2
*D5
 70
1
 10
0.0
 20
0.0
 30
0.0
  3
*D5
  1

  0
LINE
  5
83
330
80
100
AcDbEntity
  8
0
100
AcDbLine
 10
125.0
 20
-238.0
 30
0.0
 11
125.0
 21
-238.0
 31
0.0
  0
LINE
  5
84
330
80
100
AcDbEntity
  8
0
100
AcDbLine
 10
125.0
 20
-75.0
 30
0.0
 11
125.0
 21
-238.0
 31
0.0
  0
INSERT
  5
85
330
80
100
AcDbEntity
  8
0
100
AcDbBlockReference
  2
_CLOSEDFILLED
 10
125.0
 20
-238.0
 30
0.0
 41
0.25
 42
0.25
  0
INSERT
  5
87
330
80
100
AcDbEntity
  8
0
100
AcDbBlockReference
  2
_CLOSEDFILLED
 10
125.0
 20
-238.0
 30
0.0
 41
0.25
 42
0.25
 50
180.0
  0
LINE
  5
89
330
80
100
AcDbEntity
  8
0
100
AcDbLine
 10
124.75
 20
-238.0
 30
0.0
 11
124.5
 21
-238.0
 31
0.0
  0
LINE
  5
8A
330
80
100
AcDbEntity
  8
0
100
AcDbLine
 10
125.25
 20
-238.0
 30
0.0
 11
125.5
 21
-238.0
 31
0.0
  0
LINE
  5
8B
330
80
100
AcDbEntity
  8
0
100
AcDbLine
 10
125.0
 20
-238.0
 30
0.0
 11
125.0
 21
-238.0
 31
0.0
  0
MTEXT
  5
8C
330
80
100
AcDbEntity
  8
0
100
AcDbMText
 10
125.0
 20
-75.0
 30
0.0
 40
1.0
 71
5
  1
0
  0
POINT
  5
8D
330
80
100
AcDbEntity
  8
Defpoints
100
AcDbPoint
 10
125.0
 20
-238.0
 30
0.0
  0
POINT
  5
8E
330
80
100
AcDbEntity
  8
Defpoints
100
AcDbPoint
 10
125.0
 20
-238.0
 30
0.0
  0
POINT
  5
8F
330
80
100
AcDbEntity
  8
Defpoints
100
AcDbPoint
 10
125.0
 20
-75.0
 30
0.0
  0
ENDBLK
  5
82
330
80
100
AcDbEntity
  8
0
100
AcDbBlockEnd
  0
BLOCK
  5
92
330
91
100
AcDbEntity
  8
0
100
AcDbBlockBegin
  2
*D6
 70
1
 10
0.0
 20
0.0
 30
0.0
  3
*D6
  1

  0
LINE
  5
94
330
91
100
AcDbEntity
  8
0
100
AcDbLine
 10
1025.0
 20
475.0
 30
0.0
 11
1025.0
 21
475.0
 31
0.0
  0
LINE
  5
95
330
91
100
AcDbEntity
  8
0
100
AcDbLine
 10
1575.0
 20
475.0
 30
0.0
 11
1575.0
 21
475.0
 31
0.0
  0
INSERT
  5
96
330
91
100
AcDbEntity
  8
0
100
AcDbBlockReference
  2
_CLOSEDFILLED
 10
1025.0
 20
475.0
 30
0.0
 41
0.25
 42
0.25
 50
180.0
  0
INSERT
  5
98
330
91
100
AcDbEntity
  8
0
100
AcDbBlockReference
  2
_CLOSEDFILLED
 10
1575.0
 20
475.0
 30
0.0
 41
0.25
 42
0.25
  0
LINE
  5
9A
330
91
100
AcDbEntity
  8
0
100
AcDbLine
 10
1573.5
 20
475.0
 30
0.0
 11
1025.25
 21
475.0
 31
0.0
  0
MTEXT
  5
9B
330
91
100
AcDbEntity
  8
0
100
AcDbMText
 10
1575.0
 20
475.0
 30
0.0
 40
1.0
 71
5
  1
550
  0
POINT
  5
9C
330
91
100
AcDbEntity
  8
Defpoints
100
AcDbPoint
 10
1025.0
 20
475.0
 30
0.0
  0
POINT
  5
9D
330
91
100
AcDbEntity
  8
Defpoints
100
AcDbPoint
 10
1025.0
 20
475.0
 30
0.0
  0
POINT
  5
9E
330
91
100
AcDbEntity
  8
Defpoints
100
AcDbPoint
 10
1575.0
 20
475.0
 30
0.0
  0
ENDBLK
  5
93
330
91
100
AcDbEntity
  8
0
100
AcDbBlockEnd
  0
BLOCK
  5
A1
330
A0
100
AcDbEntity
  8
0
100
AcDbBlockBegin
  2
*D7
 70
1
 10
0.0
 20
0.0
 30
0.0
  3
*D7
  1

  0
LINE
  5
A3
330
A0
100
AcDbEntity
  8
0
100
AcDbLine
 10
800.0
 20
475.0
 30
0.0
 11
800.0
 21
475.0
 31
0.0
  0
LINE
  5
A4
330
A0
100
AcDbEntity
  8
0
100
AcDbLine
 10
1000.0
 20
475.0
 30
0.0
 11
1000.0
 21
475.0
 31
0.0
  0
INSERT
  5
A5
330
A0
100
AcDbEntity
  8
0
100
AcDbBlockReference
  2
_CLOSEDFILLED
 10
800.0
 20
475.0
 30
0.0
 41
0.25
 42
0.25
 50
180.0
  0
INSERT
  5
A7
330
A0
100
AcDbEntity
  8
0
100
AcDbBlockReference
  2
_CLOSEDFILLED
 10
1000.0
 20
475.0
 30
0.0
 41
0.25
 42
0.25
  0
LINE
  5
A9
330
A0
100
AcDbEntity
  8
0
100
AcDbLine
 10
998.5
 20
475.0
 30
0.0
 11
800.25
 21
475.0
 31
0.0
  0
MTEXT
  5
AA
330
A0
100
AcDbEntity
  8
0
100
AcDbMText
 10
1000.0
 20
475.0
 30
0.0
 40
1.0
 71
5
  1
200
  0
POINT
  5
AB
330
A0
100
AcDbEntity
  8
Defpoints
100
AcDbPoint
 10
800.0
 20
475.0
 30
0.0
  0
POINT
  5
AC
330
A0
100
AcDbEntity
  8
Defpoints
100
AcDbPoint
 10
800.0
 20
475.0
 30
0.0
  0
POINT
  5
AD
330
A0
100
AcDbEntity
  8
Defpoints
100
AcDbPoint
 10
1000.0
 20
475.0
 30
0.0
  0
ENDBLK
  5
A2
330
A0
100
AcDbEntity
  8
0
100
AcDbBlockEnd
  0
BLOCK
  5
B0
330
AF
100
AcDbEntity
  8
0
100
AcDbBlockBegin
  2
*D8
 70
1
 10
0.0
 20
0.0
 30
0.0
  3
*D8
  1

  0
LINE
  5
B2
330
AF
100
AcDbEntity
  8
0
100
AcDbLine
 10
175.0
 20
-213.0
 30
0.0
 11
175.0
 21
-213.0
 31
0.0
  0
LINE
  5
B3
330
AF
100
AcDbEntity
  8
0
100
AcDbLine
 10
175.0
 20
-350.0
 30
0.0
 11
175.0
 21
-213.0
 31
0.0
  0
INSERT
  5
B4
330
AF
100
AcDbEntity
  8
0
100
AcDbBlockReference
  2
_CLOSEDFILLED
 10
175.0
 20
-213.0
 30
0.0
 41
0.25
 42
0.25
  0
INSERT
  5
B6
330
AF
100
AcDbEntity
  8
0
100
AcDbBlockReference
  2
_CLOSEDFILLED
 10
175.0
 20
-213.0
 30
0.0
 41
0.25
 42
0.25
 50
180.0
  0
LINE
  5
B8
330
AF
100
AcDbEntity
  8
0
100
AcDbLine
 10
174.75
 20
-213.0
 30
0.0
 11
174.5
 21
-213.0
 31
0.0
  0
LINE
  5
B9
330
AF
100
AcDbEntity
  8
0
100
AcDbLine
 10
175.25
 20
-213.0
 30
0.0
 11
175.5
 21
-213.0
 31
0.0
  0
LINE
  5
BA
330
AF
100
AcDbEntity
  8
0
100
AcDbLine
 10
175.0
 20
-213.0
 30
0.0
 11
175.0
 21
-213.0
 31
0.0
  0
MTEXT
  5
BB
330
AF
100
AcDbEntity
  8
0
100
AcDbMText
 10
175.0
 20
-350.0
 30
0.0
 40
1.0
 71
5
  1
0
  0
POINT
  5
BC
330
AF
100
AcDbEntity
  8
Defpoints
100
AcDbPoint
 10
175.0
 20
-213.0
 30
0.0
  0
POINT
  5
BD
330
AF
100
AcDbEntity
  8
Defpoints
100
AcDbPoint
 10
175.0
 20
-213.0
 30
0.0
  0
POINT
  5
BE
330
AF
100
AcDbEntity
  8
Defpoints
100
AcDbPoint
 10
175.0
 20
-350.0
 30
0.0
  0
ENDBLK
  5
B1
330
AF
100
AcDbEntity
  8
0
100
AcDbBlockEnd
  0
BLOCK
  5
C1
330
C0
100
AcDbEntity
  8
0
100
AcDbBlockBegin
  2
*D9
 70
1
 10
0.0
 20
0.0
 30
0.0
  3
*D9
  1

  0
LINE
  5
C3
330
C0
100
AcDbEntity
  8
0
100
AcDbLine
 10
1000.0
 20
50.0
 30
0.0
 11
1000.0
 21
50.0
 31
0.0
  0
LINE
  5
C4
330
C0
100
AcDbEntity
  8
0
100
AcDbLine
 10
900.0
 20
50.0
 30
0.0
 11
900.0
 21
50.0
 31
0.0
  0
INSERT
  5
C5
330
C0
100
AcDbEntity
  8
0
100
AcDbBlockReference
  2
_CLOSEDFILLED
 10
1000.0
 20
50.0
 30
0.0
 41
0.25
 42
0.25
 50
180.0
  0
INSERT
  5
C7
330
C0
100
AcDbEntity
  8
0
100
AcDbBlockReference
  2
_CLOSEDFILLED
 10
900.0
 20
50.0
 30
0.0
 41
0.25
 42
0.25
  0
LINE
  5
C9
330
C0
100
AcDbEntity
  8
0
100
AcDbLine
 10
901.5
 20
50.0
 30
0.0
 11
1000.25
 21
50.0
 31
0.0
  0
MTEXT
  5
CA
330
C0
100
AcDbEntity
  8
0
100
AcDbMText
 10
900.0
 20
50.0
 30
0.0
 40
1.0
 71
5
  1
100
  0
POINT
  5
CB
330
C0
100
AcDbEntity
  8
Defpoints
100
AcDbPoint
 10
1000.0
 20
50.0
 30
0.0
  0
POINT
  5
CC
330
C0
100
AcDbEntity
  8
Defpoints
100
AcDbPoint
 10
1000.0
 20
50.0
 30
0.0
  0
POINT
  5
CD
330
C0
100
AcDbEntity
  8
Defpoints
100
AcDbPoint
 10
900.0
 20
50.0
 30
0.0
  0
ENDBLK
  5
C2
330
C0
100
AcDbEntity
  8
0
100
AcDbBlockEnd
  0
BLOCK
  5
D1
330
D0
100
AcDbEntity
  8
0
100
AcDbBlockBegin
  2
*D10
 70
1
 10
0.0
 20
0.0
 30
0.0
  3
*D10
  1

  0
LINE
  5
D3
330
D0
100
AcDbEntity
  8
0
100
AcDbLine
 10
775.0
 20
475.0
 30
0.0
 11
775.0
 21
475.0
 31
0.0
  0
LINE
  5
D4
330
D0
100
AcDbEntity
  8
0
100
AcDbLine
 10
800.0
 20
475.0
 30
0.0
 11
800.0
 21
475.0
 31
0.0
  0
INSERT
  5
D5
330
D0
100
AcDbEntity
  8
0
100
AcDbBlockReference
  2
_CLOSEDFILLED
 10
775.0
 20
475.0
 30
0.0
 41
0.25
 42
0.25
 50
180.0
  0
INSERT
  5
D7
330
D0
100
AcDbEntity
  8
0
100
AcDbBlockReference
  2
_CLOSEDFILLED
 10
800.0
 20
475.0
 30
0.0
 41
0.25
 42
0.25
  0
LINE
  5
D9
330
D0
100
AcDbEntity
  8
0
100
AcDbLine
 10
799.0
 20
475.0
 30
0.0
 11
775.25
 21
475.0
 31
0.0
  0
MTEXT
  5
DA
330
D0
100
AcDbEntity
  8
0
100
AcDbMText
 10
800.0
 20
475.0
 30
0.0
 40
1.0
 71
5
  1
25
  0
POINT
  5
DB
330
D0
100
AcDbEntity
  8
Defpoints
100
AcDbPoint
 10
775.0
 20
475.0
 30
0.0
  0
POINT
  5
DC
330
D0
100
AcDbEntity
  8
Defpoints
100
AcDbPoint
 10
775.0
 20
475.0
 30
0.0
  0
POINT
  5
DD
330
D0
100
AcDbEntity
  8
Defpoints
100
AcDbPoint
 10
800.0
 20
475.0
 30
0.0
  0
ENDBLK
  5
D2
330
D0
100
AcDbEntity
  8
0
100
AcDbBlockEnd
  0
BLOCK
  5
E0
330
DF
100
AcDbEntity
  8
0
100
AcDbBlockBegin
  2
*D11
 70
1
 10
0.0
 20
0.0
 30
0.0
  3
*D11
  1

  0
LINE
  5
E2
330
DF
100
AcDbEntity
  8
0
100
AcDbLine
 10
800.0
 20
50.0
 30
0.0
 11
800.0
 21
50.0
 31
0.0
  0
LINE
  5
E3
330
DF
100
AcDbEntity
  8
0
100
AcDbLine
 10
775.0
 20
50.0
 30
0.0
 11
775.0
 21
50.0
 31
0.0
  0
INSERT
  5
E4
330
DF
100
AcDbEntity
  8
0
100
AcDbBlockReference
  2
_CLOSEDFILLED
 10
800.0
 20
50.0
 30
0.0
 41
0.25
 42
0.25
 50
180.0
  0
INSERT
  5
E6
330
DF
100
AcDbEntity
  8
0
100
AcDbBlockReference
  2
_CLOSEDFILLED
 10
775.0
 20
50.0
 30
0.0
 41
0.25
 42
0.25
  0
LINE
  5
E8
330
DF
100
AcDbEntity
  8
0
100
AcDbLine
 10
776.0
 20
50.0
 30
0.0
 11
800.25
 21
50.0
 31
0.0
  0
MTEXT
  5
E9
330
DF
100
AcDbEntity
  8
0
100
AcDbMText
 10
775.0
 20
50.0
 30
0.0
 40
1.0
 71
5
  1
25
  0
POINT
  5
EA
330
DF
100
AcDbEntity
  8
Defpoints
100
AcDbPoint
 10
800.0
 20
50.0
 30
0.0
  0
POINT
  5
EB
330
DF
100
AcDbEntity
  8
Defpoints
100
AcDbPoint
 10
800.0
 20
50.0
 30
0.0
  0
POINT
  5
EC
330
DF
100
AcDbEntity
  8
Defpoints
100
AcDbPoint
 10
775.0
 20
50.0
 30
0.0
  0
ENDBLK
  5
E1
330
DF
100
AcDbEntity
  8
0
100
AcDbBlockEnd
  0
BLOCK
  5
F1
330
F0
100
AcDbEntity
  8
0
100
AcDbBlockBegin
  2
*D12
 70
1
 10
0.0
 20
0.0
 30
0.0
  3
*D12
  1

  0
LINE
  5
F3
330
F0
100
AcDbEntity
  8
0
100
AcDbLine
 10
175.0
 20
-75.0
 30
0.0
 11
175.0
 21
-75.0
 31
0.0
  0
LINE
  5
F4
330
F0
100
AcDbEntity
  8
0
100
AcDbLine
 10
175.0
 20
-213.0
 30
0.0
 11
175.0
 21
-75.0
 31
0.0
  0
INSERT
  5
F5
330
F0
100
AcDbEntity
  8
0
100
AcDbBlockReference
  2
_CLOSEDFILLED
 10
175.0
 20
-75.0
 30
0.0
 41
0.25
 42
0.25
  0
INSERT
  5
F7
330
F0
100
AcDbEntity
  8
0
100
AcDbBlockReference
  2
_CLOSEDFILLED
 10
175.0
 20
-75.0
 30
0.0
 41
0.25
 42
0.25
 50
180.0
  0
LINE
  5
F9
330
F0
100
AcDbEntity
  8
0
100
AcDbLine
 10
174.75
 20
-75.0
 30
0.0
 11
174.5
 21
-75.0
 31
0.0
  0
LINE
  5
FA
330
F0
100
AcDbEntity
  8
0
100
AcDbLine
 10
175.25
 20
-75.0
 30
0.0
 11
175.5
 21
-75.0
 31
0.0
  0
LINE
  5
FB
330
F0
100
AcDbEntity
  8
0
100
AcDbLine
 10
175.0
 20
-75.0
 30
0.0
 11
175.0
 21
-75.0
 31
0.0
  0
MTEXT
  5
FC
330
F0
100
AcDbEntity
  8
0
100
AcDbMText
 10
175.0
 20
-213.0
 30
0.0
 40
1.0
 71
5
  1
0
  0
POINT
  5
FD
330
F0
100
AcDbEntity
  8
Defpoints
100
AcDbPoint
 10
175.0
 20
-75.0
 30
0.0
  0
POINT
  5
FE
330
F0
100
AcDbEntity
  8
Defpoints
100
AcDbPoint
 10
175.0
 20
-75.0
 30
0.0
  0
POINT
  5
FF
330
F0
100
AcDbEntity
  8
Defpoints
100
AcDbPoint
 10
175.0
 20
-213.0
 30
0.0
  0
ENDBLK
  5
F2
330
F0
100
AcDbEntity
  8
0
100
AcDbBlockEnd
  0
BLOCK
  5
102
330
101
100
AcDbEntity
  8
0
100
AcDbBlockBegin
  2
*D13
 70
1
 10
0.0
 20
0.0
 30
0.0
  3
*D13
  1

  0
LINE
  5
104
330
101
100
AcDbEntity
  8
0
100
AcDbLine
 10
125.0
 20
-400.0
 30
0.0
 11
125.0
 21
-400.0
 31
0.0
  0
LINE
  5
105
330
101
100
AcDbEntity
  8
0
100
AcDbLine
 10
125.0
 20
-238.0
 30
0.0
 11
125.0
 21
-400.0
 31
0.0
  0
INSERT
  5
106
330
101
100
AcDbEntity
  8
0
100
AcDbBlockReference
  2
_CLOSEDFILLED
 10
125.0
 20
-400.0
 30
0.0
 41
0.25
 42
0.25
  0
INSERT
  5
108
330
101
100
AcDbEntity
  8
0
100
AcDbBlockReference
  2
_CLOSEDFILLED
 10
125.0
 20
-400.0
 30
0.0
 41
0.25
 42
0.25
 50
180.0
  0
LINE
  5
10A
330
101
100
AcDbEntity
  8
0
100
AcDbLine
 10
124.75
 20
-400.0
 30
0.0
 11
124.5
 21
-400.0
 31
0.0
  0
LINE
  5
10B
330
101
100
AcDbEntity
  8
0
100
AcDbLine
 10
125.25
 20
-400.0
 30
0.0
 11
125.5
 21
-400.0
 31
0.0
  0
LINE
  5
10C
330
101
100
AcDbEntity
  8
0
100
AcDbLine
 10
125.0
 20
-400.0
 30
0.0
 11
125.0
 21
-400.0
 31
0.0
  0
MTEXT
  5
10D
330
101
100
AcDbEntity
  8
0
100
AcDbMText
 10
125.0
 20
-238.0
 30
0.0
 40
1.0
 71
5
  1
0
  0
POINT
  5
10E
330
101
100
AcDbEntity
  8
Defpoints
100
AcDbPoint
 10
125.0
 20
-400.0
 30
0.0
  0
POINT
  5
10F
330
101
100
AcDbEntity
  8
Defpoints
100
AcDbPoint
 10
125.0
 20
-400.0
 30
0.0
  0
POINT
  5
110
330
101
100
AcDbEntity
  8
Defpoints
100
AcDbPoint
 10
125.0
 20
-238.0
 30
0.0
  0
ENDBLK
  5
103
330
101
100
AcDbEntity
  8
0
100
AcDbBlockEnd
  0
BLOCK
  5
1B8
330
1B7
100
AcDbEntity
  8
0
100
AcDbBlockBegin
  2
*D14
 70
1
 10
0.0
 20
0.0
 30
0.0
  3
*D14
  1

  0
LINE
  5
1BA
330
1B7
100
AcDbEntity
  8
0
100
AcDbLine
 10
1675.0
 20
-350.0
 30
0.0
 11
1675.0
 21
-350.0
 31
0.0
  0
LINE
  5
1BB
330
1B7
100
AcDbEntity
  8
0
100
AcDbLine
 10
1675.0
 20
-400.0
 30
0.0
 11
1675.0
 21
-350.0
 31
0.0
  0
INSERT
  5
1BC
330
1B7
100
AcDbEntity
  8
dims
100
AcDbBlockReference
  2
_CLOSEDFILLED
 10
1675.0
 20
-350.0
 30
0.0
 41
0.25
 42
0.25
  0
INSERT
  5
1BE
330
1B7
100
AcDbEntity
  8
dims
100
AcDbBlockReference
  2
_CLOSEDFILLED
 10
1675.0
 20
-350.0
 30
0.0
 41
0.25
 42
0.25
 50
180.0
  0
LINE
  5
1C0
330
1B7
100
AcDbEntity
  8
0
100
AcDbLine
 10
1674.75
 20
-350.0
 30
0.0
 11
1674.5
 21
-350.0
 31
0.0
  0
LINE
  5
1C1
330
1B7
100
AcDbEntity
  8
0
100
AcDbLine
 10
1675.25
 20
-350.0
 30
0.0
 11
1675.5
 21
-350.0
 31
0.0
  0
LINE
  5
1C2
330
1B7
100
AcDbEntity
  8
0
100
AcDbLine
 10
1675.0
 20
-350.0
 30
0.0
 11
1675.0
 21
-350.0
 31
0.0
  0
MTEXT
  5
1C3
330
1B7
100
AcDbEntity
  8
dims
100
AcDbMText
 10
1675.0
 20
-400.0
 30
0.0
 40
1.0
 71
5
  1
0
  0
POINT
  5
1C4
330
1B7
100
AcDbEntity
  8
Defpoints
100
AcDbPoint
 10
1675.0
 20
-350.0
 30
0.0
  0
POINT
  5
1C5
330
1B7
100
AcDbEntity
  8
Defpoints
100
AcDbPoint
 10
1675.0
 20
-350.0
 30
0.0
  0
POINT
  5
1C6
330
1B7
100
AcDbEntity
  8
Defpoints
100
AcDbPoint
 10
1675.0
 20
-400.0
 30
0.0
  0
ENDBLK
  5
1B9
330
1B7
100
AcDbEntity
  8
0
100
AcDbBlockEnd
  0
BLOCK
  5
1C9
330
1C8
100
AcDbEntity
  8
0
100
AcDbBlockBegin
  2
*D15
 70
1
 10
0.0
 20
0.0
 30
0.0
  3
*D15
  1

  0
LINE
  5
1CB
330
1C8
100
AcDbEntity
  8
0
100
AcDbLine
 10
625.0
 20
-450.0
 30
0.0
 11
625.0
 21
-450.0
 31
0.0
  0
LINE
  5
1CC
330
1C8
100
AcDbEntity
  8
0
100
AcDbLine
 10
250.0
 20
-450.0
 30
0.0
 11
250.0
 21
-450.0
 31
0.0
  0
INSERT
  5
1CD
330
1C8
100
AcDbEntity
  8
dims
100
AcDbBlockReference
  2
_CLOSEDFILLED
 10
625.0
 20
-450.0
 30
0.0
 41
0.25
 42
0.25
 50
180.0
  0
INSERT
  5
1CF
330
1C8
100
AcDbEntity
  8
dims
100
AcDbBlockReference
  2
_CLOSEDFILLED
 10
250.0
 20
-450.0
 30
0.0
 41
0.25
 42
0.25
  0
LINE
  5
1D1
330
1C8
100
AcDbEntity
  8
0
100
AcDbLine
 10
251.5
 20
-450.0
 30
0.0
 11
625.25
 21
-450.0
 31
0.0
  0
MTEXT
  5
1D2
330
1C8
100
AcDbEntity
  8
dims
100
AcDbMText
 10
250.0
 20
-450.0
 30
0.0
 40
1.0
 71
5
  1
375
  0
POINT
  5
1D3
330
1C8
100
AcDbEntity
  8
Defpoints
100
AcDbPoint
 10
625.0
 20
-450.0
 30
0.0
  0
POINT
  5
1D4
330
1C8
100
AcDbEntity
  8
Defpoints
100
AcDbPoint
 10
625.0
 20
-450.0
 30
0.0
  0
POINT
  5
1D5
330
1C8
100
AcDbEntity
  8
Defpoints
100
AcDbPoint
 10
250.0
 20
-450.0
 30
0.0
  0
ENDBLK
  5
1CA
330
1C8
100
AcDbEntity
  8
0
100
AcDbBlockEnd
  0
BLOCK
  5
1D8
330
1D7
100
AcDbEntity
  8
0
100
AcDbBlockBegin
  2
*D16
 70
1
 10
0.0
 20
0.0
 30
0.0
  3
*D16
  1

  0
LINE
  5
1DA
330
1D7
100
AcDbEntity
  8
0
100
AcDbLine
 10
1725.0
 20
375.0
 30
0.0
 11
1725.0
 21
375.0
 31
0.0
  0
LINE
  5
1DB
330
1D7
100
AcDbEntity
  8
0
100
AcDbLine
 10
1725.0
 20
-400.0
 30
0.0
 11
1725.0
 21
375.0
 31
0.0
  0
INSERT
  5
1DC
330
1D7
100
AcDbEntity
  8
dims
100
AcDbBlockReference
  2
_CLOSEDFILLED
 10
1725.0
 20
375.0
 30
0.0
 41
0.25
 42
0.25
  0
INSERT
  5
1DE
330
1D7
100
AcDbEntity
  8
dims
100
AcDbBlockReference
  2
_CLOSEDFILLED
 10
1725.0
 20
375.0
 30
0.0
 41
0.25
 42
0.25
 50
180.0
  0
LINE
  5
1E0
330
1D7
100
AcDbEntity
  8
0
100
AcDbLine
 10
1724.75
 20
375.0
 30
0.0
 11
1724.5
 21
375.0
 31
0.0
  0
LINE
  5
1E1
330
1D7
100
AcDbEntity
  8
0
100
AcDbLine
 10
1725.25
 20
375.0
 30
0.0
 11
1725.5
 21
375.0
 31
0.0
  0
LINE
  5
1E2
330
1D7
100
AcDbEntity
  8
0
100
AcDbLine
 10
1725.0
 20
375.0
 30
0.0
 11
1725.0
 21
375.0
 31
0.0
  0
MTEXT
  5
1E3
330
1D7
100
AcDbEntity
  8
dims
100
AcDbMText
 10
1725.0
 20
-400.0
 30
0.0
 40
1.0
 71
5
  1
0
  0
POINT
  5
1E4
330
1D7
100
AcDbEntity
  8
Defpoints
100
AcDbPoint
 10
1725.0
 20
375.0
 30
0.0
  0
POINT
  5
1E5
330
1D7
100
AcDbEntity
  8
Defpoints
100
AcDbPoint
 10
1725.0
 20
375.0
 30
0.0
  0
POINT
  5
1E6
330
1D7
100
AcDbEntity
  8
Defpoints
100
AcDbPoint
 10
1725.0
 20
-400.0
 30
0.0
  0
ENDBLK
  5
1D9
330
1D7
100
AcDbEntity
  8
0
100
AcDbBlockEnd
  0
BLOCK
  5
1E9
330
1E8
100
AcDbEntity
  8
0
100
AcDbBlockBegin
  2
*D17
 70
1
 10
0.0
 20
0.0
 30
0.0
  3
*D17
  1

  0
LINE
  5
1EB
330
1E8
100
AcDbEntity
  8
0
100
AcDbLine
 10
950.0
 20
-100.0
 30
0.0
 11
950.0
 21
-100.0
 31
0.0
  0
LINE
  5
1EC
330
1E8
100
AcDbEntity
  8
0
100
AcDbLine
 10
950.0
 20
50.0
 30
0.0
 11
950.0
 21
-100.0
 31
0.0
  0
INSERT
  5
1ED
330
1E8
100
AcDbEntity
  8
dims
100
AcDbBlockReference
  2
_CLOSEDFILLED
 10
950.0
 20
-100.0
 30
0.0
 41
0.25
 42
0.25
  0
INSERT
  5
1EF
330
1E8
100
AcDbEntity
  8
dims
100
AcDbBlockReference
  2
_CLOSEDFILLED
 10
950.0
 20
-100.0
 30
0.0
 41
0.25
 42
0.25
 50
180.0
  0
LINE
  5
1F1
330
1E8
100
AcDbEntity
  8
0
100
AcDbLine
 10
949.75
 20
-100.0
 30
0.0
 11
949.5
 21
-100.0
 31
0.0
  0
LINE
  5
1F2
330
1E8
100
AcDbEntity
  8
0
100
AcDbLine
 10
950.25
 20
-100.0
 30
0.0
 11
950.5
 21
-100.0
 31
0.0
  0
LINE
  5
1F3
330
1E8
100
AcDbEntity
  8
0
100
AcDbLine
 10
950.0
 20
-100.0
 30
0.0
 11
950.0
 21
-100.0
 31
0.0
  0
MTEXT
  5
1F4
330
1E8
100
AcDbEntity
  8
dims
100
AcDbMText
 10
950.0
 20
50.0
 30
0.0
 40
1.0
 71
5
  1
0
  0
POINT
  5
1F5
330
1E8
100
AcDbEntity
  8
Defpoints
100
AcDbPoint
 10
950.0
 20
-100.0
 30
0.0
  0
POINT
  5
1F6
330
1E8
100
AcDbEntity
  8
Defpoints
100
AcDbPoint
 10
950.0
 20
-100.0
 30
0.0
  0
POINT
  5
1F7
330
1E8
100
AcDbEntity
  8
Defpoints
100
AcDbPoint
 10
950.0
 20
50.0
 30
0.0
  0
ENDBLK
  5
1EA
330
1E8
100
AcDbEntity
  8
0
100
AcDbBlockEnd
  0
BLOCK
  5
1FA
330
1F9
100
AcDbEntity
  8
0
100
AcDbBlockBegin
  2
*D18
 70
1
 10
0.0
 20
0.0
 30
0.0
  3
*D18
  1

  0
LINE
  5
1FC
330
1F9
100
AcDbEntity
  8
0
100
AcDbLine
 10
175.0
 20
-50.0
 30
0.0
 11
175.0
 21
-50.0
 31
0.0
  0
LINE
  5
1FD
330
1F9
100
AcDbEntity
  8
0
100
AcDbLine
 10
425.0
 20
-50.0
 30
0.0
 11
425.0
 21
-50.0
 31
0.0
  0
INSERT
  5
1FE
330
1F9
100
AcDbEntity
  8
dims
100
AcDbBlockReference
  2
_CLOSEDFILLED
 10
175.0
 20
-50.0
 30
0.0
 41
0.25
 42
0.25
 50
180.0
  0
INSERT
  5
200
330
1F9
100
AcDbEntity
  8
dims
100
AcDbBlockReference
  2
_CLOSEDFILLED
 10
425.0
 20
-50.0
 30
0.0
 41
0.25
 42
0.25
  0
LINE
  5
202
330
1F9
100
AcDbEntity
  8
0
100
AcDbLine
 10
423.5
 20
-50.0
 30
0.0
 11
175.25
 21
-50.0
 31
0.0
  0
MTEXT
  5
203
330
1F9
100
AcDbEntity
  8
dims
100
AcDbMText
 10
425.0
 20
-50.0
 30
0.0
 40
1.0
 71
5
  1
250
  0
POINT
  5
204
330
1F9
100
AcDbEntity
  8
Defpoints
100
AcDbPoint
 10
175.0
 20
-50.0
 30
0.0
  0
POINT
  5
205
330
1F9
100
AcDbEntity
  8
Defpoints
100
AcDbPoint
 10
175.0
 20
-50.0
 30
0.0
  0
POINT
  5
206
330
1F9
100
AcDbEntity
  8
Defpoints
100
AcDbPoint
 10
425.0
 20
-50.0
 30
0.0
  0
ENDBLK
  5
1FB
330
1F9
100
AcDbEntity
  8
0
100
AcDbBlockEnd
  0
BLOCK
  5
209
330
208
100
AcDbEntity
  8
0
100
AcDbBlockBegin
  2
*D19
 70
1
 10
0.0
 20
0.0
 30
0.0
  3
*D19
  1

  0
LINE
  5
20B
330
208
100
AcDbEntity
  8
0
100
AcDbLine
 10
125.0
 20
-50.0
 30
0.0
 11
125.0
 21
-50.0
 31
0.0
  0
LINE
  5
20C
330
208
100
AcDbEntity
  8
0
100
AcDbLine
 10
175.0
 20
-50.0
 30
0.0
 11
175.0
 21
-50.0
 31
0.0
  0
INSERT
  5
20D
330
208
100
AcDbEntity
  8
dims
100
AcDbBlockReference
  2
_CLOSEDFILLED
 10
125.0
 20
-50.0
 30
0.0
 41
0.25
 42
0.25
 50
180.0
  0
INSERT
  5
20F
330
208
100
AcDbEntity
  8
dims
100
AcDbBlockReference
  2
_CLOSEDFILLED
 10
175.0
 20
-50.0
 30
0.0
 41
0.25
 42
0.25
  0
LINE
  5
211
330
208
100
AcDbEntity
  8
0
100
AcDbLine
 10
174.0
 20
-50.0
 30
0.0
 11
125.25
 21
-50.0
 31
0.0
  0
MTEXT
  5
212
330
208
100
AcDbEntity
  8
dims
100
AcDbMText
 10
175.0
 20
-50.0
 30
0.0
 40
1.0
 71
5
  1
50
  0
POINT
  5
213
330
208
100
AcDbEntity
  8
Defpoints
100
AcDbPoint
 10
125.0
 20
-50.0
 30
0.0
  0
POINT
  5
214
330
208
100
AcDbEntity
  8
Defpoints
100
AcDbPoint
 10
125.0
 20
-50.0
 30
0.0
  0
POINT
  5
215
330
208
100
AcDbEntity
  8
Defpoints
100
AcDbPoint
 10
175.0
 20
-50.0
 30
0.0
  0
ENDBLK
  5
20A
330
208
100
AcDbEntity
  8
0
100
AcDbBlockEnd
  0
BLOCK
  5
218
330
217
100
AcDbEntity
  8
0
100
AcDbBlockBegin
  2
*D20
 70
1
 10
0.0
 20
0.0
 30
0.0
  3
*D20
  1

  0
LINE
  5
21A
330
217
100
AcDbEntity
  8
0
100
AcDbLine
 10
1575.0
 20
-450.0
 30
0.0
 11
1575.0
 21
-450.0
 31
0.0
  0
LINE
  5
21B
330
217
100
AcDbEntity
  8
0
100
AcDbLine
 10
625.0
 20
-450.0
 30
0.0
 11
625.0
 21
-450.0
 31
0.0
  0
INSERT
  5
21C
330
217
100
AcDbEntity
  8
dims
100
AcDbBlockReference
  2
_CLOSEDFILLED
 10
1575.0
 20
-450.0
 30
0.0
 41
0.25
 42
0.25
 50
180.0
  0
INSERT
  5
21E
330
217
100
AcDbEntity
  8
dims
100
AcDbBlockReference
  2
_CLOSEDFILLED
 10
625.0
 20
-450.0
 30
0.0
 41
0.25
 42
0.25
  0
LINE
  5
220
330
217
100
AcDbEntity
  8
0
100
AcDbLine
 10
626.5
 20
-450.0
 30
0.0
 11
1575.25
 21
-450.0
 31
0.0
  0
MTEXT
  5
221
330
217
100
AcDbEntity
  8
dims
100
AcDbMText
 10
625.0
 20
-450.0
 30
0.0
 40
1.0
 71
5
  1
950
  0
POINT
  5
222
330
217
100
AcDbEntity
  8
Defpoints
100
AcDbPoint
 10
1575.0
 20
-450.0
 30
0.0
  0
POINT
  5
223
330
217
100
AcDbEntity
  8
Defpoints
100
AcDbPoint
 10
1575.0
 20
-450.0
 30
0.0
  0
POINT
  5
224
330
217
100
AcDbEntity
  8
Defpoints
100
AcDbPoint
 10
625.0
 20
-450.0
 30
0.0
  0
ENDBLK
  5
219
330
217
100
AcDbEntity
  8
0
100
AcDbBlockEnd
  0
BLOCK
  5
227
330
226
100
AcDbEntity
  8
0
100
AcDbBlockBegin
  2
*D21
 70
1
 10
0.0
 20
0.0
 30
0.0
  3
*D21
  1

  0
LINE
  5
229
330
226
100
AcDbEntity
  8
0
100
AcDbLine
 10
425.0
 20
-50.0
 30
0.0
 11
425.0
 21
-50.0
 31
0.0
  0
LINE
  5
22A
330
226
100
AcDbEntity
  8
0
100
AcDbLine
 10
800.0
 20
-50.0
 30
0.0
 11
800.0
 21
-50.0
 31
0.0
  0
INSERT
  5
22B
330
226
100
AcDbEntity
  8
dims
100
AcDbBlockReference
  2
_CLOSEDFILLED
 10
425.0
 20
-50.0
 30
0.0
 41
0.25
 42
0.25
 50
180.0
  0
INSERT
  5
22D
330
226
100
AcDbEntity
  8
dims
100
AcDbBlockReference
  2
_CLOSEDFILLED
 10
800.0
 20
-50.0
 30
0.0
 41
0.25
 42
0.25
  0
LINE
  5
22F
330
226
100
AcDbEntity
  8
0
100
AcDbLine
 10
798.5
 20
-50.0
 30
0.0
 11
425.25
 21
-50.0
 31
0.0
  0
MTEXT
  5
230
330
226
100
AcDbEntity
  8
dims
100
AcDbMText
 10
800.0
 20
-50.0
 30
0.0
 40
1.0
 71
5
  1
375
  0
POINT
  5
231
330
226
100
AcDbEntity
  8
Defpoints
100
AcDbPoint
 10
425.0
 20
-50.0
 30
0.0
  0
POINT
  5
232
330
226
100
AcDbEntity
  8
Defpoints
100
AcDbPoint
 10
425.0
 20
-50.0
 30
0.0
  0
POINT
  5
233
330
226
100
AcDbEntity
  8
Defpoints
100
AcDbPoint
 10
800.0
 20
-50.0
 30
0.0
  0
ENDBLK
  5
228
330
226
100
AcDbEntity
  8
0
100
AcDbBlockEnd
  0
BLOCK
  5
236
330
235
100
AcDbEntity
  8
0
100
AcDbBlockBegin
  2
*D22
 70
1
 10
0.0
 20
0.0
 30
0.0
  3
*D22
  1

  0
LINE
  5
238
330
235
100
AcDbEntity
  8
0
100
AcDbLine
 10
800.0
 20
-50.0
 30
0.0
 11
800.0
 21
-50.0
 31
0.0
  0
LINE
  5
239
330
235
100
AcDbEntity
  8
0
100
AcDbLine
 10
1000.0
 20
-50.0
 30
0.0
 11
1000.0
 21
-50.0
 31
0.0
  0
INSERT
  5
23A
330
235
100
AcDbEntity
  8
dims
100
AcDbBlockReference
  2
_CLOSEDFILLED
 10
800.0
 20
-50.0
 30
0.0
 41
0.25
 42
0.25
 50
180.0
  0
INSERT
  5
23C
330
235
100
AcDbEntity
  8
dims
100
AcDbBlockReference
  2
_CLOSEDFILLED
 10
1000.0
 20
-50.0
 30
0.0
 41
0.25
 42
0.25
  0
LINE
  5
23E
330
235
100
AcDbEntity
  8
0
100
AcDbLine
 10
998.5
 20
-50.0
 30
0.0
 11
800.25
 21
-50.0
 31
0.0
  0
MTEXT
  5
23F
330
235
100
AcDbEntity
  8
dims
100
AcDbMText
 10
1000.0
 20
-50.0
 30
0.0
 40
1.0
 71
5
  1
200
  0
POINT
  5
240
330
235
100
AcDbEntity
  8
Defpoints
100
AcDbPoint
 10
800.0
 20
-50.0
 30
0.0
  0
POINT
  5
241
330
235
100
AcDbEntity
  8
Defpoints
100
AcDbPoint
 10
800.0
 20
-50.0
 30
0.0
  0
POINT
  5
242
330
235
100
AcDbEntity
  8
Defpoints
100
AcDbPoint
 10
1000.0
 20
-50.0
 30
0.0
  0
ENDBLK
  5
237
330
235
100
AcDbEntity
  8
0
100
AcDbBlockEnd
  0
BLOCK
  5
245
330
244
100
AcDbEntity
  8
0
100
AcDbBlockBegin
  2
*D23
 70
1
 10
0.0
 20
0.0
 30
0.0
  3
*D23
  1

  0
LINE
  5
247
330
244
100
AcDbEntity
  8
0
100
AcDbLine
 10
0.0
 20
-400.0
 30
0.0
 11
0.0
 21
-400.0
 31
0.0
  0
LINE
  5
248
330
244
100
AcDbEntity
  8
0
100
AcDbLine
 10
0.0
 20
375.0
 30
0.0
 11
0.0
 21
-400.0
 31
0.0
  0
INSERT
  5
249
330
244
100
AcDbEntity
  8
dims
100
AcDbBlockReference
  2
_CLOSEDFILLED
 10
0.0
 20
-400.0
 30
0.0
 41
0.25
 42
0.25
  0
INSERT
  5
24B
330
244
100
AcDbEntity
  8
dims
100
AcDbBlockReference
  2
_CLOSEDFILLED
 10
0.0
 20
-400.0
 30
0.0
 41
0.25
 42
0.25
 50
180.0
  0
LINE
  5
24D
330
244
100
AcDbEntity
  8
0
100
AcDbLine
 10
-0.25
 20
-400.0
 30
0.0
 11
-0.5
 21
-400.0
 31
0.0
  0
LINE
  5
24E
330
244
100
AcDbEntity
  8
0
100
AcDbLine
 10
0.25
 20
-400.0
 30
0.0
 11
0.5
 21
-400.0
 31
0.0
  0
LINE
  5
24F
330
244
100
AcDbEntity
  8
0
100
AcDbLine
 10
0.0
 20
-400.0
 30
0.0
 11
0.0
 21
-400.0
 31
0.0
  0
MTEXT
  5
250
330
244
100
AcDbEntity
  8
dims
100
AcDbMText
 10
0.0
 20
375.0
 30
0.0
 40
1.0
 71
5
  1
0
  0
POINT
  5
251
330
244
100
AcDbEntity
  8
Defpoints
100
AcDbPoint
 10
0.0
 20
-400.0
 30
0.0
  0
POINT
  5
252
330
244
100
AcDbEntity
  8
Defpoints
100
AcDbPoint
 10
0.0
 20
-400.0
 30
0.0
  0
POINT
  5
253
330
244
100
AcDbEntity
  8
Defpoints
100
AcDbPoint
 10
0.0
 20
375.0
 30
0.0
  0
ENDBLK
  5
246
330
244
100
AcDbEntity
  8
0
100
AcDbBlockEnd
  0
BLOCK
  5
256
330
255
100
AcDbEntity
  8
0
100
AcDbBlockBegin
  2
*D24
 70
1
 10
0.0
 20
0.0
 30
0.0
  3
*D24
  1

  0
LINE
  5
258
330
255
100
AcDbEntity
  8
0
100
AcDbLine
 10
1575.0
 20
-500.0
 30
0.0
 11
1575.0
 21
-500.0
 31
0.0
  0
LINE
  5
259
330
255
100
AcDbEntity
  8
0
100
AcDbLine
 10
125.0
 20
-500.0
 30
0.0
 11
125.0
 21
-500.0
 31
0.0
  0
INSERT
  5
25A
330
255
100
AcDbEntity
  8
dims
100
AcDbBlockReference
  2
_CLOSEDFILLED
 10
1575.0
 20
-500.0
 30
0.0
 41
0.25
 42
0.25
 50
180.0
  0
INSERT
  5
25C
330
255
100
AcDbEntity
  8
dims
100
AcDbBlockReference
  2
_CLOSEDFILLED
 10
125.0
 20
-500.0
 30
0.0
 41
0.25
 42
0.25
  0
LINE
  5
25E
330
255
100
AcDbEntity
  8
0
100
AcDbLine
 10
127.0
 20
-500.0
 30
0.0
 11
1575.25
 21
-500.0
 31
0.0
  0
MTEXT
  5
25F
330
255
100
AcDbEntity
  8
dims
100
AcDbMText
 10
125.0
 20
-500.0
 30
0.0
 40
1.0
 71
5
  1
1450
  0
POINT
  5
260
330
255
100
AcDbEntity
  8
Defpoints
100
AcDbPoint
 10
1575.0
 20
-500.0
 30
0.0
  0
POINT
  5
261
330
255
100
AcDbEntity
  8
Defpoints
100
AcDbPoint
 10
1575.0
 20
-500.0
 30
0.0
  0
POINT
  5
262
330
255
100
AcDbEntity
  8
Defpoints
100
AcDbPoint
 10
125.0
 20
-500.0
 30
0.0
  0
ENDBLK
  5
257
330
255
100
AcDbEntity
  8
0
100
AcDbBlockEnd
  0
BLOCK
  5
265
330
264
100
AcDbEntity
  8
0
100
AcDbBlockBegin
  2
*D25
 70
1
 10
0.0
 20
0.0
 30
0.0
  3
*D25
  1

  0
LINE
  5
267
330
264
100
AcDbEntity
  8
0
100
AcDbLine
 10
1000.0
 20
-50.0
 30
0.0
 11
1000.0
 21
-50.0
 31
0.0
  0
LINE
  5
268
330
264
100
AcDbEntity
  8
0
100
AcDbLine
 10
1525.0
 20
-50.0
 30
0.0
 11
1525.0
 21
-50.0
 31
0.0
  0
INSERT
  5
269
330
264
100
AcDbEntity
  8
dims
100
AcDbBlockReference
  2
_CLOSEDFILLED
 10
1000.0
 20
-50.0
 30
0.0
 41
0.25
 42
0.25
 50
180.0
  0
INSERT
  5
26B
330
264
100
AcDbEntity
  8
dims
100
AcDbBlockReference
  2
_CLOSEDFILLED
 10
1525.0
 20
-50.0
 30
0.0
 41
0.25
 42
0.25
  0
LINE
  5
26D
330
264
100
AcDbEntity
  8
0
100
AcDbLine
 10
1523.5
 20
-50.0
 30
0.0
 11
1000.25
 21
-50.0
 31
0.0
  0
MTEXT
  5
26E
330
264
100
AcDbEntity
  8
dims
100
AcDbMText
 10
1525.0
 20
-50.0
 30
0.0
 40
1.0
 71
5
  1
525
  0
POINT
  5
26F
330
264
100
AcDbEntity
  8
Defpoints
100
AcDbPoint
 10
1000.0
 20
-50.0
 30
0.0
  0
POINT
  5
270
330
264
100
AcDbEntity
  8
Defpoints
100
AcDbPoint
 10
1000.0
 20
-50.0
 30
0.0
  0
POINT
  5
271
330
264
100
AcDbEntity
  8
Defpoints
100
AcDbPoint
 10
1525.0
 20
-50.0
 30
0.0
  0
ENDBLK
  5
266
330
264
100
AcDbEntity
  8
0
100
AcDbBlockEnd
  0
BLOCK
  5
274
330
273
100
AcDbEntity
  8
0
100
AcDbBlockBegin
  2
*D26
 70
1
 10
0.0
 20
0.0
 30
0.0
  3
*D26
  1

  0
LINE
  5
276
330
273
100
AcDbEntity
  8
0
100
AcDbLine
 10
1675.0
 20
375.0
 30
0.0
 11
1675.0
 21
375.0
 31
0.0
  0
LINE
  5
277
330
273
100
AcDbEntity
  8
0
100
AcDbLine
 10
1675.0
 20
300.0
 30
0.0
 11
1675.0
 21
375.0
 31
0.0
  0
INSERT
  5
278
330
273
100
AcDbEntity
  8
dims
100
AcDbBlockReference
  2
_CLOSEDFILLED
 10
1675.0
 20
375.0
 30
0.0
 41
0.25
 42
0.25
  0
INSERT
  5
27A
330
273
100
AcDbEntity
  8
dims
100
AcDbBlockReference
  2
_CLOSEDFILLED
 10
1675.0
 20
375.0
 30
0.0
 41
0.25
 42
0.25
 50
180.0
  0
LINE
  5
27C
330
273
100
AcDbEntity
  8
0
100
AcDbLine
 10
1674.75
 20
375.0
 30
0.0
 11
1674.5
 21
375.0
 31
0.0
  0
LINE
  5
27D
330
273
100
AcDbEntity
  8
0
100
AcDbLine
 10
1675.25
 20
375.0
 30
0.0
 11
1675.5
 21
375.0
 31
0.0
  0
LINE
  5
27E
330
273
100
AcDbEntity
  8
0
100
AcDbLine
 10
1675.0
 20
375.0
 30
0.0
 11
1675.0
 21
375.0
 31
0.0
  0
MTEXT
  5
27F
330
273
100
AcDbEntity
  8
dims
100
AcDbMText
 10
1675.0
 20
300.0
 30
0.0
 40
1.0
 71
5
  1
0
  0
POINT
  5
280
330
273
100
AcDbEntity
  8
Defpoints
100
AcDbPoint
 10
1675.0
 20
375.0
 30
0.0
  0
POINT
  5
281
330
273
100
AcDbEntity
  8
Defpoints
100
AcDbPoint
 10
1675.0
 20
375.0
 30
0.0
  0
POINT
  5
282
330
273
100
AcDbEntity
  8
Defpoints
100
AcDbPoint
 10
1675.0
 20
300.0
 30
0.0
  0
ENDBLK
  5
275
330
273
100
AcDbEntity
  8
0
100
AcDbBlockEnd
  0
BLOCK
  5
285
330
284
100
AcDbEntity
  8
0
100
AcDbBlockBegin
  2
*D27
 70
1
 10
0.0
 20
0.0
 30
0.0
  3
*D27
  1

  0
LINE
  5
287
330
284
100
AcDbEntity
  8
0
100
AcDbLine
 10
50.0
 20
-75.0
 30
0.0
 11
50.0
 21
-75.0
 31
0.0
  0
LINE
  5
288
330
284
100
AcDbEntity
  8
0
100
AcDbLine
 10
50.0
 20
325.0
 30
0.0
 11
50.0
 21
-75.0
 31
0.0
  0
INSERT
  5
289
330
284
100
AcDbEntity
  8
dims
100
AcDbBlockReference
  2
_CLOSEDFILLED
 10
50.0
 20
-75.0
 30
0.0
 41
0.25
 42
0.25
  0
INSERT
  5
28B
330
284
100
AcDbEntity
  8
dims
100
AcDbBlockReference
  2
_CLOSEDFILLED
 10
50.0
 20
-75.0
 30
0.0
 41
0.25
 42
0.25
 50
180.0
  0
LINE
  5
28D
330
284
100
AcDbEntity
  8
0
100
AcDbLine
 10
49.75
 20
-75.0
 30
0.0
 11
49.5
 21
-75.0
 31
0.0
  0
LINE
  5
28E
330
284
100
AcDbEntity
  8
0
100
AcDbLine
 10
50.25
 20
-75.0
 30
0.0
 11
50.5
 21
-75.0
 31
0.0
  0
LINE
  5
28F
330
284
100
AcDbEntity
  8
0
100
AcDbLine
 10
50.0
 20
-75.0
 30
0.0
 11
50.0
 21
-75.0
 31
0.0
  0
MTEXT
  5
290
330
284
100
AcDbEntity
  8
dims
100
AcDbMText
 10
50.0
 20
325.0
 30
0.0
 40
1.0
 71
5
  1
0
  0
POINT
  5
291
330
284
100
AcDbEntity
  8
Defpoints
100
AcDbPoint
 10
50.0
 20
-75.0
 30
0.0
  0
POINT
  5
292
330
284
100
AcDbEntity
  8
Defpoints
100
AcDbPoint
 10
50.0
 20
-75.0
 30
0.0
  0
POINT
  5
293
330
284
100
AcDbEntity
  8
Defpoints
100
AcDbPoint
 10
50.0
 20
325.0
 30
0.0
  0
ENDBLK
  5
286
330
284
100
AcDbEntity
  8
0
100
AcDbBlockEnd
  0
BLOCK
  5
296
330
295
100
AcDbEntity
  8
0
100
AcDbBlockBegin
  2
*D28
 70
1
 10
0.0
 20
0.0
 30
0.0
  3
*D28
  1

  0
LINE
  5
298
330
295
100
AcDbEntity
  8
0
100
AcDbLine
 10
950.0
 20
-350.0
 30
0.0
 11
950.0
 21
-350.0
 31
0.0
  0
LINE
  5
299
330
295
100
AcDbEntity
  8
0
100
AcDbLine
 10
950.0
 20
-200.0
 30
0.0
 11
950.0
 21
-350.0
 31
0.0
  0
INSERT
  5
29A
330
295
100
AcDbEntity
  8
dims
100
AcDbBlockReference
  2
_CLOSEDFILLED
 10
950.0
 20
-350.0
 30
0.0
 41
0.25
 42
0.25
  0
INSERT
  5
29C
330
295
100
AcDbEntity
  8
dims
100
AcDbBlockReference
  2
_CLOSEDFILLED
 10
950.0
 20
-350.0
 30
0.0
 41
0.25
 42
0.25
 50
180.0
  0
LINE
  5
29E
330
295
100
AcDbEntity
  8
0
100
AcDbLine
 10
949.75
 20
-350.0
 30
0.0
 11
949.5
 21
-350.0
 31
0.0
  0
LINE
  5
29F
330
295
100
AcDbEntity
  8
0
100
AcDbLine
 10
950.25
 20
-350.0
 30
0.0
 11
950.5
 21
-350.0
 31
0.0
  0
LINE
  5
2A0
330
295
100
AcDbEntity
  8
0
100
AcDbLine
 10
950.0
 20
-350.0
 30
0.0
 11
950.0
 21
-350.0
 31
0.0
  0
MTEXT
  5
2A1
330
295
100
AcDbEntity
  8
dims
100
AcDbMText
 10
950.0
 20
-200.0
 30
0.0
 40
1.0
 71
5
  1
0
  0
POINT
  5
2A2
330
295
100
AcDbEntity
  8
Defpoints
100
AcDbPoint
 10
950.0
 20
-350.0
 30
0.0
  0
POINT
  5
2A3
330
295
100
AcDbEntity
  8
Defpoints
100
AcDbPoint
 10
950.0
 20
-350.0
 30
0.0
  0
POINT
  5
2A4
330
295
100
AcDbEntity
  8
Defpoints
100
AcDbPoint
 10
950.0
 20
-200.0
 30
0.0
  0
ENDBLK
  5
297
330
295
100
AcDbEntity
  8
0
100
AcDbBlockEnd
  0
BLOCK
  5
2A7
330
2A6
100
AcDbEntity
  8
0
100
AcDbBlockBegin
  2
*D29
 70
1
 10
0.0
 20
0.0
 30
0.0
  3
*D29
  1

  0
LINE
  5
2A9
330
2A6
100
AcDbEntity
  8
0
100
AcDbLine
 10
1675.0
 20
-100.0
 30
0.0
 11
1675.0
 21
-100.0
 31
0.0
  0
LINE
  5
2AA
330
2A6
100
AcDbEntity
  8
0
100
AcDbLine
 10
1675.0
 20
-200.0
 30
0.0
 11
1675.0
 21
-100.0
 31
0.0
  0
INSERT
  5
2AB
330
2A6
100
AcDbEntity
  8
dims
100
AcDbBlockReference
  2
_CLOSEDFILLED
 10
1675.0
 20
-100.0
 30
0.0
 41
0.25
 42
0.25
  0
INSERT
  5
2AD
330
2A6
100
AcDbEntity
  8
dims
100
AcDbBlockReference
  2
_CLOSEDFILLED
 10
1675.0
 20
-100.0
 30
0.0
 41
0.25
 42
0.25
 50
180.0
  0
LINE
  5
2AF
330
2A6
100
AcDbEntity
  8
0
100
AcDbLine
 10
1674.75
 20
-100.0
 30
0.0
 11
1674.5
 21
-100.0
 31
0.0
  0
LINE
  5
2B0
330
2A6
100
AcDbEntity
  8
0
100
AcDbLine
 10
1675.25
 20
-100.0
 30
0.0
 11
1675.5
 21
-100.0
 31
0.0
  0
LINE
  5
2B1
330
2A6
100
AcDbEntity
  8
0
100
AcDbLine
 10
1675.0
 20
-100.0
 30
0.0
 11
1675.0
 21
-100.0
 31
0.0
  0
MTEXT
  5
2B2
330
2A6
100
AcDbEntity
  8
dims
100
AcDbMText
 10
1675.0
 20
-200.0
 30
0.0
 40
1.0
 71
5
  1
0
  0
POINT
  5
2B3
330
2A6
100
AcDbEntity
  8
Defpoints
100
AcDbPoint
 10
1675.0
 20
-100.0
 30
0.0
  0
POINT
  5
2B4
330
2A6
100
AcDbEntity
  8
Defpoints
100
AcDbPoint
 10
1675.0
 20
-100.0
 30
0.0
  0
POINT
  5
2B5
330
2A6
100
AcDbEntity
  8
Defpoints
100
AcDbPoint
 10
1675.0
 20
-200.0
 30
0.0
  0
ENDBLK
  5
2A8
330
2A6
100
AcDbEntity
  8
0
100
AcDbBlockEnd
  0
BLOCK
  5
2B8
330
2B7
100
AcDbEntity
  8
0
100
AcDbBlockBegin
  2
*D30
 70
1
 10
0.0
 20
0.0
 30
0.0
  3
*D30
  1

  0
LINE
  5
2BA
330
2B7
100
AcDbEntity
  8
0
100
AcDbLine
 10
50.0
 20
325.0
 30
0.0
 11
50.0
 21
325.0
 31
0.0
  0
LINE
  5
2BB
330
2B7
100
AcDbEntity
  8
0
100
AcDbLine
 10
50.0
 20
375.0
 30
0.0
 11
50.0
 21
325.0
 31
0.0
  0
INSERT
  5
2BC
330
2B7
100
AcDbEntity
  8
dims
100
AcDbBlockReference
  2
_CLOSEDFILLED
 10
50.0
 20
325.0
 30
0.0
 41
0.25
 42
0.25
  0
INSERT
  5
2BE
330
2B7
100
AcDbEntity
  8
dims
100
AcDbBlockReference
  2
_CLOSEDFILLED
 10
50.0
 20
325.0
 30
0.0
 41
0.25
 42
0.25
 50
180.0
  0
LINE
  5
2C0
330
2B7
100
AcDbEntity
  8
0
100
AcDbLine
 10
49.75
 20
325.0
 30
0.0
 11
49.5
 21
325.0
 31
0.0
  0
LINE
  5
2C1
330
2B7
100
AcDbEntity
  8
0
100
AcDbLine
 10
50.25
 20
325.0
 30
0.0
 11
50.5
 21
325.0
 31
0.0
  0
LINE
  5
2C2
330
2B7
100
AcDbEntity
  8
0
100
AcDbLine
 10
50.0
 20
325.0
 30
0.0
 11
50.0
 21
325.0
 31
0.0
  0
MTEXT
  5
2C3
330
2B7
100
AcDbEntity
  8
dims
100
AcDbMText
 10
50.0
 20
375.0
 30
0.0
 40
1.0
 71
5
  1
0
  0
POINT
  5
2C4
330
2B7
100
AcDbEntity
  8
Defpoints
100
AcDbPoint
 10
50.0
 20
325.0
 30
0.0
  0
POINT
  5
2C5
330
2B7
100
AcDbEntity
  8
Defpoints
100
AcDbPoint
 10
50.0
 20
325.0
 30
0.0
  0
POINT
  5
2C6
330
2B7
100
AcDbEntity
  8
Defpoints
100
AcDbPoint
 10
50.0
 20
375.0
 30
0.0
  0
ENDBLK
  5
2B9
330
2B7
100
AcDbEntity
  8
0
100
AcDbBlockEnd
  0
BLOCK
  5
2C9
330
2C8
100
AcDbEntity
  8
0
100
AcDbBlockBegin
  2
*D31
 70
1
 10
0.0
 20
0.0
 30
0.0
  3
*D31
  1

  0
LINE
  5
2CB
330
2C8
100
AcDbEntity
  8
0
100
AcDbLine
 10
1288.0
 20
50.0
 30
0.0
 11
1288.0
 21
50.0
 31
0.0
  0
LINE
  5
2CC
330
2C8
100
AcDbEntity
  8
0
100
AcDbLine
 10
1275.0
 20
50.0
 30
0.0
 11
1275.0
 21
50.0
 31
0.0
  0
INSERT
  5
2CD
330
2C8
100
AcDbEntity
  8
dims
100
AcDbBlockReference
  2
_CLOSEDFILLED
 10
1288.0
 20
50.0
 30
0.0
 41
0.25
 42
0.25
 50
180.0
  0
INSERT
  5
2CF
330
2C8
100
AcDbEntity
  8
dims
100
AcDbBlockReference
  2
_CLOSEDFILLED
 10
1275.0
 20
50.0
 30
0.0
 41
0.25
 42
0.25
  0
LINE
  5
2D1
330
2C8
100
AcDbEntity
  8
0
100
AcDbLine
 10
1276.0
 20
50.0
 30
0.0
 11
1288.25
 21
50.0
 31
0.0
  0
MTEXT
  5
2D2
330
2C8
100
AcDbEntity
  8
dims
100
AcDbMText
 10
1275.0
 20
50.0
 30
0.0
 40
1.0
 71
5
  1
13
  0
POINT
  5
2D3
330
2C8
100
AcDbEntity
  8
Defpoints
100
AcDbPoint
 10
1288.0
 20
50.0
 30
0.0
  0
POINT
  5
2D4
330
2C8
100
AcDbEntity
  8
Defpoints
100
AcDbPoint
 10
1288.0
 20
50.0
 30
0.0
  0
POINT
  5
2D5
330
2C8
100
AcDbEntity
  8
Defpoints
100
AcDbPoint
 10
1275.0
 20
50.0
 30
0.0
  0
ENDBLK
  5
2CA
330
2C8
100
AcDbEntity
  8
0
100
AcDbBlockEnd
  0
BLOCK
  5
2D8
330
2D7
100
AcDbEntity
  8
0
100
AcDbBlockBegin
  2
*D32
 70
1
 10
0.0
 20
0.0
 30
0.0
  3
*D32
  1

  0
LINE
  5
2DA
330
2D7
100
AcDbEntity
  8
0
100
AcDbLine
 10
50.0
 20
-400.0
 30
0.0
 11
50.0
 21
-400.0
 31
0.0
  0
LINE
  5
2DB
330
2D7
100
AcDbEntity
  8
0
100
AcDbLine
 10
50.0
 20
-75.0
 30
0.0
 11
50.0
 21
-400.0
 31
0.0
  0
INSERT
  5
2DC
330
2D7
100
AcDbEntity
  8
dims
100
AcDbBlockReference
  2
_CLOSEDFILLED
 10
50.0
 20
-400.0
 30
0.0
 41
0.25
 42
0.25
  0
INSERT
  5
2DE
330
2D7
100
AcDbEntity
  8
dims
100
AcDbBlockReference
  2
_CLOSEDFILLED
 10
50.0
 20
-400.0
 30
0.0
 41
0.25
 42
0.25
 50
180.0
  0
LINE
  5
2E0
330
2D7
100
AcDbEntity
  8
0
100
AcDbLine
 10
49.75
 20
-400.0
 30
0.0
 11
49.5
 21
-400.0
 31
0.0
  0
LINE
  5
2E1
330
2D7
100
AcDbEntity
  8
0
100
AcDbLine
 10
50.25
 20
-400.0
 30
0.0
 11
50.5
 21
-400.0
 31
0.0
  0
LINE
  5
2E2
330
2D7
100
AcDbEntity
  8
0
100
AcDbLine
 10
50.0
 20
-400.0
 30
0.0
 11
50.0
 21
-400.0
 31
0.0
  0
MTEXT
  5
2E3
330
2D7
100
AcDbEntity
  8
dims
100
AcDbMText
 10
50.0
 20
-75.0
 30
0.0
 40
1.0
 71
5
  1
0
  0
POINT
  5
2E4
330
2D7
100
AcDbEntity
  8
Defpoints
100
AcDbPoint
 10
50.0
 20
-400.0
 30
0.0
  0
POINT
  5
2E5
330
2D7
100
AcDbEntity
  8
Defpoints
100
AcDbPoint
 10
50.0
 20
-400.0
 30
0.0
  0
POINT
  5
2E6
330
2D7
100
AcDbEntity
  8
Defpoints
100
AcDbPoint
 10
50.0
 20
-75.0
 30
0.0
  0
ENDBLK
  5
2D9
330
2D7
100
AcDbEntity
  8
0
100
AcDbBlockEnd
  0
BLOCK
  5
2E9
330
2E8
100
AcDbEntity
  8
0
100
AcDbBlockBegin
  2
*D33
 70
1
 10
0.0
 20
0.0
 30
0.0
  3
*D33
  1

  0
LINE
  5
2EB
330
2E8
100
AcDbEntity
  8
0
100
AcDbLine
 10
1300.0
 20
50.0
 30
0.0
 11
1300.0
 21
50.0
 31
0.0
  0
LINE
  5
2EC
330
2E8
100
AcDbEntity
  8
0
100
AcDbLine
 10
1300.0
 20
125.0
 30
0.0
 11
1300.0
 21
50.0
 31
0.0
  0
INSERT
  5
2ED
330
2E8
100
AcDbEntity
  8
dims
100
AcDbBlockReference
  2
_CLOSEDFILLED
 10
1300.0
 20
50.0
 30
0.0
 41
0.25
 42
0.25
  0
INSERT
  5
2EF
330
2E8
100
AcDbEntity
  8
dims
100
AcDbBlockReference
  2
_CLOSEDFILLED
 10
1300.0
 20
50.0
 30
0.0
 41
0.25
 42
0.25
 50
180.0
  0
LINE
  5
2F1
330
2E8
100
AcDbEntity
  8
0
100
AcDbLine
 10
1299.75
 20
50.0
 30
0.0
 11
1299.5
 21
50.0
 31
0.0
  0
LINE
  5
2F2
330
2E8
100
AcDbEntity
  8
0
100
AcDbLine
 10
1300.25
 20
50.0
 30
0.0
 11
1300.5
 21
50.0
 31
0.0
  0
LINE
  5
2F3
330
2E8
100
AcDbEntity
  8
0
100
AcDbLine
 10
1300.0
 20
50.0
 30
0.0
 11
1300.0
 21
50.0
 31
0.0
  0
MTEXT
  5
2F4
330
2E8
100
AcDbEntity
  8
dims
100
AcDbMText
 10
1300.0
 20
125.0
 30
0.0
 40
1.0
 71
5
  1
0
  0
POINT
  5
2F5
330
2E8
100
AcDbEntity
  8
Defpoints
100
AcDbPoint
 10
1300.0
 20
50.0
 30
0.0
  0
POINT
  5
2F6
330
2E8
100
AcDbEntity
  8
Defpoints
100
AcDbPoint
 10
1300.0
 20
50.0
 30
0.0
  0
POINT
  5
2F7
330
2E8
100
AcDbEntity
  8
Defpoints
100
AcDbPoint
 10
1300.0
 20
125.0
 30
0.0
  0
ENDBLK
  5
2EA
330
2E8
100
AcDbEntity
  8
0
100
AcDbBlockEnd
  0
BLOCK
  5
2FA
330
2F9
100
AcDbEntity
  8
0
100
AcDbBlockBegin
  2
*D34
 70
1
 10
0.0
 20
0.0
 30
0.0
  3
*D34
  1

  0
LINE
  5
2FC
330
2F9
100
AcDbEntity
  8
0
100
AcDbLine
 10
1288.0
 20
50.0
 30
0.0
 11
1288.0
 21
50.0
 31
0.0
  0
LINE
  5
2FD
330
2F9
100
AcDbEntity
  8
0
100
AcDbLine
 10
1300.0
 20
50.0
 30
0.0
 11
1300.0
 21
50.0
 31
0.0
  0
INSERT
  5
2FE
330
2F9
100
AcDbEntity
  8
dims
100
AcDbBlockReference
  2
_CLOSEDFILLED
 10
1288.0
 20
50.0
 30
0.0
 41
0.25
 42
0.25
 50
180.0
  0
INSERT
  5
300
330
2F9
100
AcDbEntity
  8
dims
100
AcDbBlockReference
  2
_CLOSEDFILLED
 10
1300.0
 20
50.0
 30
0.0
 41
0.25
 42
0.25
  0
LINE
  5
302
330
2F9
100
AcDbEntity
  8
0
100
AcDbLine
 10
1299.0
 20
50.0
 30
0.0
 11
1288.25
 21
50.0
 31
0.0
  0
MTEXT
  5
303
330
2F9
100
AcDbEntity
  8
dims
100
AcDbMText
 10
1300.0
 20
50.0
 30
0.0
 40
1.0
 71
5
  1
12
  0
POINT
  5
304
330
2F9
100
AcDbEntity
  8
Defpoints
100
AcDbPoint
 10
1288.0
 20
50.0
 30
0.0
  0
POINT
  5
305
330
2F9
100
AcDbEntity
  8
Defpoints
100
AcDbPoint
 10
1288.0
 20
50.0
 30
0.0
  0
POINT
  5
306
330
2F9
100
AcDbEntity
  8
Defpoints
100
AcDbPoint
 10
1300.0
 20
50.0
 30
0.0
  0
ENDBLK
  5
2FB
330
2F9
100
AcDbEntity
  8
0
100
AcDbBlockEnd
  0
BLOCK
  5
309
330
308
100
AcDbEntity
  8
0
100
AcDbBlockBegin
  2
*D35
 70
1
 10
0.0
 20
0.0
 30
0.0
  3
*D35
  1

  0
LINE
  5
30B
330
308
100
AcDbEntity
  8
0
100
AcDbLine
 10
950.0
 20
50.0
 30
0.0
 11
950.0
 21
50.0
 31
0.0
  0
LINE
  5
30C
330
308
100
AcDbEntity
  8
0
100
AcDbLine
 10
950.0
 20
325.0
 30
0.0
 11
950.0
 21
50.0
 31
0.0
  0
INSERT
  5
30D
330
308
100
AcDbEntity
  8
dims
100
AcDbBlockReference
  2
_CLOSEDFILLED
 10
950.0
 20
50.0
 30
0.0
 41
0.25
 42
0.25
  0
INSERT
  5
30F
330
308
100
AcDbEntity
  8
dims
100
AcDbBlockReference
  2
_CLOSEDFILLED
 10
950.0
 20
50.0
 30
0.0
 41
0.25
 42
0.25
 50
180.0
  0
LINE
  5
311
330
308
100
AcDbEntity
  8
0
100
AcDbLine
 10
949.75
 20
50.0
 30
0.0
 11
949.5
 21
50.0
 31
0.0
  0
LINE
  5
312
330
308
100
AcDbEntity
  8
0
100
AcDbLine
 10
950.25
 20
50.0
 30
0.0
 11
950.5
 21
50.0
 31
0.0
  0
LINE
  5
313
330
308
100
AcDbEntity
  8
0
100
AcDbLine
 10
950.0
 20
50.0
 30
0.0
 11
950.0
 21
50.0
 31
0.0
  0
MTEXT
  5
314
330
308
100
AcDbEntity
  8
dims
100
AcDbMText
 10
950.0
 20
325.0
 30
0.0
 40
1.0
 71
5
  1
0
  0
POINT
  5
315
330
308
100
AcDbEntity
  8
Defpoints
100
AcDbPoint
 10
950.0
 20
50.0
 30
0.0
  0
POINT
  5
316
330
308
100
AcDbEntity
  8
Defpoints
100
AcDbPoint
 10
950.0
 20
50.0
 30
0.0
  0
POINT
  5
317
330
308
100
AcDbEntity
  8
Defpoints
100
AcDbPoint
 10
950.0
 20
325.0
 30
0.0
  0
ENDBLK
  5
30A
330
308
100
AcDbEntity
  8
0
100
AcDbBlockEnd
  0
BLOCK
  5
31A
330
319
100
AcDbEntity
  8
0
100
AcDbBlockBegin
  2
*D36
 70
1
 10
0.0
 20
0.0
 30
0.0
  3
*D36
  1

  0
LINE
  5
31C
330
319
100
AcDbEntity
  8
0
100
AcDbLine
 10
1675.0
 20
300.0
 30
0.0
 11
1675.0
 21
300.0
 31
0.0
  0
LINE
  5
31D
330
319
100
AcDbEntity
  8
0
100
AcDbLine
 10
1675.0
 20
100.0
 30
0.0
 11
1675.0
 21
300.0
 31
0.0
  0
INSERT
  5
31E
330
319
100
AcDbEntity
  8
dims
100
AcDbBlockReference
  2
_CLOSEDFILLED
 10
1675.0
 20
300.0
 30
0.0
 41
0.25
 42
0.25
  0
INSERT
  5
320
330
319
100
AcDbEntity
  8
dims
100
AcDbBlockReference
  2
_CLOSEDFILLED
 10
1675.0
 20
300.0
 30
0.0
 41
0.25
 42
0.25
 50
180.0
  0
LINE
  5
322
330
319
100
AcDbEntity
  8
0
100
AcDbLine
 10
1674.75
 20
300.0
 30
0.0
 11
1674.5
 21
300.0
 31
0.0
  0
LINE
  5
323
330
319
100
AcDbEntity
  8
0
100
AcDbLine
 10
1675.25
 20
300.0
 30
0.0
 11
1675.5
 21
300.0
 31
0.0
  0
LINE
  5
324
330
319
100
AcDbEntity
  8
0
100
AcDbLine
 10
1675.0
 20
300.0
 30
0.0
 11
1675.0
 21
300.0
 31
0.0
  0
MTEXT
  5
325
330
319
100
AcDbEntity
  8
dims
100
AcDbMText
 10
1675.0
 20
100.0
 30
0.0
 40
1.0
 71
5
  1
0
  0
POINT
  5
326
330
319
100
AcDbEntity
  8
Defpoints
100
AcDbPoint
 10
1675.0
 20
300.0
 30
0.0
  0
POINT
  5
327
330
319
100
AcDbEntity
  8
Defpoints
100
AcDbPoint
 10
1675.0
 20
300.0
 30
0.0
  0
POINT
  5
328
330
319
100
AcDbEntity
  8
Defpoints
100
AcDbPoint
 10
1675.0
 20
100.0
 30
0.0
  0
ENDBLK
  5
31B
330
319
100
AcDbEntity
  8
0
100
AcDbBlockEnd
  0
BLOCK
  5
32B
330
32A
100
AcDbEntity
  8
0
100
AcDbBlockBegin
  2
*D37
 70
1
 10
0.0
 20
0.0
 30
0.0
  3
*D37
  1

  0
LINE
  5
32D
330
32A
100
AcDbEntity
  8
0
100
AcDbLine
 10
1675.0
 20
-50.0
 30
0.0
 11
1675.0
 21
-50.0
 31
0.0
  0
LINE
  5
32E
330
32A
100
AcDbEntity
  8
0
100
AcDbLine
 10
1675.0
 20
-100.0
 30
0.0
 11
1675.0
 21
-50.0
 31
0.0
  0
INSERT
  5
32F
330
32A
100
AcDbEntity
  8
dims
100
AcDbBlockReference
  2
_CLOSEDFILLED
 10
1675.0
 20
-50.0
 30
0.0
 41
0.25
 42
0.25
  0
INSERT
  5
331
330
32A
100
AcDbEntity
  8
dims
100
AcDbBlockReference
  2
_CLOSEDFILLED
 10
1675.0
 20
-50.0
 30
0.0
 41
0.25
 42
0.25
 50
180.0
  0
LINE
  5
333
330
32A
100
AcDbEntity
  8
0
100
AcDbLine
 10
1674.75
 20
-50.0
 30
0.0
 11
1674.5
 21
-50.0
 31
0.0
  0
LINE
  5
334
330
32A
100
AcDbEntity
  8
0
100
AcDbLine
 10
1675.25
 20
-50.0
 30
0.0
 11
1675.5
 21
-50.0
 31
0.0
  0
LINE
  5
335
330
32A
100
AcDbEntity
  8
0
100
AcDbLine
 10
1675.0
 20
-50.0
 30
0.0
 11
1675.0
 21
-50.0
 31
0.0
  0
MTEXT
  5
336
330
32A
100
AcDbEntity
  8
dims
100
AcDbMText
 10
1675.0
 20
-100.0
 30
0.0
 40
1.0
 71
5
  1
0
  0
POINT
  5
337
330
32A
100
AcDbEntity
  8
Defpoints
100
AcDbPoint
 10
1675.0
 20
-50.0
 30
0.0
  0
POINT
  5
338
330
32A
100
AcDbEntity
  8
Defpoints
100
AcDbPoint
 10
1675.0
 20
-50.0
 30
0.0
  0
POINT
  5
339
330
32A
100
AcDbEntity
  8
Defpoints
100
AcDbPoint
 10
1675.0
 20
-100.0
 30
0.0
  0
ENDBLK
  5
32C
330
32A
100
AcDbEntity
  8
0
100
AcDbBlockEnd
  0
BLOCK
  5
33C
330
33B
100
AcDbEntity
  8
0
100
AcDbBlockBegin
  2
*D38
 70
1
 10
0.0
 20
0.0
 30
0.0
  3
*D38
  1

  0
LINE
  5
33E
330
33B
100
AcDbEntity
  8
0
100
AcDbLine
 10
950.0
 20
-200.0
 30
0.0
 11
950.0
 21
-200.0
 31
0.0
  0
LINE
  5
33F
330
33B
100
AcDbEntity
  8
0
100
AcDbLine
 10
950.0
 20
-175.0
 30
0.0
 11
950.0
 21
-200.0
 31
0.0
  0
INSERT
  5
340
330
33B
100
AcDbEntity
  8
dims
100
AcDbBlockReference
  2
_CLOSEDFILLED
 10
950.0
 20
-200.0
 30
0.0
 41
0.25
 42
0.25
  0
INSERT
  5
342
330
33B
100
AcDbEntity
  8
dims
100
AcDbBlockReference
  2
_CLOSEDFILLED
 10
950.0
 20
-200.0
 30
0.0
 41
0.25
 42
0.25
 50
180.0
  0
LINE
  5
344
330
33B
100
AcDbEntity
  8
0
100
AcDbLine
 10
949.75
 20
-200.0
 30
0.0
 11
949.5
 21
-200.0
 31
0.0
  0
LINE
  5
345
330
33B
100
AcDbEntity
  8
0
100
AcDbLine
 10
950.25
 20
-200.0
 30
0.0
 11
950.5
 21
-200.0
 31
0.0
  0
LINE
  5
346
330
33B
100
AcDbEntity
  8
0
100
AcDbLine
 10
950.0
 20
-200.0
 30
0.0
 11
950.0
 21
-200.0
 31
0.0
  0
MTEXT
  5
347
330
33B
100
AcDbEntity
  8
dims
100
AcDbMText
 10
950.0
 20
-175.0
 30
0.0
 40
1.0
 71
5
  1
0
  0
POINT
  5
348
330
33B
100
AcDbEntity
  8
Defpoints
100
AcDbPoint
 10
950.0
 20
-200.0
 30
0.0
  0
POINT
  5
349
330
33B
100
AcDbEntity
  8
Defpoints
100
AcDbPoint
 10
950.0
 20
-200.0
 30
0.0
  0
POINT
  5
34A
330
33B
100
AcDbEntity
  8
Defpoints
100
AcDbPoint
 10
950.0
 20
-175.0
 30
0.0
  0
ENDBLK
  5
33D
330
33B
100
AcDbEntity
  8
0
100
AcDbBlockEnd
  0
BLOCK
  5
34D
330
34C
100
AcDbEntity
  8
0
100
AcDbBlockBegin
  2
*D39
 70
1
 10
0.0
 20
0.0
 30
0.0
  3
*D39
  1

  0
LINE
  5
34F
330
34C
100
AcDbEntity
  8
0
100
AcDbLine
 10
250.0
 20
-450.0
 30
0.0
 11
250.0
 21
-450.0
 31
0.0
  0
LINE
  5
350
330
34C
100
AcDbEntity
  8
0
100
AcDbLine
 10
125.0
 20
-450.0
 30
0.0
 11
125.0
 21
-450.0
 31
0.0
  0
INSERT
  5
351
330
34C
100
AcDbEntity
  8
dims
100
AcDbBlockReference
  2
_CLOSEDFILLED
 10
250.0
 20
-450.0
 30
0.0
 41
0.25
 42
0.25
 50
180.0
  0
INSERT
  5
353
330
34C
100
AcDbEntity
  8
dims
100
AcDbBlockReference
  2
_CLOSEDFILLED
 10
125.0
 20
-450.0
 30
0.0
 41
0.25
 42
0.25
  0
LINE
  5
355
330
34C
100
AcDbEntity
  8
0
100
AcDbLine
 10
126.5
 20
-450.0
 30
0.0
 11
250.25
 21
-450.0
 31
0.0
  0
MTEXT
  5
356
330
34C
100
AcDbEntity
  8
dims
100
AcDbMText
 10
125.0
 20
-450.0
 30
0.0
 40
1.0
 71
5
  1
125
  0
POINT
  5
357
330
34C
100
AcDbEntity
  8
Defpoints
100
AcDbPoint
 10
250.0
 20
-450.0
 30
0.0
  0
POINT
  5
358
330
34C
100
AcDbEntity
  8
Defpoints
100
AcDbPoint
 10
250.0
 20
-450.0
 30
0.0
  0
POINT
  5
359
330
34C
100
AcDbEntity
  8
Defpoints
100
AcDbPoint
 10
125.0
 20
-450.0
 30
0.0
  0
ENDBLK
  5
34E
330
34C
100
AcDbEntity
  8
0
100
AcDbBlockEnd
  0
BLOCK
  5
35C
330
35B
100
AcDbEntity
  8
0
100
AcDbBlockBegin
  2
*D40
 70
1
 10
0.0
 20
0.0
 30
0.0
  3
*D40
  1

  0
LINE
  5
35E
330
35B
100
AcDbEntity
  8
0
100
AcDbLine
 10
1675.0
 20
50.0
 30
0.0
 11
1675.0
 21
50.0
 31
0.0
  0
LINE
  5
35F
330
35B
100
AcDbEntity
  8
0
100
AcDbLine
 10
1675.0
 20
-50.0
 30
0.0
 11
1675.0
 21
50.0
 31
0.0
  0
INSERT
  5
360
330
35B
100
AcDbEntity
  8
dims
100
AcDbBlockReference
  2
_CLOSEDFILLED
 10
1675.0
 20
50.0
 30
0.0
 41
0.25
 42
0.25
  0
INSERT
  5
362
330
35B
100
AcDbEntity
  8
dims
100
AcDbBlockReference
  2
_CLOSEDFILLED
 10
1675.0
 20
50.0
 30
0.0
 41
0.25
 42
0.25
 50
180.0
  0
LINE
  5
364
330
35B
100
AcDbEntity
  8
0
100
AcDbLine
 10
1674.75
 20
50.0
 30
0.0
 11
1674.5
 21
50.0
 31
0.0
  0
LINE
  5
365
330
35B
100
AcDbEntity
  8
0
100
AcDbLine
 10
1675.25
 20
50.0
 30
0.0
 11
1675.5
 21
50.0
 31
0.0
  0
LINE
  5
366
330
35B
100
AcDbEntity
  8
0
100
AcDbLine
 10
1675.0
 20
50.0
 30
0.0
 11
1675.0
 21
50.0
 31
0.0
  0
MTEXT
  5
367
330
35B
100
AcDbEntity
  8
dims
100
AcDbMText
 10
1675.0
 20
-50.0
 30
0.0
 40
1.0
 71
5
  1
0
  0
POINT
  5
368
330
35B
100
AcDbEntity
  8
Defpoints
100
AcDbPoint
 10
1675.0
 20
50.0
 30
0.0
  0
POINT
  5
369
330
35B
100
AcDbEntity
  8
Defpoints
100
AcDbPoint
 10
1675.0
 20
50.0
 30
0.0
  0
POINT
  5
36A
330
35B
100
AcDbEntity
  8
Defpoints
100
AcDbPoint
 10
1675.0
 20
-50.0
 30
0.0
  0
ENDBLK
  5
35D
330
35B
100
AcDbEntity
  8
0
100
AcDbBlockEnd
  0
BLOCK
  5
36D
330
36C
100
AcDbEntity
  8
0
100
AcDbBlockBegin
  2
*D41
 70
1
 10
0.0
 20
0.0
 30
0.0
  3
*D41
  1

  0
LINE
  5
36F
330
36C
100
AcDbEntity
  8
0
100
AcDbLine
 10
950.0
 20
-175.0
 30
0.0
 11
950.0
 21
-175.0
 31
0.0
  0
LINE
  5
370
330
36C
100
AcDbEntity
  8
0
100
AcDbLine
 10
950.0
 20
-100.0
 30
0.0
 11
950.0
 21
-175.0
 31
0.0
  0
INSERT
  5
371
330
36C
100
AcDbEntity
  8
dims
100
AcDbBlockReference
  2
_CLOSEDFILLED
 10
950.0
 20
-175.0
 30
0.0
 41
0.25
 42
0.25
  0
INSERT
  5
373
330
36C
100
AcDbEntity
  8
dims
100
AcDbBlockReference
  2
_CLOSEDFILLED
 10
950.0
 20
-175.0
 30
0.0
 41
0.25
 42
0.25
 50
180.0
  0
LINE
  5
375
330
36C
100
AcDbEntity
  8
0
100
AcDbLine
 10
949.75
 20
-175.0
 30
0.0
 11
949.5
 21
-175.0
 31
0.0
  0
LINE
  5
376
330
36C
100
AcDbEntity
  8
0
100
AcDbLine
 10
950.25
 20
-175.0
 30
0.0
 11
950.5
 21
-175.0
 31
0.0
  0
LINE
  5
377
330
36C
100
AcDbEntity
  8
0
100
AcDbLine
 10
950.0
 20
-175.0
 30
0.0
 11
950.0
 21
-175.0
 31
0.0
  0
MTEXT
  5
378
330
36C
100
AcDbEntity
  8
dims
100
AcDbMText
 10
950.0
 20
-100.0
 30
0.0
 40
1.0
 71
5
  1
0
  0
POINT
  5
379
330
36C
100
AcDbEntity
  8
Defpoints
100
AcDbPoint
 10
950.0
 20
-175.0
 30
0.0
  0
POINT
  5
37A
330
36C
100
AcDbEntity
  8
Defpoints
100
AcDbPoint
 10
950.0
 20
-175.0
 30
0.0
  0
POINT
  5
37B
330
36C
100
AcDbEntity
  8
Defpoints
100
AcDbPoint
 10
950.0
 20
-100.0
 30
0.0
  0
ENDBLK
  5
36E
330
36C
100
AcDbEntity
  8
0
100
AcDbBlockEnd
  0
BLOCK
  5
37E
330
37D
100
AcDbEntity
  8
0
100
AcDbBlockBegin
  2
*D42
 70
1
 10
0.0
 20
0.0
 30
0.0
  3
*D42
  1

  0
LINE
  5
380
330
37D
100
AcDbEntity
  8
0
100
AcDbLine
 10
1675.0
 20
100.0
 30
0.0
 11
1675.0
 21
100.0
 31
0.0
  0
LINE
  5
381
330
37D
100
AcDbEntity
  8
0
100
AcDbLine
 10
1675.0
 20
50.0
 30
0.0
 11
1675.0
 21
100.0
 31
0.0
  0
INSERT
  5
382
330
37D
100
AcDbEntity
  8
dims
100
AcDbBlockReference
  2
_CLOSEDFILLED
 10
1675.0
 20
100.0
 30
0.0
 41
0.25
 42
0.25
  0
INSERT
  5
384
330
37D
100
AcDbEntity
  8
dims
100
AcDbBlockReference
  2
_CLOSEDFILLED
 10
1675.0
 20
100.0
 30
0.0
 41
0.25
 42
0.25
 50
180.0
  0
LINE
  5
386
330
37D
100
AcDbEntity
  8
0
100
AcDbLine
 10
1674.75
 20
100.0
 30
0.0
 11
1674.5
 21
100.0
 31
0.0
  0
LINE
  5
387
330
37D
100
AcDbEntity
  8
0
100
AcDbLine
 10
1675.25
 20
100.0
 30
0.0
 11
1675.5
 21
100.0
 31
0.0
  0
LINE
  5
388
330
37D
100
AcDbEntity
  8
0
100
AcDbLine
 10
1675.0
 20
100.0
 30
0.0
 11
1675.0
 21
100.0
 31
0.0
  0
MTEXT
  5
389
330
37D
100
AcDbEntity
  8
dims
100
AcDbMText
 10
1675.0
 20
50.0
 30
0.0
 40
1.0
 71
5
  1
0
  0
POINT
  5
38A
330
37D
100
AcDbEntity
  8
Defpoints
100
AcDbPoint
 10
1675.0
 20
100.0
 30
0.0
  0
POINT
  5
38B
330
37D
100
AcDbEntity
  8
Defpoints
100
AcDbPoint
 10
1675.0
 20
100.0
 30
0.0
  0
POINT
  5
38C
330
37D
100
AcDbEntity
  8
Defpoints
100
AcDbPoint
 10
1675.0
 20
50.0
 30
0.0
  0
ENDBLK
  5
37F
330
37D
100
AcDbEntity
  8
0
100
AcDbBlockEnd
  0
BLOCK
  5
38F
330
38E
100
AcDbEntity
  8
0
100
AcDbBlockBegin
  2
*D43
 70
1
 10
0.0
 20
0.0
 30
0.0
  3
*D43
  1

  0
LINE
  5
391
330
38E
100
AcDbEntity
  8
0
100
AcDbLine
 10
700.0
 20
-75.0
 30
0.0
 11
700.0
 21
-75.0
 31
0.0
  0
LINE
  5
392
330
38E
100
AcDbEntity
  8
0
100
AcDbLine
 10
700.0
 20
75.0
 30
0.0
 11
700.0
 21
-75.0
 31
0.0
  0
INSERT
  5
393
330
38E
100
AcDbEntity
  8
dims
100
AcDbBlockReference
  2
_CLOSEDFILLED
 10
700.0
 20
-75.0
 30
0.0
 41
0.25
 42
0.25
  0
INSERT
  5
395
330
38E
100
AcDbEntity
  8
dims
100
AcDbBlockReference
  2
_CLOSEDFILLED
 10
700.0
 20
-75.0
 30
0.0
 41
0.25
 42
0.25
 50
180.0
  0
LINE
  5
397
330
38E
100
AcDbEntity
  8
0
100
AcDbLine
 10
699.75
 20
-75.0
 30
0.0
 11
699.5
 21
-75.0
 31
0.0
  0
LINE
  5
398
330
38E
100
AcDbEntity
  8
0
100
AcDbLine
 10
700.25
 20
-75.0
 30
0.0
 11
700.5
 21
-75.0
 31
0.0
  0
LINE
  5
399
330
38E
100
AcDbEntity
  8
0
100
AcDbLine
 10
700.0
 20
-75.0
 30
0.0
 11
700.0
 21
-75.0
 31
0.0
  0
MTEXT
  5
39A
330
38E
100
AcDbEntity
  8
dims
100
AcDbMText
 10
700.0
 20
75.0
 30
0.0
 40
1.0
 71
5
  1
0
  0
POINT
  5
39B
330
38E
100
AcDbEntity
  8
Defpoints
100
AcDbPoint
 10
700.0
 20
-75.0
 30
0.0
  0
POINT
  5
39C
330
38E
100
AcDbEntity
  8
Defpoints
100
AcDbPoint
 10
700.0
 20
-75.0
 30
0.0
  0
POINT
  5
39D
330
38E
100
AcDbEntity
  8
Defpoints
100
AcDbPoint
 10
700.0
 20
75.0
 30
0.0
  0
ENDBLK
  5
390
330
38E
100
AcDbEntity
  8
0
100
AcDbBlockEnd
  0
BLOCK
  5
3A0
330
39F
100
AcDbEntity
  8
0
100
AcDbBlockBegin
  2
*D44
 70
1
 10
0.0
 20
0.0
 30
0.0
  3
*D44
  1

  0
LINE
  5
3A2
330
39F
100
AcDbEntity
  8
0
100
AcDbLine
 10
1675.0
 20
-200.0
 30
0.0
 11
1675.0
 21
-200.0
 31
0.0
  0
LINE
  5
3A3
330
39F
100
AcDbEntity
  8
0
100
AcDbLine
 10
1675.0
 20
-350.0
 30
0.0
 11
1675.0
 21
-200.0
 31
0.0
  0
INSERT
  5
3A4
330
39F
100
AcDbEntity
  8
dims
100
AcDbBlockReference
  2
_CLOSEDFILLED
 10
1675.0
 20
-200.0
 30
0.0
 41
0.25
 42
0.25
  0
INSERT
  5
3A6
330
39F
100
AcDbEntity
  8
dims
100
AcDbBlockReference
  2
_CLOSEDFILLED
 10
1675.0
 20
-200.0
 30
0.0
 41
0.25
 42
0.25
 50
180.0
  0
LINE
  5
3A8
330
39F
100
AcDbEntity
  8
0
100
AcDbLine
 10
1674.75
 20
-200.0
 30
0.0
 11
1674.5
 21
-200.0
 31
0.0
  0
LINE
  5
3A9
330
39F
100
AcDbEntity
  8
0
100
AcDbLine
 10
1675.25
 20
-200.0
 30
0.0
 11
1675.5
 21
-200.0
 31
0.0
  0
LINE
  5
3AA
330
39F
100
AcDbEntity
  8
0
100
AcDbLine
 10
1675.0
 20
-200.0
 30
0.0
 11
1675.0
 21
-200.0
 31
0.0
  0
MTEXT
  5
3AB
330
39F
100
AcDbEntity
  8
dims
100
AcDbMText
 10
1675.0
 20
-350.0
 30
0.0
 40
1.0
 71
5
  1
0
  0
POINT
  5
3AC
330
39F
100
AcDbEntity
  8
Defpoints
100
AcDbPoint
 10
1675.0
 20
-200.0
 30
0.0
  0
POINT
  5
3AD
330
39F
100
AcDbEntity
  8
Defpoints
100
AcDbPoint
 10
1675.0
 20
-200.0
 30
0.0
  0
POINT
  5
3AE
330
39F
100
AcDbEntity
  8
Defpoints
100
AcDbPoint
 10
1675.0
 20
-350.0
 30
0.0
  0
ENDBLK
  5
3A1
330
39F
100
AcDbEntity
  8
0
100
AcDbBlockEnd
  0
BLOCK
  5
3B1
330
3B0
100
AcDbEntity
  8
0
100
AcDbBlockBegin
  2
*D45
 70
1
 10
0.0
 20
0.0
 30
0.0
  3
*D45
  1

  0
LINE
  5
3B3
330
3B0
100
AcDbEntity
  8
0
100
AcDbLine
 10
700.0
 20
75.0
 30
0.0
 11
700.0
 21
75.0
 31
0.0
  0
LINE
  5
3B4
330
3B0
100
AcDbEntity
  8
0
100
AcDbLine
 10
700.0
 20
325.0
 30
0.0
 11
700.0
 21
75.0
 31
0.0
  0
INSERT
  5
3B5
330
3B0
100
AcDbEntity
  8
dims
100
AcDbBlockReference
  2
_CLOSEDFILLED
 10
700.0
 20
75.0
 30
0.0
 41
0.25
 42
0.25
  0
INSERT
  5
3B7
330
3B0
100
AcDbEntity
  8
dims
100
AcDbBlockReference
  2
_CLOSEDFILLED
 10
700.0
 20
75.0
 30
0.0
 41
0.25
 42
0.25
 50
180.0
  0
LINE
  5
3B9
330
3B0
100
AcDbEntity
  8
0
100
AcDbLine
 10
699.75
 20
75.0
 30
0.0
 11
699.5
 21
75.0
 31
0.0
  0
LINE
  5
3BA
330
3B0
100
AcDbEntity
  8
0
100
AcDbLine
 10
700.25
 20
75.0
 30
0.0
 11
700.5
 21
75.0
 31
0.0
  0
LINE
  5
3BB
330
3B0
100
AcDbEntity
  8
0
100
AcDbLine
 10
700.0
 20
75.0
 30
0.0
 11
700.0
 21
75.0
 31
0.0
  0
MTEXT
  5
3BC
330
3B0
100
AcDbEntity
  8
dims
100
AcDbMText
 10
700.0
 20
325.0
 30
0.0
 40
1.0
 71
5
  1
0
  0
POINT
  5
3BD
330
3B0
100
AcDbEntity
  8
Defpoints
100
AcDbPoint
 10
700.0
 20
75.0
 30
0.0
  0
POINT
  5
3BE
330
3B0
100
AcDbEntity
  8
Defpoints
100
AcDbPoint
 10
700.0
 20
75.0
 30
0.0
  0
POINT
  5
3BF
330
3B0
100
AcDbEntity
  8
Defpoints
100
AcDbPoint
 10
700.0
 20
325.0
 30
0.0
  0
ENDBLK
  5
3B2
330
3B0
100
AcDbEntity
  8
0
100
AcDbBlockEnd
  0
BLOCK
  5
3C2
330
3C1
100
AcDbEntity
  8
0
100
AcDbBlockBegin
  2
*D46
 70
1
 10
0.0
 20
0.0
 30
0.0
  3
*D46
  1

  0
LINE
  5
3C4
330
3C1
100
AcDbEntity
  8
0
100
AcDbLine
 10
250.0
 20
225.0
 30
0.0
 11
250.0
 21
225.0
 31
0.0
  0
LINE
  5
3C5
330
3C1
100
AcDbEntity
  8
0
100
AcDbLine
 10
600.0
 20
225.0
 30
0.0
 11
600.0
 21
225.0
 31
0.0
  0
INSERT
  5
3C6
330
3C1
100
AcDbEntity
  8
dims
100
AcDbBlockReference
  2
_CLOSEDFILLED
 10
250.0
 20
225.0
 30
0.0
 41
0.25
 42
0.25
 50
180.0
  0
INSERT
  5
3C8
330
3C1
100
AcDbEntity
  8
dims
100
AcDbBlockReference
  2
_CLOSEDFILLED
 10
600.0
 20
225.0
 30
0.0
 41
0.25
 42
0.25
  0
LINE
  5
3CA
330
3C1
100
AcDbEntity
  8
0
100
AcDbLine
 10
598.5
 20
225.0
 30
0.0
 11
250.25
 21
225.0
 31
0.0
  0
MTEXT
  5
3CB
330
3C1
100
AcDbEntity
  8
dims
100
AcDbMText
 10
600.0
 20
225.0
 30
0.0
 40
1.0
 71
5
  1
350
  0
POINT
  5
3CC
330
3C1
100
AcDbEntity
  8
Defpoints
100
AcDbPoint
 10
250.0
 20
225.0
 30
0.0
  0
POINT
  5
3CD
330
3C1
100
AcDbEntity
  8
Defpoints
100
AcDbPoint
 10
250.0
 20
225.0
 30
0.0
  0
POINT
  5
3CE
330
3C1
100
AcDbEntity
  8
Defpoints
100
AcDbPoint
 10
600.0
 20
225.0
 30
0.0
  0
ENDBLK
  5
3C3
330
3C1
100
AcDbEntity
  8
0
100
AcDbBlockEnd
  0
BLOCK
  5
3D1
330
3D0
100
AcDbEntity
  8
0
100
AcDbBlockBegin
  2
*D47
 70
1
 10
0.0
 20
0.0
 30
0.0
  3
*D47
  1

  0
LINE
  5
3D3
330
3D0
100
AcDbEntity
  8
0
100
AcDbLine
 10
-175.0
 20
-700.0
 30
0.0
 11
-175.0
 21
-700.0
 31
0.0
  0
LINE
  5
3D4
330
3D0
100
AcDbEntity
  8
0
100
AcDbLine
 10
-174.0
 20
675.0
 30
0.0
 11
-174.0
 21
-700.0
 31
0.0
  0
INSERT
  5
3D5
330
3D0
100
AcDbEntity
  8
dims
100
AcDbBlockReference
  2
_CLOSEDFILLED
 10
-175.0
 20
-700.0
 30
0.0
 41
0.25
 42
0.25
  0
INSERT
  5
3D7
330
3D0
100
AcDbEntity
  8
dims
100
AcDbBlockReference
  2
_CLOSEDFILLED
 10
-174.0
 20
-700.0
 30
0.0
 41
0.25
 42
0.25
 50
180.0
  0
LINE
  5
3D9
330
3D0
100
AcDbEntity
  8
0
100
AcDbLine
 10
-175.25
 20
-700.0
 30
0.0
 11
-175.5
 21
-700.0
 31
0.0
  0
LINE
  5
3DA
330
3D0
100
AcDbEntity
  8
0
100
AcDbLine
 10
-173.75
 20
-700.0
 30
0.0
 11
-173.5
 21
-700.0
 31
0.0
  0
LINE
  5
3DB
330
3D0
100
AcDbEntity
  8
0
100
AcDbLine
 10
-175.0
 20
-700.0
 30
0.0
 11
-174.0
 21
-700.0
 31
0.0
  0
MTEXT
  5
3DC
330
3D0
100
AcDbEntity
  8
dims
100
AcDbMText
 10
-174.0
 20
675.0
 30
0.0
 40
1.0
 71
5
  1
1
  0
POINT
  5
3DD
330
3D0
100
AcDbEntity
  8
Defpoints
100
AcDbPoint
 10
-175.0
 20
-700.0
 30
0.0
  0
POINT
  5
3DE
330
3D0
100
AcDbEntity
  8
Defpoints
100
AcDbPoint
 10
-175.0
 20
-700.0
 30
0.0
  0
POINT
  5
3DF
330
3D0
100
AcDbEntity
  8
Defpoints
100
AcDbPoint
 10
-174.0
 20
675.0
 30
0.0
  0
ENDBLK
  5
3D2
330
3D0
100
AcDbEntity
  8
0
100
AcDbBlockEnd
  0
BLOCK
  5
3E2
330
3E1
100
AcDbEntity
  8
0
100
AcDbBlockBegin
  2
*D48
 70
1
 10
0.0
 20
0.0
 30
0.0
  3
*D48
  1

  0
LINE
  5
3E4
330
3E1
100
AcDbEntity
  8
0
100
AcDbLine
 10
-125.0
 20
-775.0
 30
0.0
 11
-125.0
 21
-775.0
 31
0.0
  0
LINE
  5
3E5
330
3E1
100
AcDbEntity
  8
0
100
AcDbLine
 10
1626.0
 20
-775.0
 30
0.0
 11
1626.0
 21
-775.0
 31
0.0
  0
INSERT
  5
3E6
330
3E1
100
AcDbEntity
  8
dims
100
AcDbBlockReference
  2
_CLOSEDFILLED
 10
-125.0
 20
-775.0
 30
0.0
 41
0.25
 42
0.25
 50
180.0
  0
INSERT
  5
3E8
330
3E1
100
AcDbEntity
  8
dims
100
AcDbBlockReference
  2
_CLOSEDFILLED
 10
1626.0
 20
-775.0
 30
0.0
 41
0.25
 42
0.25
  0
LINE
  5
3EA
330
3E1
100
AcDbEntity
  8
0
100
AcDbLine
 10
1624.0
 20
-775.0
 30
0.0
 11
-124.75
 21
-775.0
 31
0.0
  0
MTEXT
  5
3EB
330
3E1
100
AcDbEntity
  8
dims
100
AcDbMText
 10
1626.0
 20
-775.0
 30
0.0
 40
1.0
 71
5
  1
1751
  0
POINT
  5
3EC
330
3E1
100
AcDbEntity
  8
Defpoints
100
AcDbPoint
 10
-125.0
 20
-775.0
 30
0.0
  0
POINT
  5
3ED
330
3E1
100
AcDbEntity
  8
Defpoints
100
AcDbPoint
 10
-125.0
 20
-775.0
 30
0.0
  0
POINT
  5
3EE
330
3E1
100
AcDbEntity
  8
Defpoints
100
AcDbPoint
 10
1626.0
 20
-775.0
 30
0.0
  0
ENDBLK
  5
3E3
330
3E1
100
AcDbEntity
  8
0
100
AcDbBlockEnd
  0
ENDSEC
  0
SECTION
  2
ENTITIES
  0
TEXT
  5
38
330
17
100
AcDbEntity
  8
0
100
AcDbText
 10
1125.0
 20
0.0
 30
0.0
 40
25.0
  1
HALLWAY
 50
360.0
 41
150.0
 11
1125.0
 21
0.0
 31
0.0
100
AcDbText
  0
LINE
  5
39
330
17
100
AcDbEntity
  8
0
100
AcDbLine
 10
250.0
 20
300.0
 30
0.0
 11
600.0
 21
300.0
 31
0.0
  0
TEXT
  5
3A
330
17
100
AcDbEntity
  8
0
100
AcDbText
 10
835.0
 20
199.0
 30
0.0
 40
25.0
  1
15TR 26.5
 50
270.0
 41
91.0
 11
835.0
 21
199.0
 31
0.0
100
AcDbText
  0
TEXT
  5
3B
330
17
100
AcDbEntity
  8
0
100
AcDbText
 10
856.0
 20
200.0
 30
0.0
 40
25.0
  1
12.5
 50
270.0
 41
88.0
 11
856.0
 21
200.0
 31
0.0
100
AcDbText
  0
DIMENSION
  5
3C
330
17
100
AcDbEntity
  8
0
100
AcDbDimension
280
0
  2
*D1
  3
Standard
 10
125.0
 20
525.0
 30
0.0
 11
1575.0
 21
525.0
 31
0.0
 70
160
 71
5
  1
<>
100
AcDbAlignedDimension
 13
125.0
 23
525.0
 33
0.0
 14
1575.0
 24
525.0
 34
0.0
 50
0.0
100
AcDbRotatedDimension
1001
ACAD
1000
DSTYLE
1002
{
1070
279
1070
2
1002
}
  0
TEXT
  5
4F
330
17
100
AcDbEntity
  8
0
100
AcDbText
 10
1150.0
 20
200.0
 30
0.0
 40
25.0
  1
GARAGE/STORAGE
 50
360.0
 41
175.0
 11
1150.0
 21
200.0
 31
0.0
100
AcDbText
  0
TEXT
  5
50
330
17
100
AcDbEntity
  8
0
100
AcDbText
 10
375.0
 20
50.0
 30
0.0
 40
25.0
  1
LIVINGROOM
 50
360.0
 41
125.0
 11
375.0
 21
50.0
 31
0.0
100
AcDbText
  0
TEXT
  5
51
330
17
100
AcDbEntity
  8
0
100
AcDbText
 10
1342.0
 20
-237.0
 30
0.0
 40
25.0
  1

 50
311.5458809165138
 41
434.2453223697407
 11
1342.0
 21
-237.0
 31
0.0
100
AcDbText
  0
DIMENSION
  5
52
330
17
100
AcDbEntity
  8
0
100
AcDbDimension
280
0
  2
*D2
  3
Standard
 10
1000.0
 20
475.0
 30
0.0
 11
1025.0
 21
475.0
 31
0.0
 70
160
 71
5
  1
<>
100
AcDbAlignedDimension
 13
1000.0
 23
475.0
 33
0.0
 14
1025.0
 24
475.0
 34
0.0
 50
0.0
100
AcDbRotatedDimension
1001
ACAD
1000
DSTYLE
1002
{
1070
279
1070
2
1002
}
  0
DIMENSION
  5
61
330
17
100
AcDbEntity
  8
0
100
AcDbDimension
280
0
  2
*D3
  3
Standard
 10
125.0
 20
475.0
 30
0.0
 11
775.0
 21
475.0
 31
0.0
 70
160
 71
5
  1
<>
100
AcDbAlignedDimension
 13
125.0
 23
475.0
 33
0.0
 14
775.0
 24
475.0
 34
0.0
 50
0.0
100
AcDbRotatedDimension
1001
ACAD
1000
DSTYLE
1002
{
1070
279
1070
2
1002
}
  0
DIMENSION
  5
70
330
17
100
AcDbEntity
  8
0
100
AcDbDimension
280
0
  2
*D4
  3
Standard
 10
900.0
 20
50.0
 30
0.0
 11
800.0
 21
50.0
 31
0.0
 70
160
 71
5
  1
<>
100
AcDbAlignedDimension
 13
900.0
 23
50.0
 33
0.0
 14
800.0
 24
50.0
 34
0.0
 50
0.0
100
AcDbRotatedDimension
1001
ACAD
1000
DSTYLE
1002
{
1070
279
1070
2
1002
}
  0
DIMENSION
  5
7F
330
17
100
AcDbEntity
  8
0
100
AcDbDimension
280
0
  2
*D5
  3
Standard
 10
125.0
 20
-238.0
 30
0.0
 11
125.0
 21
-75.0
 31
0.0
 70
160
 71
5
  1
<>
100
AcDbAlignedDimension
 13
125.0
 23
-238.0
 33
0.0
 14
125.0
 24
-75.0
 34
0.0
 50
0.0
100
AcDbRotatedDimension
1001
ACAD
1000
DSTYLE
1002
{
1070
279
1070
2
1002
}
  0
DIMENSION
  5
90
330
17
100
AcDbEntity
  8
0
100
AcDbDimension
280
0
  2
*D6
  3
Standard
 10
1025.0
 20
475.0
 30
0.0
 11
1575.0
 21
475.0
 31
0.0
 70
160
 71
5
  1
<>
100
AcDbAlignedDimension
 13
1025.0
 23
475.0
 33
0.0
 14
1575.0
 24
475.0
 34
0.0
 50
0.0
100
AcDbRotatedDimension
1001
ACAD
1000
DSTYLE
1002
{
1070
279
1070
2
1002
}
  0
DIMENSION
  5
9F
330
17
100
AcDbEntity
  8
0
100
AcDbDimension
280
0
  2
*D7
  3
Standard
 10
800.0
 20
475.0
 30
0.0
 11
1000.0
 21
475.0
 31
0.0
 70
160
 71
5
  1
<>
100
AcDbAlignedDimension
 13
800.0
 23
475.0
 33
0.0
 14
1000.0
 24
475.0
 34
0.0
 50
0.0
100
AcDbRotatedDimension
1001
ACAD
1000
DSTYLE
1002
{
1070
279
1070
2
1002
}
  0
DIMENSION
  5
AE
330
17
100
AcDbEntity
  8
0
100
AcDbDimension
280
0
  2
*D8
  3
Standard
 10
175.0
 20
-213.0
 30
0.0
 11
175.0
 21
-350.0
 31
0.0
 70
160
 71
5
  1
<>
100
AcDbAlignedDimension
 13
175.0
 23
-213.0
 33
0.0
 14
175.0
 24
-350.0
 34
0.0
 50
0.0
100
AcDbRotatedDimension
1001
ACAD
1000
DSTYLE
1002
{
1070
279
1070
2
1002
}
  0
DIMENSION
  5
BF
330
17
100
AcDbEntity
  8
0
100
AcDbDimension
280
0
  2
*D9
  3
Standard
 10
1000.0
 20
50.0
 30
0.0
 11
900.0
 21
50.0
 31
0.0
 70
160
 71
5
  1
<>
100
AcDbAlignedDimension
 13
1000.0
 23
50.0
 33
0.0
 14
900.0
 24
50.0
 34
0.0
 50
0.0
100
AcDbRotatedDimension
1001
ACAD
1000
DSTYLE
1002
{
1070
279
1070
2
1002
}
  0
TEXT
  5
CE
330
17
100
AcDbEntity
  8
0
100
AcDbText
 10
400.0
 20
-225.0
 30
0.0
 40
25.0
  1
DINING/KITCHEN
 50
360.0
 41
250.0
 11
400.0
 21
-225.0
 31
0.0
100
AcDbText
  0
DIMENSION
  5
CF
330
17
100
AcDbEntity
  8
0
100
AcDbDimension
280
0
  2
*D10
  3
Standard
 10
775.0
 20
475.0
 30
0.0
 11
800.0
 21
475.0
 31
0.0
 70
160
 71
5
  1
<>
100
AcDbAlignedDimension
 13
775.0
 23
475.0
 33
0.0
 14
800.0
 24
475.0
 34
0.0
 50
0.0
100
AcDbRotatedDimension
1001
ACAD
1000
DSTYLE
1002
{
1070
279
1070
2
1002
}
  0
DIMENSION
  5
DE
330
17
100
AcDbEntity
  8
0
100
AcDbDimension
280
0
  2
*D11
  3
Standard
 10
800.0
 20
50.0
 30
0.0
 11
775.0
 21
50.0
 31
0.0
 70
160
 71
5
  1
<>
100
AcDbAlignedDimension
 13
800.0
 23
50.0
 33
0.0
 14
775.0
 24
50.0
 34
0.0
 50
0.0
100
AcDbRotatedDimension
1001
ACAD
1000
DSTYLE
1002
{
1070
279
1070
2
1002
}
  0
TEXT
  5
ED
330
17
100
AcDbEntity
  8
0
100
AcDbText
 10
825.0
 20
100.0
 30
0.0
 40
25.0
  1
STAIRCASE
 50
360.0
 41
150.0
 11
825.0
 21
100.0
 31
0.0
100
AcDbText
  0
TEXT
  5
EE
330
17
100
AcDbEntity
  8
0
100
AcDbText
 10
1125.0
 20
-175.0
 30
0.0
 40
25.0
  1
OFFICE/WORKSHOP
 50
360.0
 41
200.0
 11
1125.0
 21
-175.0
 31
0.0
100
AcDbText
  0
DIMENSION
  5
EF
330
17
100
AcDbEntity
  8
0
100
AcDbDimension
280
0
  2
*D12
  3
Standard
 10
175.0
 20
-75.0
 30
0.0
 11
175.0
 21
-213.0
 31
0.0
 70
160
 71
5
  1
<>
100
AcDbAlignedDimension
 13
175.0
 23
-75.0
 33
0.0
 14
175.0
 24
-213.0
 34
0.0
 50
0.0
100
AcDbRotatedDimension
1001
ACAD
1000
DSTYLE
1002
{
1070
279
1070
2
1002
}
  0
DIMENSION
  5
100
330
17
100
AcDbEntity
  8
0
100
AcDbDimension
280
0
  2
*D13
  3
Standard
 10
125.0
 20
-400.0
 30
0.0
 11
125.0
 21
-238.0
 31
0.0
 70
160
 71
5
  1
<>
100
AcDbAlignedDimension
 13
125.0
 23
-400.0
 33
0.0
 14
125.0
 24
-238.0
 34
0.0
 50
0.0
100
AcDbRotatedDimension
1001
ACAD
1000
DSTYLE
1002
{
1070
279
1070
2
1002
}
  0
LINE
  5
112
330
17
100
AcDbEntity
  8
axes
100
AcDbLine
 10
-175.0
 20
-700.0
 30
0.0
 11
-124.0
 21
-700.0
 31
0.0
  0
LINE
  5
113
330
17
100
AcDbEntity
  8
axes
100
AcDbLine
 10
1550.0
 20
350.0
 30
0.0
 11
1600.0
 21
350.0
 31
0.0
  0
LINE
  5
114
330
17
100
AcDbEntity
  8
axes
100
AcDbLine
 10
1550.0
 20
-100.0
 30
0.0
 11
1550.0
 21
350.0
 31
0.0
  0
LINE
  5
115
330
17
100
AcDbEntity
  8
axes
100
AcDbLine
 10
150.0
 20
-375.0
 30
0.0
 11
150.0
 21
-100.0
 31
0.0
  0
LINE
  5
116
330
17
100
AcDbEntity
  8
axes
100
AcDbLine
 10
800.0
 20
-100.0
 30
0.0
 11
800.0
 21
350.0
 31
0.0
  0
LINE
  5
117
330
17
100
AcDbEntity
  8
axes
100
AcDbLine
 10
800.0
 20
-425.0
 30
0.0
 11
800.0
 21
-375.0
 31
0.0
  0
LINE
  5
118
330
17
100
AcDbEntity
  8
axes
100
AcDbLine
 10
-124.0
 20
-700.0
 30
0.0
 11
-124.0
 21
675.0
 31
0.0
  0
LINE
  5
119
330
17
100
AcDbEntity
  8
axes
100
AcDbLine
 10
800.0
 20
-375.0
 30
0.0
 11
800.0
 21
-100.0
 31
0.0
  0
LINE
  5
11A
330
17
100
AcDbEntity
  8
axes
100
AcDbLine
 10
-125.0
 20
-775.0
 30
0.0
 11
-124.0
 21
-700.0
 31
0.0
  0
LINE
  5
11B
330
17
100
AcDbEntity
  8
axes
100
AcDbLine
 10
150.0
 20
-425.0
 30
0.0
 11
150.0
 21
-375.0
 31
0.0
  0
LINE
  5
11C
330
17
100
AcDbEntity
  8
axes
100
AcDbLine
 10
1600.0
 20
-375.0
 30
0.0
 11
1901.0
 21
-375.0
 31
0.0
  0
LINE
  5
11D
330
17
100
AcDbEntity
  8
axes
100
AcDbLine
 10
1550.0
 20
350.0
 30
0.0
 11
1550.0
 21
400.0
 31
0.0
  0
LINE
  5
11E
330
17
100
AcDbEntity
  8
axes
100
AcDbLine
 10
-200.0
 20
675.0
 30
0.0
 11
-124.0
 21
675.0
 31
0.0
  0
LINE
  5
11F
330
17
100
AcDbEntity
  8
axes
100
AcDbLine
 10
-124.0
 20
675.0
 30
0.0
 11
-124.0
 21
735.0
 31
0.0
  0
LINE
  5
120
330
17
100
AcDbEntity
  8
axes
100
AcDbLine
 10
150.0
 20
-100.0
 30
0.0
 11
800.0
 21
-100.0
 31
0.0
  0
LINE
  5
121
330
17
100
AcDbEntity
  8
axes
100
AcDbLine
 10
1600.0
 20
350.0
 30
0.0
 11
1900.0
 21
350.0
 31
0.0
  0
LINE
  5
122
330
17
100
AcDbEntity
  8
axes
100
AcDbLine
 10
150.0
 20
350.0
 30
0.0
 11
800.0
 21
350.0
 31
0.0
  0
LINE
  5
123
330
17
100
AcDbEntity
  8
axes
100
AcDbLine
 10
100.0
 20
350.0
 30
0.0
 11
150.0
 21
350.0
 31
0.0
  0
LINE
  5
124
330
17
100
AcDbEntity
  8
axes
100
AcDbLine
 10
150.0
 20
-100.0
 30
0.0
 11
150.0
 21
350.0
 31
0.0
  0
LINE
  5
125
330
17
100
AcDbEntity
  8
axes
100
AcDbLine
 10
800.0
 20
350.0
 30
0.0
 11
1550.0
 21
350.0
 31
0.0
  0
LINE
  5
126
330
17
100
AcDbEntity
  8
axes
100
AcDbLine
 10
100.0
 20
-100.0
 30
0.0
 11
150.0
 21
-100.0
 31
0.0
  0
LINE
  5
127
330
17
100
AcDbEntity
  8
axes
100
AcDbLine
 10
-124.0
 20
675.0
 30
0.0
 11
2175.0
 21
675.0
 31
0.0
  0
LINE
  5
128
330
17
100
AcDbEntity
  8
axes
100
AcDbLine
 10
800.0
 20
-100.0
 30
0.0
 11
1550.0
 21
-100.0
 31
0.0
  0
LINE
  5
129
330
17
100
AcDbEntity
  8
axes
100
AcDbLine
 10
150.0
 20
-375.0
 30
0.0
 11
800.0
 21
-375.0
 31
0.0
  0
LINE
  5
12A
330
17
100
AcDbEntity
  8
axes
100
AcDbLine
 10
1550.0
 20
-375.0
 30
0.0
 11
1550.0
 21
-100.0
 31
0.0
  0
LINE
  5
12B
330
17
100
AcDbEntity
  8
axes
100
AcDbLine
 10
1550.0
 20
-425.0
 30
0.0
 11
1550.0
 21
-375.0
 31
0.0
  0
LINE
  5
12C
330
17
100
AcDbEntity
  8
axes
100
AcDbLine
 10
-124.0
 20
-700.0
 30
0.0
 11
1625.0
 21
-700.0
 31
0.0
  0
LINE
  5
12D
330
17
100
AcDbEntity
  8
axes
100
AcDbLine
 10
1550.0
 20
-100.0
 30
0.0
 11
1600.0
 21
-100.0
 31
0.0
  0
LINE
  5
12E
330
17
100
AcDbEntity
  8
axes
100
AcDbLine
 10
150.0
 20
350.0
 30
0.0
 11
150.0
 21
400.0
 31
0.0
  0
LINE
  5
12F
330
17
100
AcDbEntity
  8
axes
100
AcDbLine
 10
800.0
 20
350.0
 30
0.0
 11
800.0
 21
400.0
 31
0.0
  0
LINE
  5
130
330
17
100
AcDbEntity
  8
axes
100
AcDbLine
 10
100.0
 20
-375.0
 30
0.0
 11
150.0
 21
-375.0
 31
0.0
  0
LINE
  5
131
330
17
100
AcDbEntity
  8
axes
100
AcDbLine
 10
800.0
 20
-375.0
 30
0.0
 11
1550.0
 21
-375.0
 31
0.0
  0
LINE
  5
132
330
17
100
AcDbEntity
  8
axes
100
AcDbLine
 10
1550.0
 20
-375.0
 30
0.0
 11
1600.0
 21
-375.0
 31
0.0
  0
LINE
  5
134
330
17
100
AcDbEntity
  8
construction
100
AcDbLine
 10
250.0
 20
75.0
 30
0.0
 11
600.0
 21
75.0
 31
0.0
  0
LINE
  5
136
330
17
100
AcDbEntity
  8
cutouts
100
AcDbLine
 10
625.0
 20
-400.0
 30
0.0
 11
850.0
 21
-400.0
 31
0.0
  0
LINE
  5
137
330
17
100
AcDbEntity
  8
cutouts
100
AcDbLine
 10
1575.0
 20
300.0
 30
0.0
 11
1575.0
 21
375.0
 31
0.0
  0
LINE
  5
138
330
17
100
AcDbEntity
  8
cutouts
100
AcDbLine
 10
1000.0
 20
-175.0
 30
0.0
 11
1000.0
 21
-350.0
 31
0.0
  0
LINE
  5
139
330
17
100
AcDbEntity
  8
cutouts
100
AcDbLine
 10
900.0
 20
190.0
 30
0.0
 11
999.0
 21
163.0
 31
0.0
  0
LINE
  5
13A
330
17
100
AcDbEntity
  8
cutouts
100
AcDbLine
 10
1000.0
 20
-100.0
 30
0.0
 11
1575.0
 21
-100.0
 31
0.0
  0
LINE
  5
13B
330
17
100
AcDbEntity
  8
cutouts
100
AcDbLine
 10
1000.0
 20
-75.0
 30
0.0
 11
1000.0
 21
-100.0
 31
0.0
  0
LINE
  5
13C
330
17
100
AcDbEntity
  8
cutouts
100
AcDbLine
 10
1525.0
 20
100.0
 30
0.0
 11
1575.0
 21
100.0
 31
0.0
  0
LINE
  5
13D
330
17
100
AcDbEntity
  8
cutouts
100
AcDbLine
 10
900.0
 20
-350.0
 30
0.0
 11
1000.0
 21
-350.0
 31
0.0
  0
LINE
  5
13E
330
17
100
AcDbEntity
  8
cutouts
100
AcDbLine
 10
850.0
 20
-350.0
 30
0.0
 11
850.0
 21
-400.0
 31
0.0
  0
LINE
  5
13F
330
17
100
AcDbEntity
  8
cutouts
100
AcDbLine
 10
1525.0
 20
325.0
 30
0.0
 11
1025.0
 21
325.0
 31
0.0
  0
LINE
  5
140
330
17
100
AcDbEntity
  8
cutouts
100
AcDbLine
 10
1525.0
 20
300.0
 30
0.0
 11
1525.0
 21
325.0
 31
0.0
  0
LINE
  5
141
330
17
100
AcDbEntity
  8
cutouts
100
AcDbLine
 10
125.0
 20
-400.0
 30
0.0
 11
250.0
 21
-400.0
 31
0.0
  0
LINE
  5
142
330
17
100
AcDbEntity
  8
cutouts
100
AcDbLine
 10
800.0
 20
325.0
 30
0.0
 11
800.0
 21
75.0
 31
0.0
  0
LINE
  5
143
330
17
100
AcDbEntity
  8
cutouts
100
AcDbLine
 10
1000.0
 20
325.0
 30
0.0
 11
800.0
 21
325.0
 31
0.0
  0
LINE
  5
144
330
17
100
AcDbEntity
  8
cutouts
100
AcDbLine
 10
1000.0
 20
50.0
 30
0.0
 11
1000.0
 21
325.0
 31
0.0
  0
LINE
  5
145
330
17
100
AcDbEntity
  8
cutouts
100
AcDbLine
 10
250.0
 20
100.0
 30
0.0
 11
600.0
 21
100.0
 31
0.0
  0
LINE
  5
146
330
17
100
AcDbEntity
  8
cutouts
100
AcDbLine
 10
800.0
 20
-100.0
 30
0.0
 11
800.0
 21
-75.0
 31
0.0
  0
LINE
  5
147
330
17
100
AcDbEntity
  8
cutouts
100
AcDbLine
 10
896.0
 20
-330.0
 30
0.0
 11
897.0
 21
-330.0
 31
0.0
  0
LINE
  5
148
330
17
100
AcDbEntity
  8
cutouts
100
AcDbLine
 10
125.0
 20
375.0
 30
0.0
 11
1575.0
 21
375.0
 31
0.0
  0
LINE
  5
149
330
17
100
AcDbEntity
  8
cutouts
100
AcDbLine
 10
175.0
 20
-75.0
 30
0.0
 11
175.0
 21
-350.0
 31
0.0
  0
LINE
  5
14A
330
17
100
AcDbEntity
  8
cutouts
100
AcDbLine
 10
1575.0
 20
50.0
 30
0.0
 11
1575.0
 21
100.0
 31
0.0
  0
LINE
  5
14B
330
17
100
AcDbEntity
  8
cutouts
100
AcDbLine
 10
1450.0
 20
-400.0
 30
0.0
 11
1575.0
 21
-400.0
 31
0.0
  0
LINE
  5
14C
330
17
100
AcDbEntity
  8
cutouts
100
AcDbLine
 10
1525.0
 20
-50.0
 30
0.0
 11
1575.0
 21
-50.0
 31
0.0
  0
LINE
  5
14D
330
17
100
AcDbEntity
  8
cutouts
100
AcDbLine
 10
775.0
 20
325.0
 30
0.0
 11
125.0
 21
325.0
 31
0.0
  0
LINE
  5
14E
330
17
100
AcDbEntity
  8
cutouts
100
AcDbLine
 10
425.0
 20
-100.0
 30
0.0
 11
425.0
 21
-75.0
 31
0.0
  0
LINE
  5
14F
330
17
100
AcDbEntity
  8
cutouts
100
AcDbLine
 10
800.0
 20
-100.0
 30
0.0
 11
425.0
 21
-100.0
 31
0.0
  0
LINE
  5
150
330
17
100
AcDbEntity
  8
cutouts
100
AcDbLine
 10
625.0
 20
-350.0
 30
0.0
 11
775.0
 21
-350.0
 31
0.0
  0
LINE
  5
151
330
17
100
AcDbEntity
  8
cutouts
100
AcDbLine
 10
1525.0
 20
-75.0
 30
0.0
 11
1525.0
 21
-50.0
 31
0.0
  0
LINE
  5
152
330
17
100
AcDbEntity
  8
cutouts
100
AcDbLine
 10
1525.0
 20
300.0
 30
0.0
 11
1575.0
 21
300.0
 31
0.0
  0
LINE
  5
153
330
17
100
AcDbEntity
  8
cutouts
100
AcDbLine
 10
775.0
 20
75.0
 30
0.0
 11
800.0
 21
75.0
 31
0.0
  0
LINE
  5
154
330
17
100
AcDbEntity
  8
cutouts
100
AcDbLine
 10
250.0
 20
-350.0
 30
0.0
 11
250.0
 21
-400.0
 31
0.0
  0
LINE
  5
155
330
17
100
AcDbEntity
  8
cutouts
100
AcDbLine
 10
1525.0
 20
-75.0
 30
0.0
 11
1000.0
 21
-75.0
 31
0.0
  0
LINE
  5
156
330
17
100
AcDbEntity
  8
cutouts
100
AcDbLine
 10
1450.0
 20
-350.0
 30
0.0
 11
1575.0
 21
-350.0
 31
0.0
  0
LINE
  5
157
330
17
100
AcDbEntity
  8
cutouts
100
AcDbLine
 10
1450.0
 20
-350.0
 30
0.0
 11
1450.0
 21
-400.0
 31
0.0
  0
LINE
  5
158
330
17
100
AcDbEntity
  8
cutouts
100
AcDbLine
 10
125.0
 20
325.0
 30
0.0
 11
125.0
 21
375.0
 31
0.0
  0
LINE
  5
159
330
17
100
AcDbEntity
  8
cutouts
100
AcDbLine
 10
1025.0
 20
-175.0
 30
0.0
 11
1000.0
 21
-175.0
 31
0.0
  0
LINE
  5
15A
330
17
100
AcDbEntity
  8
cutouts
100
AcDbLine
 10
1575.0
 20
-100.0
 30
0.0
 11
1575.0
 21
-50.0
 31
0.0
  0
LINE
  5
15B
330
17
100
AcDbEntity
  8
cutouts
100
AcDbLine
 10
1525.0
 20
75.0
 30
0.0
 11
1025.0
 21
75.0
 31
0.0
  0
LINE
  5
15C
330
17
100
AcDbEntity
  8
cutouts
100
AcDbLine
 10
900.0
 20
-350.0
 30
0.0
 11
900.0
 21
-400.0
 31
0.0
  0
LINE
  5
15D
330
17
100
AcDbEntity
  8
cutouts
100
AcDbLine
 10
625.0
 20
-350.0
 30
0.0
 11
625.0
 21
-400.0
 31
0.0
  0
LINE
  5
15E
330
17
100
AcDbEntity
  8
cutouts
100
AcDbLine
 10
1575.0
 20
-400.0
 30
0.0
 11
1575.0
 21
-350.0
 31
0.0
  0
LINE
  5
15F
330
17
100
AcDbEntity
  8
cutouts
100
AcDbLine
 10
800.0
 20
-350.0
 30
0.0
 11
800.0
 21
-200.0
 31
0.0
  0
LINE
  5
160
330
17
100
AcDbEntity
  8
cutouts
100
AcDbLine
 10
175.0
 20
-75.0
 30
0.0
 11
125.0
 21
-75.0
 31
0.0
  0
LINE
  5
161
330
17
100
AcDbEntity
  8
cutouts
100
AcDbLine
 10
1150.0
 20
-350.0
 30
0.0
 11
1150.0
 21
-400.0
 31
0.0
  0
LINE
  5
162
330
17
100
AcDbEntity
  8
cutouts
100
AcDbLine
 10
775.0
 20
-175.0
 30
0.0
 11
900.0
 21
-175.0
 31
0.0
  0
LINE
  5
163
330
17
100
AcDbEntity
  8
cutouts
100
AcDbLine
 10
125.0
 20
-400.0
 30
0.0
 11
125.0
 21
-75.0
 31
0.0
  0
LINE
  5
164
330
17
100
AcDbEntity
  8
cutouts
100
AcDbLine
 10
800.0
 20
-75.0
 30
0.0
 11
425.0
 21
-75.0
 31
0.0
  0
LINE
  5
165
330
17
100
AcDbEntity
  8
cutouts
100
AcDbLine
 10
800.0
 20
-350.0
 30
0.0
 11
850.0
 21
-350.0
 31
0.0
  0
LINE
  5
166
330
17
100
AcDbEntity
  8
cutouts
100
AcDbLine
 10
1525.0
 20
75.0
 30
0.0
 11
1525.0
 21
100.0
 31
0.0
  0
LINE
  5
167
330
17
100
AcDbEntity
  8
cutouts
100
AcDbLine
 10
1000.0
 20
50.0
 30
0.0
 11
1575.0
 21
50.0
 31
0.0
  0
LINE
  5
168
330
17
100
AcDbEntity
  8
cutouts
100
AcDbLine
 10
775.0
 20
75.0
 30
0.0
 11
775.0
 21
325.0
 31
0.0
  0
LINE
  5
169
330
17
100
AcDbEntity
  8
cutouts
100
AcDbLine
 10
800.0
 20
-200.0
 30
0.0
 11
900.0
 21
-200.0
 31
0.0
  0
LINE
  5
16A
330
17
100
AcDbEntity
  8
cutouts
100
AcDbLine
 10
175.0
 20
-350.0
 30
0.0
 11
250.0
 21
-350.0
 31
0.0
  0
LINE
  5
16B
330
17
100
AcDbEntity
  8
cutouts
100
AcDbLine
 10
1025.0
 20
-350.0
 30
0.0
 11
1150.0
 21
-350.0
 31
0.0
  0
LINE
  5
16C
330
17
100
AcDbEntity
  8
cutouts
100
AcDbLine
 10
900.0
 20
-175.0
 30
0.0
 11
900.0
 21
-200.0
 31
0.0
  0
LINE
  5
16D
330
17
100
AcDbEntity
  8
cutouts
100
AcDbLine
 10
900.0
 20
-400.0
 30
0.0
 11
1150.0
 21
-400.0
 31
0.0
  0
LINE
  5
16E
330
17
100
AcDbEntity
  8
cutouts
100
AcDbLine
 10
1025.0
 20
-175.0
 30
0.0
 11
1025.0
 21
-350.0
 31
0.0
  0
LINE
  5
16F
330
17
100
AcDbEntity
  8
cutouts
100
AcDbLine
 10
775.0
 20
-350.0
 30
0.0
 11
775.0
 21
-175.0
 31
0.0
  0
LINE
  5
170
330
17
100
AcDbEntity
  8
cutouts
100
AcDbLine
 10
1025.0
 20
325.0
 30
0.0
 11
1025.0
 21
75.0
 31
0.0
  0
LINE
  5
172
330
17
100
AcDbEntity
  8
visible
100
AcDbLine
 10
850.0
 20
-400.0
 30
0.0
 11
900.0
 21
-400.0
 31
0.0
  0
LINE
  5
173
330
17
100
AcDbEntity
  8
visible
100
AcDbLine
 10
1900.0
 20
-350.0
 30
0.0
 11
1950.0
 21
-350.0
 31
0.0
  0
LINE
  5
174
330
17
100
AcDbEntity
  8
visible
100
AcDbLine
 10
1464.0
 20
-40.0
 30
0.0
 11
1550.0
 21
-40.0
 31
0.0
  0
LINE
  5
175
330
17
100
AcDbEntity
  8
visible
100
AcDbLine
 10
625.0
 20
-350.0
 30
0.0
 11
250.0
 21
-350.0
 31
0.0
  0
LINE
  5
176
330
17
100
AcDbEntity
  8
visible
100
AcDbLine
 10
1575.0
 20
-350.0
 30
0.0
 11
1575.0
 21
-200.0
 31
0.0
  0
LINE
  5
177
330
17
100
AcDbEntity
  8
visible
100
AcDbLine
 10
800.0
 20
100.0
 30
0.0
 11
900.0
 21
100.0
 31
0.0
  0
LINE
  5
178
330
17
100
AcDbEntity
  8
visible
100
AcDbLine
 10
1950.0
 20
300.0
 30
0.0
 11
1950.0
 21
350.0
 31
0.0
  0
LINE
  5
179
330
17
100
AcDbEntity
  8
visible
100
AcDbLine
 10
1000.0
 20
175.0
 30
0.0
 11
955.0
 21
175.0
 31
0.0
  0
LINE
  5
17A
330
17
100
AcDbEntity
  8
visible
100
AcDbLine
 10
900.0
 20
180.0
 30
0.0
 11
999.0
 21
153.0
 31
0.0
  0
LINE
  5
17B
330
17
100
AcDbEntity
  8
visible
100
AcDbLine
 10
800.0
 20
310.0
 30
0.0
 11
900.0
 21
235.0
 31
0.0
  0
LINE
  5
17C
330
17
100
AcDbEntity
  8
visible
100
AcDbLine
 10
125.0
 20
-75.0
 30
0.0
 11
125.0
 21
325.0
 31
0.0
  0
LINE
  5
17D
330
17
100
AcDbEntity
  8
visible
100
AcDbLine
 10
800.0
 20
125.0
 30
0.0
 11
900.0
 21
125.0
 31
0.0
  0
LINE
  5
17E
330
17
100
AcDbEntity
  8
visible
100
AcDbLine
 10
900.0
 20
235.0
 30
0.0
 11
850.0
 21
325.0
 31
0.0
  0
LINE
  5
17F
330
17
100
AcDbEntity
  8
visible
100
AcDbLine
 10
1525.0
 20
-200.0
 30
0.0
 11
1525.0
 21
-350.0
 31
0.0
  0
LINE
  5
180
330
17
100
AcDbEntity
  8
visible
100
AcDbLine
 10
1575.0
 20
-50.0
 30
0.0
 11
1575.0
 21
50.0
 31
0.0
  0
LINE
  5
181
330
17
100
AcDbEntity
  8
visible
100
AcDbLine
 10
900.0
 20
45.0
 30
0.0
 11
775.0
 21
45.0
 31
0.0
  0
LINE
  5
182
330
17
100
AcDbEntity
  8
visible
100
AcDbLine
 10
900.0
 20
200.0
 30
0.0
 11
900.0
 21
190.0
 31
0.0
  0
LINE
  5
183
330
17
100
AcDbEntity
  8
visible
100
AcDbLine
 10
1950.0
 20
-350.0
 30
0.0
 11
1950.0
 21
-400.0
 31
0.0
  0
LINE
  5
184
330
17
100
AcDbEntity
  8
visible
100
AcDbLine
 10
1900.0
 20
300.0
 30
0.0
 11
1950.0
 21
300.0
 31
0.0
  0
LINE
  5
185
330
17
100
AcDbEntity
  8
visible
100
AcDbLine
 10
1455.0
 20
-45.0
 30
0.0
 11
1455.0
 21
-40.0
 31
0.0
  0
LINE
  5
186
330
17
100
AcDbEntity
  8
visible
100
AcDbLine
 10
850.0
 20
-375.0
 30
0.0
 11
900.0
 21
-375.0
 31
0.0
  0
LINE
  5
187
330
17
100
AcDbEntity
  8
visible
100
AcDbLine
 10
250.0
 20
125.0
 30
0.0
 11
600.0
 21
125.0
 31
0.0
  0
LINE
  5
188
330
17
100
AcDbEntity
  8
visible
100
AcDbLine
 10
1150.0
 20
-375.0
 30
0.0
 11
1450.0
 21
-375.0
 31
0.0
  0
LINE
  5
189
330
17
100
AcDbEntity
  8
visible
100
AcDbLine
 10
900.0
 20
200.0
 30
0.0
 11
1000.0
 21
200.0
 31
0.0
  0
LINE
  5
18A
330
17
100
AcDbEntity
  8
visible
100
AcDbLine
 10
1455.0
 20
-45.0
 30
0.0
 11
1550.0
 21
-45.0
 31
0.0
  0
LINE
  5
18B
330
17
100
AcDbEntity
  8
visible
100
AcDbLine
 10
1550.0
 20
-200.0
 30
0.0
 11
1550.0
 21
-350.0
 31
0.0
  0
LINE
  5
18C
330
17
100
AcDbEntity
  8
visible
100
AcDbLine
 10
1455.0
 20
-40.0
 30
0.0
 11
1464.0
 21
-40.0
 31
0.0
  0
LINE
  5
18D
330
17
100
AcDbEntity
  8
visible
100
AcDbLine
 10
1950.0
 20
-400.0
 30
0.0
 11
1900.0
 21
-400.0
 31
0.0
  0
LINE
  5
18E
330
17
100
AcDbEntity
  8
visible
100
AcDbLine
 10
800.0
 20
150.0
 30
0.0
 11
900.0
 21
150.0
 31
0.0
  0
LINE
  5
18F
330
17
100
AcDbEntity
  8
visible
100
AcDbLine
 10
250.0
 20
-400.0
 30
0.0
 11
625.0
 21
-400.0
 31
0.0
  0
LINE
  5
190
330
17
100
AcDbEntity
  8
visible
100
AcDbLine
 10
900.0
 20
235.0
 30
0.0
 11
1000.0
 21
310.0
 31
0.0
  0
LINE
  5
191
330
17
100
AcDbEntity
  8
visible
100
AcDbLine
 10
775.0
 20
75.0
 30
0.0
 11
775.0
 21
45.0
 31
0.0
  0
LINE
  5
192
330
17
100
AcDbEntity
  8
visible
100
AcDbLine
 10
900.0
 20
235.0
 30
0.0
 11
950.0
 21
325.0
 31
0.0
  0
LINE
  5
193
330
17
100
AcDbEntity
  8
visible
100
AcDbLine
 10
900.0
 20
175.0
 30
0.0
 11
800.0
 21
175.0
 31
0.0
  0
LINE
  5
194
330
17
100
AcDbEntity
  8
visible
100
AcDbLine
 10
850.0
 20
-350.0
 30
0.0
 11
900.0
 21
-350.0
 31
0.0
  0
LINE
  5
195
330
17
100
AcDbEntity
  8
visible
100
AcDbLine
 10
900.0
 20
180.0
 30
0.0
 11
900.0
 21
44.0
 31
0.0
  0
LINE
  5
196
330
17
100
AcDbEntity
  8
visible
100
AcDbLine
 10
250.0
 20
-375.0
 30
0.0
 11
625.0
 21
-375.0
 31
0.0
  0
LINE
  5
197
330
17
100
AcDbEntity
  8
visible
100
AcDbLine
 10
1150.0
 20
-350.0
 30
0.0
 11
1450.0
 21
-350.0
 31
0.0
  0
LINE
  5
198
330
17
100
AcDbEntity
  8
visible
100
AcDbLine
 10
900.0
 20
225.0
 30
0.0
 11
1000.0
 21
225.0
 31
0.0
  0
LINE
  5
199
330
17
100
AcDbEntity
  8
visible
100
AcDbLine
 10
800.0
 20
200.0
 30
0.0
 11
900.0
 21
200.0
 31
0.0
  0
LINE
  5
19A
330
17
100
AcDbEntity
  8
visible
100
AcDbLine
 10
1550.0
 20
300.0
 30
0.0
 11
1550.0
 21
100.0
 31
0.0
  0
LINE
  5
19B
330
17
100
AcDbEntity
  8
visible
100
AcDbLine
 10
1575.0
 20
100.0
 30
0.0
 11
1575.0
 21
300.0
 31
0.0
  0
LINE
  5
19C
330
17
100
AcDbEntity
  8
visible
100
AcDbLine
 10
1900.0
 20
-400.0
 30
0.0
 11
1900.0
 21
-350.0
 31
0.0
  0
LINE
  5
19D
330
17
100
AcDbEntity
  8
visible
100
AcDbLine
 10
800.0
 20
265.0
 30
0.0
 11
900.0
 21
230.0
 31
0.0
  0
LINE
  5
19E
330
17
100
AcDbEntity
  8
visible
100
AcDbLine
 10
900.0
 20
230.0
 30
0.0
 11
1000.0
 21
260.0
 31
0.0
  0
LINE
  5
19F
330
17
100
AcDbEntity
  8
visible
100
AcDbLine
 10
1464.0
 20
-40.0
 30
0.0
 11
1462.0
 21
-42.0
 31
0.0
  0
LINE
  5
1A0
330
17
100
AcDbEntity
  8
visible
100
AcDbLine
 10
800.0
 20
75.0
 30
0.0
 11
900.0
 21
75.0
 31
0.0
  0
LINE
  5
1A1
330
17
100
AcDbEntity
  8
visible
100
AcDbLine
 10
1575.0
 20
-100.0
 30
0.0
 11
1575.0
 21
-200.0
 31
0.0
  0
LINE
  5
1A2
330
17
100
AcDbEntity
  8
visible
100
AcDbLine
 10
900.0
 20
235.0
 30
0.0
 11
900.0
 21
325.0
 31
0.0
  0
LINE
  5
1A3
330
17
100
AcDbEntity
  8
visible
100
AcDbLine
 10
1550.0
 20
45.0
 30
0.0
 11
1464.0
 21
-40.0
 31
0.0
  0
LINE
  5
1A4
330
17
100
AcDbEntity
  8
visible
100
AcDbLine
 10
1900.0
 20
350.0
 30
0.0
 11
1950.0
 21
350.0
 31
0.0
  0
LINE
  5
1A5
330
17
100
AcDbEntity
  8
visible
100
AcDbLine
 10
1575.0
 20
-200.0
 30
0.0
 11
1550.0
 21
-200.0
 31
0.0
  0
LINE
  5
1A6
330
17
100
AcDbEntity
  8
visible
100
AcDbLine
 10
900.0
 20
235.0
 30
0.0
 11
900.0
 21
230.0
 31
0.0
  0
LINE
  5
1A7
330
17
100
AcDbEntity
  8
visible
100
AcDbLine
 10
1550.0
 20
-200.0
 30
0.0
 11
1525.0
 21
-200.0
 31
0.0
  0
LINE
  5
1A8
330
17
100
AcDbEntity
  8
visible
100
AcDbLine
 10
1900.0
 20
350.0
 30
0.0
 11
1900.0
 21
300.0
 31
0.0
  0
LINE
  5
1A9
330
17
100
AcDbEntity
  8
visible
100
AcDbLine
 10
900.0
 20
225.0
 30
0.0
 11
900.0
 21
200.0
 31
0.0
  0
LINE
  5
1AA
330
17
100
AcDbEntity
  8
visible
100
AcDbLine
 10
900.0
 20
225.0
 30
0.0
 11
800.0
 21
225.0
 31
0.0
  0
LINE
  5
1AB
330
17
100
AcDbEntity
  8
visible
100
AcDbLine
 10
150.0
 20
325.0
 30
0.0
 11
150.0
 21
-75.0
 31
0.0
  0
LINE
  5
1AC
330
17
100
AcDbEntity
  8
visible
100
AcDbLine
 10
1450.0
 20
-400.0
 30
0.0
 11
1150.0
 21
-400.0
 31
0.0
  0
LINE
  5
1AD
330
17
100
AcDbEntity
  8
visible
100
AcDbLine
 10
900.0
 20
230.0
 30
0.0
 11
900.0
 21
225.0
 31
0.0
  0
TEXT
  5
1AE
330
17
100
AcDbEntity
  8
visible
100
AcDbText
 10
325.0
 20
-325.0
 30
0.0
 40
25.0
  1
Hp=110
 50
360.0
 41
125.0
 11
325.0
 21
-325.0
 31
0.0
100
AcDbText
  0
TEXT
  5
1AF
330
17
100
AcDbEntity
  8
visible
100
AcDbText
 10
850.0
 20
-325.0
 30
0.0
 40
25.0
  1
Hp=150
 50
360.0
 41
75.0
 11
850.0
 21
-325.0
 31
0.0
100
AcDbText
  0
TEXT
  5
1B0
330
17
100
AcDbEntity
  8
visible
100
AcDbText
 10
1225.0
 20
-325.0
 30
0.0
 40
25.0
  1
Hp=110
 50
360.0
 41
125.0
 11
1225.0
 21
-325.0
 31
0.0
100
AcDbText
  0
LINE
  5
1B2
330
17
100
AcDbEntity
  8
above
100
AcDbLine
 10
250.0
 20
150.0
 30
0.0
 11
600.0
 21
150.0
 31
0.0
  0
LINE
  5
1B4
330
17
100
AcDbEntity
  8
below
100
AcDbLine
 10
250.0
 20
175.0
 30
0.0
 11
600.0
 21
175.0
 31
0.0
  0
DIMENSION
  5
1B6
330
17
100
AcDbEntity
  8
dims
100
AcDbDimension
280
0
  2
*D14
  3
Standard
 10
1675.0
 20
-350.0
 30
0.0
 11
1675.0
 21
-400.0
 31
0.0
 70
160
 71
5
  1
<>
100
AcDbAlignedDimension
 13
1675.0
 23
-350.0
 33
0.0
 14
1675.0
 24
-400.0
 34
0.0
 50
0.0
100
AcDbRotatedDimension
1001
ACAD
1000
DSTYLE
1002
{
1070
279
1070
2
1002
}
  0
DIMENSION
  5
1C7
330
17
100
AcDbEntity
  8
dims
100
AcDbDimension
280
0
  2
*D15
  3
Standard
 10
625.0
 20
-450.0
 30
0.0
 11
250.0
 21
-450.0
 31
0.0
 70
160
 71
5
  1
<>
100
AcDbAlignedDimension
 13
625.0
 23
-450.0
 33
0.0
 14
250.0
 24
-450.0
 34
0.0
 50
0.0
100
AcDbRotatedDimension
1001
ACAD
1000
DSTYLE
1002
{
1070
279
1070
2
1002
}
  0
DIMENSION
  5
1D6
330
17
100
AcDbEntity
  8
dims
100
AcDbDimension
280
0
  2
*D16
  3
Standard
 10
1725.0
 20
375.0
 30
0.0
 11
1725.0
 21
-400.0
 31
0.0
 70
160
 71
5
  1
<>
100
AcDbAlignedDimension
 13
1725.0
 23
375.0
 33
0.0
 14
1725.0
 24
-400.0
 34
0.0
 50
0.0
100
AcDbRotatedDimension
1001
ACAD
1000
DSTYLE
1002
{
1070
279
1070
2
1002
}
  0
DIMENSION
  5
1E7
330
17
100
AcDbEntity
  8
dims
100
AcDbDimension
280
0
  2
*D17
  3
Standard
 10
950.0
 20
-100.0
 30
0.0
 11
950.0
 21
50.0
 31
0.0
 70
160
 71
5
  1
<>
100
AcDbAlignedDimension
 13
950.0
 23
-100.0
 33
0.0
 14
950.0
 24
50.0
 34
0.0
 50
0.0
100
AcDbRotatedDimension
1001
ACAD
1000
DSTYLE
1002
{
1070
279
1070
2
1002
}
  0
DIMENSION
  5
1F8
330
17
100
AcDbEntity
  8
dims
100
AcDbDimension
280
0
  2
*D18
  3
Standard
 10
175.0
 20
-50.0
 30
0.0
 11
425.0
 21
-50.0
 31
0.0
 70
160
 71
5
  1
<>
100
AcDbAlignedDimension
 13
175.0
 23
-50.0
 33
0.0
 14
425.0
 24
-50.0
 34
0.0
 50
0.0
100
AcDbRotatedDimension
1001
ACAD
1000
DSTYLE
1002
{
1070
279
1070
2
1002
}
  0
DIMENSION
  5
207
330
17
100
AcDbEntity
  8
dims
100
AcDbDimension
280
0
  2
*D19
  3
Standard
 10
125.0
 20
-50.0
 30
0.0
 11
175.0
 21
-50.0
 31
0.0
 70
160
 71
5
  1
<>
100
AcDbAlignedDimension
 13
125.0
 23
-50.0
 33
0.0
 14
175.0
 24
-50.0
 34
0.0
 50
0.0
100
AcDbRotatedDimension
1001
ACAD
1000
DSTYLE
1002
{
1070
279
1070
2
1002
}
  0
DIMENSION
  5
216
330
17
100
AcDbEntity
  8
dims
100
AcDbDimension
280
0
  2
*D20
  3
Standard
 10
1575.0
 20
-450.0
 30
0.0
 11
625.0
 21
-450.0
 31
0.0
 70
160
 71
5
  1
<>
100
AcDbAlignedDimension
 13
1575.0
 23
-450.0
 33
0.0
 14
625.0
 24
-450.0
 34
0.0
 50
0.0
100
AcDbRotatedDimension
1001
ACAD
1000
DSTYLE
1002
{
1070
279
1070
2
1002
}
  0
DIMENSION
  5
225
330
17
100
AcDbEntity
  8
dims
100
AcDbDimension
280
0
  2
*D21
  3
Standard
 10
425.0
 20
-50.0
 30
0.0
 11
800.0
 21
-50.0
 31
0.0
 70
160
 71
5
  1
<>
100
AcDbAlignedDimension
 13
425.0
 23
-50.0
 33
0.0
 14
800.0
 24
-50.0
 34
0.0
 50
0.0
100
AcDbRotatedDimension
1001
ACAD
1000
DSTYLE
1002
{
1070
279
1070
2
1002
}
  0
DIMENSION
  5
234
330
17
100
AcDbEntity
  8
dims
100
AcDbDimension
280
0
  2
*D22
  3
Standard
 10
800.0
 20
-50.0
 30
0.0
 11
1000.0
 21
-50.0
 31
0.0
 70
160
 71
5
  1
<>
100
AcDbAlignedDimension
 13
800.0
 23
-50.0
 33
0.0
 14
1000.0
 24
-50.0
 34
0.0
 50
0.0
100
AcDbRotatedDimension
1001
ACAD
1000
DSTYLE
1002
{
1070
279
1070
2
1002
}
  0
DIMENSION
  5
243
330
17
100
AcDbEntity
  8
dims
100
AcDbDimension
280
0
  2
*D23
  3
Standard
 10
0.0
 20
-400.0
 30
0.0
 11
0.0
 21
375.0
 31
0.0
 70
160
 71
5
  1
<>
100
AcDbAlignedDimension
 13
0.0
 23
-400.0
 33
0.0
 14
0.0
 24
375.0
 34
0.0
 50
0.0
100
AcDbRotatedDimension
1001
ACAD
1000
DSTYLE
1002
{
1070
279
1070
2
1002
}
  0
DIMENSION
  5
254
330
17
100
AcDbEntity
  8
dims
100
AcDbDimension
280
0
  2
*D24
  3
Standard
 10
1575.0
 20
-500.0
 30
0.0
 11
125.0
 21
-500.0
 31
0.0
 70
160
 71
5
  1
<>
100
AcDbAlignedDimension
 13
1575.0
 23
-500.0
 33
0.0
 14
125.0
 24
-500.0
 34
0.0
 50
0.0
100
AcDbRotatedDimension
1001
ACAD
1000
DSTYLE
1002
{
1070
279
1070
2
1002
}
  0
DIMENSION
  5
263
330
17
100
AcDbEntity
  8
dims
100
AcDbDimension
280
0
  2
*D25
  3
Standard
 10
1000.0
 20
-50.0
 30
0.0
 11
1525.0
 21
-50.0
 31
0.0
 70
160
 71
5
  1
<>
100
AcDbAlignedDimension
 13
1000.0
 23
-50.0
 33
0.0
 14
1525.0
 24
-50.0
 34
0.0
 50
0.0
100
AcDbRotatedDimension
1001
ACAD
1000
DSTYLE
1002
{
1070
279
1070
2
1002
}
  0
DIMENSION
  5
272
330
17
100
AcDbEntity
  8
dims
100
AcDbDimension
280
0
  2
*D26
  3
Standard
 10
1675.0
 20
375.0
 30
0.0
 11
1675.0
 21
300.0
 31
0.0
 70
160
 71
5
  1
<>
100
AcDbAlignedDimension
 13
1675.0
 23
375.0
 33
0.0
 14
1675.0
 24
300.0
 34
0.0
 50
0.0
100
AcDbRotatedDimension
1001
ACAD
1000
DSTYLE
1002
{
1070
279
1070
2
1002
}
  0
DIMENSION
  5
283
330
17
100
AcDbEntity
  8
dims
100
AcDbDimension
280
0
  2
*D27
  3
Standard
 10
50.0
 20
-75.0
 30
0.0
 11
50.0
 21
325.0
 31
0.0
 70
160
 71
5
  1
<>
100
AcDbAlignedDimension
 13
50.0
 23
-75.0
 33
0.0
 14
50.0
 24
325.0
 34
0.0
 50
0.0
100
AcDbRotatedDimension
1001
ACAD
1000
DSTYLE
1002
{
1070
279
1070
2
1002
}
  0
DIMENSION
  5
294
330
17
100
AcDbEntity
  8
dims
100
AcDbDimension
280
0
  2
*D28
  3
Standard
 10
950.0
 20
-350.0
 30
0.0
 11
950.0
 21
-200.0
 31
0.0
 70
160
 71
5
  1
<>
100
AcDbAlignedDimension
 13
950.0
 23
-350.0
 33
0.0
 14
950.0
 24
-200.0
 34
0.0
 50
0.0
100
AcDbRotatedDimension
1001
ACAD
1000
DSTYLE
1002
{
1070
279
1070
2
1002
}
  0
DIMENSION
  5
2A5
330
17
100
AcDbEntity
  8
dims
100
AcDbDimension
280
0
  2
*D29
  3
Standard
 10
1675.0
 20
-100.0
 30
0.0
 11
1675.0
 21
-200.0
 31
0.0
 70
160
 71
5
  1
<>
100
AcDbAlignedDimension
 13
1675.0
 23
-100.0
 33
0.0
 14
1675.0
 24
-200.0
 34
0.0
 50
0.0
100
AcDbRotatedDimension
1001
ACAD
1000
DSTYLE
1002
{
1070
279
1070
2
1002
}
  0
DIMENSION
  5
2B6
330
17
100
AcDbEntity
  8
dims
100
AcDbDimension
280
0
  2
*D30
  3
Standard
 10
50.0
 20
325.0
 30
0.0
 11
50.0
 21
375.0
 31
0.0
 70
160
 71
5
  1
<>
100
AcDbAlignedDimension
 13
50.0
 23
325.0
 33
0.0
 14
50.0
 24
375.0
 34
0.0
 50
0.0
100
AcDbRotatedDimension
1001
ACAD
1000
DSTYLE
1002
{
1070
279
1070
2
1002
}
  0
DIMENSION
  5
2C7
330
17
100
AcDbEntity
  8
dims
100
AcDbDimension
280
0
  2
*D31
  3
Standard
 10
1288.0
 20
50.0
 30
0.0
 11
1275.0
 21
50.0
 31
0.0
 70
160
 71
5
  1
<>
100
AcDbAlignedDimension
 13
1288.0
 23
50.0
 33
0.0
 14
1275.0
 24
50.0
 34
0.0
 50
0.0
100
AcDbRotatedDimension
1001
ACAD
1000
DSTYLE
1002
{
1070
279
1070
2
1002
}
  0
DIMENSION
  5
2D6
330
17
100
AcDbEntity
  8
dims
100
AcDbDimension
280
0
  2
*D32
  3
Standard
 10
50.0
 20
-400.0
 30
0.0
 11
50.0
 21
-75.0
 31
0.0
 70
160
 71
5
  1
<>
100
AcDbAlignedDimension
 13
50.0
 23
-400.0
 33
0.0
 14
50.0
 24
-75.0
 34
0.0
 50
0.0
100
AcDbRotatedDimension
1001
ACAD
1000
DSTYLE
1002
{
1070
279
1070
2
1002
}
  0
DIMENSION
  5
2E7
330
17
100
AcDbEntity
  8
dims
100
AcDbDimension
280
0
  2
*D33
  3
Standard
 10
1300.0
 20
50.0
 30
0.0
 11
1300.0
 21
125.0
 31
0.0
 70
160
 71
5
  1
<>
100
AcDbAlignedDimension
 13
1300.0
 23
50.0
 33
0.0
 14
1300.0
 24
125.0
 34
0.0
 50
0.0
100
AcDbRotatedDimension
1001
ACAD
1000
DSTYLE
1002
{
1070
279
1070
2
1002
}
  0
DIMENSION
  5
2F8
330
17
100
AcDbEntity
  8
dims
100
AcDbDimension
280
0
  2
*D34
  3
Standard
 10
1288.0
 20
50.0
 30
0.0
 11
1300.0
 21
50.0
 31
0.0
 70
160
 71
5
  1
<>
100
AcDbAlignedDimension
 13
1288.0
 23
50.0
 33
0.0
 14
1300.0
 24
50.0
 34
0.0
 50
0.0
100
AcDbRotatedDimension
1001
ACAD
1000
DSTYLE
1002
{
1070
279
1070
2
1002
}
  0
DIMENSION
  5
307
330
17
100
AcDbEntity
  8
dims
100
AcDbDimension
280
0
  2
*D35
  3
Standard
 10
950.0
 20
50.0
 30
0.0
 11
950.0
 21
325.0
 31
0.0
 70
160
 71
5
  1
<>
100
AcDbAlignedDimension
 13
950.0
 23
50.0
 33
0.0
 14
950.0
 24
325.0
 34
0.0
 50
0.0
100
AcDbRotatedDimension
1001
ACAD
1000
DSTYLE
1002
{
1070
279
1070
2
1002
}
  0
DIMENSION
  5
318
330
17
100
AcDbEntity
  8
dims
100
AcDbDimension
280
0
  2
*D36
  3
Standard
 10
1675.0
 20
300.0
 30
0.0
 11
1675.0
 21
100.0
 31
0.0
 70
160
 71
5
  1
<>
100
AcDbAlignedDimension
 13
1675.0
 23
300.0
 33
0.0
 14
1675.0
 24
100.0
 34
0.0
 50
0.0
100
AcDbRotatedDimension
1001
ACAD
1000
DSTYLE
1002
{
1070
279
1070
2
1002
}
  0
DIMENSION
  5
329
330
17
100
AcDbEntity
  8
dims
100
AcDbDimension
280
0
  2
*D37
  3
Standard
 10
1675.0
 20
-50.0
 30
0.0
 11
1675.0
 21
-100.0
 31
0.0
 70
160
 71
5
  1
<>
100
AcDbAlignedDimension
 13
1675.0
 23
-50.0
 33
0.0
 14
1675.0
 24
-100.0
 34
0.0
 50
0.0
100
AcDbRotatedDimension
1001
ACAD
1000
DSTYLE
1002
{
1070
279
1070
2
1002
}
  0
DIMENSION
  5
33A
330
17
100
AcDbEntity
  8
dims
100
AcDbDimension
280
0
  2
*D38
  3
Standard
 10
950.0
 20
-200.0
 30
0.0
 11
950.0
 21
-175.0
 31
0.0
 70
160
 71
5
  1
<>
100
AcDbAlignedDimension
 13
950.0
 23
-200.0
 33
0.0
 14
950.0
 24
-175.0
 34
0.0
 50
0.0
100
AcDbRotatedDimension
1001
ACAD
1000
DSTYLE
1002
{
1070
279
1070
2
1002
}
  0
DIMENSION
  5
34B
330
17
100
AcDbEntity
  8
dims
100
AcDbDimension
280
0
  2
*D39
  3
Standard
 10
250.0
 20
-450.0
 30
0.0
 11
125.0
 21
-450.0
 31
0.0
 70
160
 71
5
  1
<>
100
AcDbAlignedDimension
 13
250.0
 23
-450.0
 33
0.0
 14
125.0
 24
-450.0
 34
0.0
 50
0.0
100
AcDbRotatedDimension
1001
ACAD
1000
DSTYLE
1002
{
1070
279
1070
2
1002
}
  0
DIMENSION
  5
35A
330
17
100
AcDbEntity
  8
dims
100
AcDbDimension
280
0
  2
*D40
  3
Standard
 10
1675.0
 20
50.0
 30
0.0
 11
1675.0
 21
-50.0
 31
0.0
 70
160
 71
5
  1
<>
100
AcDbAlignedDimension
 13
1675.0
 23
50.0
 33
0.0
 14
1675.0
 24
-50.0
 34
0.0
 50
0.0
100
AcDbRotatedDimension
1001
ACAD
1000
DSTYLE
1002
{
1070
279
1070
2
1002
}
  0
DIMENSION
  5
36B
330
17
100
AcDbEntity
  8
dims
100
AcDbDimension
280
0
  2
*D41
  3
Standard
 10
950.0
 20
-175.0
 30
0.0
 11
950.0
 21
-100.0
 31
0.0
 70
160
 71
5
  1
<>
100
AcDbAlignedDimension
 13
950.0
 23
-175.0
 33
0.0
 14
950.0
 24
-100.0
 34
0.0
 50
0.0
100
AcDbRotatedDimension
1001
ACAD
1000
DSTYLE
1002
{
1070
279
1070
2
1002
}
  0
DIMENSION
  5
37C
330
17
100
AcDbEntity
  8
dims
100
AcDbDimension
280
0
  2
*D42
  3
Standard
 10
1675.0
 20
100.0
 30
0.0
 11
1675.0
 21
50.0
 31
0.0
 70
160
 71
5
  1
<>
100
AcDbAlignedDimension
 13
1675.0
 23
100.0
 33
0.0
 14
1675.0
 24
50.0
 34
0.0
 50
0.0
100
AcDbRotatedDimension
1001
ACAD
1000
DSTYLE
1002
{
1070
279
1070
2
1002
}
  0
DIMENSION
  5
38D
330
17
100
AcDbEntity
  8
dims
100
AcDbDimension
280
0
  2
*D43
  3
Standard
 10
700.0
 20
-75.0
 30
0.0
 11
700.0
 21
75.0
 31
0.0
 70
160
 71
5
  1
<>
100
AcDbAlignedDimension
 13
700.0
 23
-75.0
 33
0.0
 14
700.0
 24
75.0
 34
0.0
 50
0.0
100
AcDbRotatedDimension
1001
ACAD
1000
DSTYLE
1002
{
1070
279
1070
2
1002
}
  0
DIMENSION
  5
39E
330
17
100
AcDbEntity
  8
dims
100
AcDbDimension
280
0
  2
*D44
  3
Standard
 10
1675.0
 20
-200.0
 30
0.0
 11
1675.0
 21
-350.0
 31
0.0
 70
160
 71
5
  1
<>
100
AcDbAlignedDimension
 13
1675.0
 23
-200.0
 33
0.0
 14
1675.0
 24
-350.0
 34
0.0
 50
0.0
100
AcDbRotatedDimension
1001
ACAD
1000
DSTYLE
1002
{
1070
279
1070
2
1002
}
  0
DIMENSION
  5
3AF
330
17
100
AcDbEntity
  8
dims
100
AcDbDimension
280
0
  2
*D45
  3
Standard
 10
700.0
 20
75.0
 30
0.0
 11
700.0
 21
325.0
 31
0.0
 70
160
 71
5
  1
<>
100
AcDbAlignedDimension
 13
700.0
 23
75.0
 33
0.0
 14
700.0
 24
325.0
 34
0.0
 50
0.0
100
AcDbRotatedDimension
1001
ACAD
1000
DSTYLE
1002
{
1070
279
1070
2
1002
}
  0
DIMENSION
  5
3C0
330
17
100
AcDbEntity
  8
dims
100
AcDbDimension
280
0
  2
*D46
  3
Standard
 10
250.0
 20
225.0
 30
0.0
 11
600.0
 21
225.0
 31
0.0
 70
160
 71
5
  1
<>
100
AcDbAlignedDimension
 13
250.0
 23
225.0
 33
0.0
 14
600.0
 24
225.0
 34
0.0
 50
0.0
100
AcDbRotatedDimension
1001
ACAD
1000
DSTYLE
1002
{
1070
279
1070
2
1002
}
  0
DIMENSION
  5
3CF
330
17
100
AcDbEntity
  8
dims
100
AcDbDimension
280
0
  2
*D47
  3
Standard
 10
-175.0
 20
-700.0
 30
0.0
 11
-174.0
 21
675.0
 31
0.0
 70
160
 71
5
  1
<>
100
AcDbAlignedDimension
 13
-175.0
 23
-700.0
 33
0.0
 14
-174.0
 24
675.0
 34
0.0
 50
0.0
100
AcDbRotatedDimension
1001
ACAD
1000
DSTYLE
1002
{
1070
279
1070
2
1002
}
  0
DIMENSION
  5
3E0
330
17
100
AcDbEntity
  8
dims
100
AcDbDimension
280
0
  2
*D48
  3
Standard
 10
-125.0
 20
-775.0
 30
0.0
 11
1626.0
 21
-775.0
 31
0.0
 70
160
 71
5
  1
<>
100
AcDbAlignedDimension
 13
-125.0
 23
-775.0
 33
0.0
 14
1626.0
 24
-775.0
 34
0.0
 50
0.0
100
AcDbRotatedDimension
1001
ACAD
1000
DSTYLE
1002
{
1070
279
1070
2
1002
}
  0
LINE
  5
3F0
330
17
100
AcDbEntity
  8
annotations
100
AcDbLine
 10
997.0
 20
-277.0
 30
0.0
 11
993.0
 21
-277.0
 31
0.0
  0
LINE
  5
3F1
330
17
100
AcDbEntity
  8
annotations
100
AcDbLine
 10
945.0
 20
-110.0
 30
0.0
 11
945.0
 21
-105.0
 31
0.0
  0
LINE
  5
3F2
330
17
100
AcDbEntity
  8
annotations
100
AcDbLine
 10
955.0
 20
270.0
 30
0.0
 11
920.0
 21
295.0
 31
0.0
  0
LINE
  5
3F3
330
17
100
AcDbEntity
  8
annotations
100
AcDbLine
 10
860.0
 20
-110.0
 30
0.0
 11
860.0
 21
-105.0
 31
0.0
  0
LINE
  5
3F4
330
17
100
AcDbEntity
  8
annotations
100
AcDbLine
 10
993.0
 20
-277.0
 30
0.0
 11
993.0
 21
-175.0
 31
0.0
  0
LINE
  5
3F5
330
17
100
AcDbEntity
  8
annotations
100
AcDbLine
 10
945.0
 20
-110.0
 30
0.0
 11
1015.0
 21
-110.0
 31
0.0
  0
LINE
  5
3F6
330
17
100
AcDbEntity
  8
annotations
100
AcDbLine
 10
945.0
 20
-105.0
 30
0.0
 11
1015.0
 21
-105.0
 31
0.0
  0
LINE
  5
3F7
330
17
100
AcDbEntity
  8
annotations
100
AcDbLine
 10
1015.0
 20
-175.0
 30
0.0
 11
950.0
 21
-110.0
 31
0.0
  0
LINE
  5
3F8
330
17
100
AcDbEntity
  8
annotations
100
AcDbLine
 10
955.0
 20
175.0
 30
0.0
 11
1000.0
 21
185.0
 31
0.0
  0
LINE
  5
3F9
330
17
100
AcDbEntity
  8
annotations
100
AcDbLine
 10
900.0
 20
-175.0
 30
0.0
 11
1000.0
 21
-275.0
 31
0.0
  0
LINE
  5
3FA
330
17
100
AcDbEntity
  8
annotations
100
AcDbLine
 10
997.0
 20
-175.0
 30
0.0
 11
997.0
 21
-277.0
 31
0.0
  0
LINE
  5
3FB
330
17
100
AcDbEntity
  8
annotations
100
AcDbLine
 10
880.0
 20
295.0
 30
0.0
 11
840.0
 21
270.0
 31
0.0
  0
LINE
  5
3FC
330
17
100
AcDbEntity
  8
annotations
100
AcDbLine
 10
920.0
 20
295.0
 30
0.0
 11
880.0
 21
295.0
 31
0.0
  0
LINE
  5
3FD
330
17
100
AcDbEntity
  8
annotations
100
AcDbLine
 10
955.0
 20
175.0
 30
0.0
 11
955.0
 21
270.0
 31
0.0
  0
LINE
  5
3FE
330
17
100
AcDbEntity
  8
annotations
100
AcDbLine
 10
840.0
 20
270.0
 30
0.0
 11
840.0
 21
45.0
 31
0.0
  0
LINE
  5
3FF
330
17
100
AcDbEntity
  8
annotations
100
AcDbLine
 10
860.0
 20
-105.0
 30
0.0
 11
790.0
 21
-104.0
 31
0.0
  0
LINE
  5
400
330
17
100
AcDbEntity
  8
annotations
100
AcDbLine
 10
790.0
 20
-175.0
 30
0.0
 11
855.0
 21
-109.0
 31
0.0
  0
LINE
  5
401
330
17
100
AcDbEntity
  8
annotations
100
AcDbLine
 10
790.0
 20
-110.0
 30
0.0
 11
860.0
 21
-110.0
 31
0.0
  0
ENDSEC
  0
SECTION
  2
OBJECTS
  0
DICTIONARY
  5
A
330
0
100
AcDbDictionary
280
0
281
1
  3
ACAD_COLOR
350
B
  3
ACAD_GROUP
350
C
  3
ACAD_LAYOUT
350
D
  3
ACAD_MATERIAL
350
E
  3
ACAD_MLEADERSTYLE
350
F
  3
ACAD_MLINESTYLE
350
10
  3
ACAD_PLOTSETTINGS
350
11
  3
ACAD_PLOTSTYLENAME
350
12
  3
ACAD_SCALELIST
350
14
  3
ACAD_TABLESTYLE
350
15
  3
ACAD_VISUALSTYLE
350
16
  3
EZDXF_META
350
2D
  0
DICTIONARY
  5
B
330
A
100
AcDbDictionary
280
0
281
1
  0
DICTIONARY
  5
C
330
A
100
AcDbDictionary
280
0
281
1
  0
DICTIONARY
  5
D
330
A
100
AcDbDictionary
280
0
281
1
  3
Model
350
1A
  3
Layout1
350
1E
  0
DICTIONARY
  5
E
330
A
100
AcDbDictionary
280
0
281
1
  3
ByBlock
350
1F
  3
ByLayer
350
20
  3
Global
350
21
  0
DICTIONARY
  5
F
330
A
100
AcDbDictionary
280
0
281
1
  3
Standard
350
2C
  0
DICTIONARY
  5
10
330
A
100
AcDbDictionary
280
0
281
1
  3
Standard
350
22
  0
DICTIONARY
  5
11
330
A
100
AcDbDictionary
280
0
281
1
  0
ACDBDICTIONARYWDFLT
  5
12
330
A
100
AcDbDictionary
280
0
281
1
  3
Normal
350
13
100
AcDbDictionaryWithDefault
340
13
  0
ACDBPLACEHOLDER
  5
13
330
12
  0
DICTIONARY
  5
14
330
A
100
AcDbDictionary
280
0
281
1
  0
DICTIONARY
  5
15
330
A
100
AcDbDictionary
280
0
281
1
  0
DICTIONARY
  5
16
330
A
100
AcDbDictionary
280
0
281
1
  0
LAYOUT
  5
1A
330
D
100
AcDbPlotSettings
  1

  4
A3
  6

 40
7.5
 41
20.0
 42
7.5
 43
20.0
 44
420.0
 45
297.0
 46
0.0
 47
0.0
 48
0.0
 49
0.0
140
0.0
141
0.0
142
1.0
143
1.0
 70
1024
 72
1
 73
0
 74
5
  7

 75
16
 76
0
 77
2
 78
300
147
1.0
148
0.0
149
0.0
100
AcDbLayout
  1
Model
 70
1
 71
0
 10
0.0
 20
0.0
 11
420.0
 21
297.0
 12
0.0
 22
0.0
 32
0.0
 14
1e+20
 24
1e+20
 34
1e+20
 15
-1e+20
 25
-1e+20
 35
-1e+20
146
0.0
 13
0.0
 23
0.0
 33
0.0
 16
1.0
 26
0.0
 36
0.0
 17
0.0
 27
1.0
 37
0.0
 76
1
330
17
  0
LAYOUT
  5
1E
330
D
100
AcDbPlotSettings
  1

  4
A3
  6

 40
7.5
 41
20.0
 42
7.5
 43
20.0
 44
420.0
 45
297.0
 46
0.0
 47
0.0
 48
0.0
 49
0.0
140
0.0
141
0.0
142
1.0
143
1.0
 70
0
 72
1
 73
0
 74
5
  7

 75
16
 76
0
 77
2
 78
300
147
1.0
148
0.0
149
0.0
100
AcDbLayout
  1
Layout1
 70
1
 71
1
 10
0.0
 20
0.0
 11
420.0
 21
297.0
 12
0.0
 22
0.0
 32
0.0
 14
1e+20
 24
1e+20
 34
1e+20
 15
-1e+20
 25
-1e+20
 35
-1e+20
146
0.0
 13
0.0
 23
0.0
 33
0.0
 16
1.0
 26
0.0
 36
0.0
 17
0.0
 27
1.0
 37
0.0
 76
1
330
1B
  0
MATERIAL
  5
1F
102
{ACAD_REACTORS
330
E
102
}
330
E
100
AcDbMaterial
  1
ByBlock
  2

 70
0
 40
1.0
 71
1
 41
1.0
 91
-1023410177
 42
1.0
 72
1
  3

 73
1
 74
1
 75
1
 44
0.5
 73
0
 45
1.0
 46
1.0
 77
1
  4

 78
1
 79
1
170
1
 48
1.0
171
1
  6

172
1
173
1
174
1
140
1.0
141
1.0
175
1
  7

176
1
177
1
178
1
143
1.0
179
1
  8

270
1
271
1
272
1
145
1.0
146
1.0
273
1
  9

274
1
275
1
276
1
 42
1.0
 72
1
  3

 73
1
 74
1
 75
1
 94
63
  0
MATERIAL
  5
20
102
{ACAD_REACTORS
330
E
102
}
330
E
100
AcDbMaterial
  1
ByLayer
  2

 70
0
 40
1.0
 71
1
 41
1.0
 91
-1023410177
 42
1.0
 72
1
  3

 73
1
 74
1
 75
1
 44
0.5
 73
0
 45
1.0
 46
1.0
 77
1
  4

 78
1
 79
1
170
1
 48
1.0
171
1
  6

172
1
173
1
174
1
140
1.0
141
1.0
175
1
  7

176
1
177
1
178
1
143
1.0
179
1
  8

270
1
271
1
272
1
145
1.0
146
1.0
273
1
  9

274
1
275
1
276
1
 42
1.0
 72
1
  3

 73
1
 74
1
 75
1
 94
63
  0
MATERIAL
  5
21
102
{ACAD_REACTORS
330
E
102
}
330
E
100
AcDbMaterial
  1
Global
  2

 70
0
 40
1.0
 71
1
 41
1.0
 91
-1023410177
 42
1.0
 72
1
  3

 73
1
 74
1
 75
1
 44
0.5
 73
0
 45
1.0
 46
1.0
 77
1
  4

 78
1
 79
1
170
1
 48
1.0
171
1
  6

172
1
173
1
174
1
140
1.0
141
1.0
175
1
  7

176
1
177
1
178
1
143
1.0
179
1
  8

270
1
271
1
272
1
145
1.0
146
1.0
273
1
  9

274
1
275
1
276
1
 42
1.0
 72
1
  3

 73
1
 74
1
 75
1
 94
63
  0
MLINESTYLE
  5
22
102
{ACAD_REACTORS
330
10
102
}
330
10
100
AcDbMlineStyle
  2
Standard
 70
0
  3

 62
256
 51
90.0
 52
90.0
 71
2
 49
0.5
 62
256
  6
BYLAYER
 49
-0.5
 62
256
  6
BYLAYER
  0
MLEADERSTYLE
  5
2C
102
{ACAD_REACTORS
330
F
102
}
330
F
100
AcDbMLeaderStyle
179
2
170
2
171
1
172
0
 90
2
 40
0.0
 41
0.0
173
1
 91
-1056964608
 92
-2
290
1
 42
2.0
291
1
 43
8.0
  3
Standard
 44
4.0
300

342
29
174
1
175
1
176
0
178
1
 93
-1056964608
 45
4.0
292
0
297
0
 46
4.0
 94
-1056964608
 47
1.0
 49
1.0
140
1.0
294
1
141
0.0
177
0
142
1.0
295
0
296
0
143
3.75
271
0
272
9
273
9
  0
DICTIONARY
  5
2D
330
A
100
AcDbDictionary
281
1
  3
CREATED_BY_EZDXF
350
2E
  3
WRITTEN_BY_EZDXF
350
404
  0
DICTIONARYVAR
  5
2E
330
2D
100
DictionaryVariables
280
0
  1
1.3.1 @ 2024-07-06T16:07:31.804728+00:00
  0
DICTIONARYVAR
  5
404
330
2D
100
DictionaryVariables
280
0
  1
1.3.1 @ 2024-07-06T16:07:31.952658+00:00
  0
ENDSEC
  0
EOF
